<svg width="289" height="87" viewBox="0 0 289 87" fill="none" xmlns="http://www.w3.org/2000/svg">
<g clip-path="url(#clip0_47_700)">
<path d="M123.868 67.1684C121.822 67.1684 120.799 66.0774 120.799 63.8954V45.8639H119.076C116.957 45.8639 115.903 44.9608 115.903 43.1425C115.903 41.3242 116.64 40.4817 118.114 40.4817H120.805V35.7117C120.805 32.4205 121.542 30.1476 123.015 28.8869C124.483 27.6323 126.583 27.002 129.311 27.002C130.675 27.002 131.814 27.1777 132.727 27.5293C133.64 27.8808 134.079 28.6687 134.042 29.887C134.042 30.6628 133.884 31.3113 133.561 31.8265C133.239 32.3478 132.575 32.6023 131.57 32.6023C131.351 32.6023 131.101 32.5842 130.815 32.5478C130.529 32.5114 130.273 32.4932 130.06 32.4932C127.911 32.4932 126.833 33.8267 126.833 36.4875V40.4817H130.87C132.989 40.4817 134.042 41.3727 134.042 43.1425C134.042 44.9123 133.001 45.8639 130.925 45.8639H126.833V63.8954C126.833 66.0774 125.847 67.1684 123.874 67.1684H123.868Z" fill="#3759A8"/>
<path d="M146.47 67.5622C143.675 67.6713 141.367 67.041 139.553 65.6772C137.738 64.3074 136.837 62.3315 136.837 59.7435C136.837 57.8585 137.391 56.2463 138.506 54.9189C139.62 53.5855 141.051 52.543 142.81 51.7854C144.57 51.0277 146.379 50.6277 148.248 50.5913C149.179 50.5186 150.062 50.5913 150.884 50.8156C151.712 51.0398 152.449 51.355 153.095 51.7551V49.4276C153.095 47.6881 152.735 46.5608 152.017 46.0456C151.298 45.5243 150.239 45.2698 148.845 45.2698C147.84 45.2698 146.793 45.397 145.697 45.6577C144.601 45.9183 143.535 46.2698 142.494 46.7123C141.562 47.1184 140.765 47.2638 140.101 47.1547C139.437 47.0396 138.889 46.5971 138.463 45.8213C138.031 45.0455 137.933 44.3 138.165 43.5787C138.396 42.8575 138.999 42.2938 139.967 41.8877C141.258 41.2573 142.664 40.7603 144.193 40.3906C145.715 40.0209 147.268 39.833 148.845 39.833C152.181 39.833 154.69 40.524 156.377 41.9119C158.063 43.2999 158.91 45.8031 158.91 49.4276V61.6891C158.91 62.0588 158.952 62.3558 159.044 62.574C159.135 62.7982 159.214 62.9619 159.287 63.071C159.61 63.5498 159.963 63.8286 160.341 63.9014C160.718 63.9741 161.047 64.0226 161.333 64.0408C161.619 64.0589 161.765 64.2347 161.765 64.5681C161.765 65.2348 161.595 65.8106 161.254 66.2894C160.913 66.7682 160.347 67.1016 159.555 67.2895C158.727 67.4713 157.923 67.5683 157.132 67.5683C156.017 67.5683 155.171 67.3743 154.574 66.9864C153.984 66.5985 153.564 65.9439 153.308 65.0166C152.413 65.7924 151.371 66.3924 150.19 66.8167C149.003 67.241 147.767 67.4895 146.476 67.5683L146.47 67.5622ZM146.366 62.1255C148.376 62.0527 150.032 61.6466 151.341 60.9072C152.65 60.1678 153.271 59.1131 153.198 57.7433C153.162 56.8524 152.723 56.2463 151.877 55.9129C151.037 55.5796 149.983 55.4523 148.729 55.525C146.969 55.5614 145.52 56.016 144.369 56.8827C143.218 57.7494 142.664 58.7252 142.701 59.792C142.774 61.4588 143.992 62.2346 146.36 62.1194L146.366 62.1255Z" fill="#3759A8"/>
<path d="M179.515 67.7807C176.464 67.7807 174.059 66.4109 172.305 63.6774V64.7865C172.305 65.6715 172.025 66.2957 171.471 66.6473C170.917 66.9988 170.223 67.1746 169.401 67.1746C167.605 67.1746 166.709 66.0836 166.709 63.9016V30.8872C166.709 28.7052 167.732 27.6143 169.778 27.6143C171.824 27.6143 172.792 28.7052 172.792 30.8872V42.8699C173.657 41.9122 174.656 41.1607 175.806 40.6212C176.957 40.0879 178.193 39.8151 179.521 39.8151C181.926 39.8151 184.069 40.3727 185.951 41.4819C187.838 42.5911 189.318 44.1912 190.389 46.2822C191.467 48.3733 192.003 50.8765 192.003 53.7979C192.003 56.7193 191.461 59.2286 190.389 61.3136C189.312 63.4046 187.832 65.0047 185.951 66.1139C184.069 67.2231 181.926 67.7807 179.521 67.7807H179.515ZM179.295 62.1197C181.195 62.1197 182.778 61.3984 184.033 59.9559C185.287 58.5134 185.92 56.4587 185.92 53.7979C185.92 51.1371 185.293 49.0824 184.033 47.6399C182.778 46.1974 181.201 45.4761 179.295 45.4761C177.389 45.4761 175.812 46.1974 174.558 47.6399C173.304 49.0824 172.677 51.1371 172.677 53.7979C172.677 56.4587 173.304 58.5134 174.558 59.9559C175.812 61.3984 177.389 62.1197 179.295 62.1197Z" fill="#3759A8"/>
<path d="M207.816 67.7806C205.271 67.7806 203.322 67.3017 201.977 66.338C200.631 65.3743 199.961 63.453 199.961 60.5679V45.8699H198.183C196.064 45.8699 195.011 44.9668 195.011 43.1485C195.011 42.3 195.236 41.6393 195.687 41.1787C196.137 40.7181 196.953 40.4877 198.135 40.4877H199.961V34.3843C199.961 32.2023 200.984 31.1113 203.03 31.1113C205.076 31.1113 205.989 32.2023 205.989 34.3843V40.4877H209.972C212.091 40.4877 213.144 41.3787 213.144 43.1485C213.144 44.9184 212.103 45.8699 210.026 45.8699H205.989V58.9618C205.989 60.2164 206.288 61.071 206.878 61.5134C207.469 61.9559 208.321 62.1802 209.436 62.1802C210.55 62.1802 211.488 62.3196 212.151 62.5984C212.815 62.8772 213.144 63.5863 213.144 64.7319C213.144 65.6592 212.882 66.332 212.365 66.7562C211.841 67.1805 211.177 67.4593 210.373 67.5866C209.57 67.7139 208.717 67.7806 207.816 67.7806Z" fill="#EFBF1B"/>
<path d="M229.079 67.7803C226.71 67.7803 224.585 67.1985 222.703 66.0347C220.822 64.871 219.33 63.2406 218.24 61.1556C217.144 59.0646 216.602 56.6159 216.602 53.8036C216.602 50.9913 217.15 48.5426 218.24 46.4516C219.336 44.3605 220.822 42.7362 222.703 41.5664C224.591 40.4027 226.71 39.8208 229.079 39.8208C231.447 39.8208 233.676 40.4027 235.563 41.5664C237.445 42.7301 238.924 44.3605 240.002 46.4516C241.08 48.5426 241.616 50.9913 241.616 53.8036C241.616 56.6159 241.074 59.0646 240.002 61.1556C238.924 63.2406 237.445 64.871 235.563 66.0347C233.676 67.1985 231.52 67.7803 229.079 67.7803ZM229.079 62.1193C230.978 62.1193 232.531 61.3981 233.731 59.9555C234.93 58.513 235.533 56.4583 235.533 53.7975C235.533 51.1367 234.93 49.0821 233.731 47.6395C232.531 46.197 230.978 45.4757 229.079 45.4757C227.179 45.4757 225.687 46.197 224.506 47.6395C223.318 49.0821 222.728 51.1367 222.728 53.7975C222.728 56.4583 223.318 58.513 224.506 59.9555C225.687 61.3981 227.215 62.1193 229.079 62.1193Z" fill="#F0A124"/>
<path d="M249.903 67.1682C247.857 67.1682 246.834 66.0772 246.834 63.8952V43.7544C246.834 41.5724 247.893 40.4815 250.006 40.4815C250.725 40.4815 251.352 40.6572 251.894 41.0088C252.43 41.3603 252.698 42.0149 252.698 42.9786V44.2575C253.343 42.924 254.354 41.8512 255.742 41.0391C257.124 40.2269 258.586 39.8208 260.126 39.8208C261.24 39.8208 262.087 40.1239 262.684 40.736C263.274 41.3482 263.573 42.1725 263.573 43.2029C263.573 44.1666 263.341 44.8696 262.872 45.3121C262.403 45.7546 261.868 45.9424 261.259 45.8636C260.973 45.8273 260.668 45.803 260.345 45.7788C260.023 45.7545 259.663 45.7485 259.268 45.7485C257.508 45.7485 256.01 46.3425 254.774 47.5244C253.538 48.7063 252.917 50.3731 252.917 52.5187V63.8892C252.917 66.0711 251.912 67.1621 249.903 67.1621V67.1682Z" fill="#F18221"/>
<path d="M270.623 78.2116H269.168C268.163 78.1389 267.408 77.8177 266.909 77.2419C266.41 76.6661 266.154 75.9206 266.154 74.9993C266.154 73.1507 266.763 72.3143 267.981 72.5021C268.34 72.5385 268.681 72.5688 269.004 72.587C269.326 72.6052 269.649 72.6173 269.972 72.6173C270.94 72.6173 271.665 72.5082 272.152 72.2839C272.633 72.0597 273.022 71.69 273.309 71.1748C273.595 70.6535 273.918 69.9565 274.277 69.0655L274.977 67.12L266.209 44.2638C265.777 43.0819 265.728 42.1546 266.051 41.4879C266.373 40.8211 267 40.4878 267.932 40.4878H268.31C270.136 40.4878 271.342 41.3606 271.914 43.094L277.62 59.6285L282.947 43.1486C283.556 41.3727 284.756 40.4878 286.552 40.4878C287.593 40.4878 288.312 40.8211 288.702 41.4879C289.097 42.1546 289.097 43.0819 288.702 44.2638L279.446 70.896C278.582 73.3386 277.534 75.169 276.298 76.3873C275.056 77.6055 273.169 78.2177 270.623 78.2177V78.2116Z" fill="#CF264B"/>
<path d="M47.2928 26.6564H47.2563C37.2826 26.6322 30.0671 16.2254 29.7688 15.7829C29.3852 15.2192 29.5313 14.4556 30.0976 14.0737C30.6639 13.6919 31.4311 13.8373 31.8147 14.401C31.8817 14.498 38.6099 24.1835 47.2745 24.1956H47.2928C52.3466 24.1956 57.1813 20.8984 61.6627 14.3949C62.0524 13.8313 62.8196 13.6919 63.3859 14.0737C63.9461 14.4616 64.0922 15.2253 63.7086 15.789C58.74 23.0016 53.2173 26.6625 47.2989 26.6625L47.2928 26.6564Z" fill="#F0A124"/>
<path d="M78.17 54.9312C77.8595 54.9312 77.5551 54.8161 77.3298 54.6039L70.2909 48.1004C69.7916 47.6398 69.7612 46.8579 70.224 46.3609C70.6928 45.8639 71.4722 45.8336 71.9715 46.2943L78.0787 51.9371L89.3615 39.1422L77.2141 24.5291C76.7757 24.0079 76.8487 23.232 77.3785 22.7956C77.9021 22.3653 78.6876 22.438 79.1199 22.9593L91.9433 38.3786C92.3329 38.8453 92.3208 39.5241 91.9189 39.9787L79.0956 54.513C78.8764 54.7615 78.5597 54.913 78.2309 54.9312C78.2127 54.9312 78.1883 54.9312 78.17 54.9312Z" fill="#CF264B"/>
<path d="M14.0595 53.1614C13.7307 53.1614 13.408 53.0341 13.1705 52.7856L0.347169 39.5786C-0.0973244 39.124 -0.115591 38.4088 0.292369 37.9239L13.1157 22.9471C13.5602 22.4319 14.3396 22.3653 14.8571 22.8077C15.3747 23.2502 15.4417 24.026 14.9972 24.5412L2.91062 38.6694L14.2361 50.3369L20.3737 46.3124C20.9461 45.9366 21.7133 46.0942 22.0847 46.6639C22.4622 47.2337 22.3039 47.9974 21.7316 48.3671L14.7354 52.9553C14.5283 53.0947 14.2909 53.1614 14.0534 53.1614H14.0595Z" fill="#CF264B"/>
<path d="M68.5495 86.9998H23.6739C22.9919 86.9998 22.4439 86.4543 22.4378 85.7815C21.9324 29.02 13.621 23.6378 13.5358 23.5893C13.0913 23.4257 12.8295 23.0499 12.7808 22.5832C12.732 22.1165 13.006 21.6801 13.4018 21.4316C50.0634 -1.44881 78.6693 21.2922 78.9555 21.5225C79.266 21.7771 79.4365 22.171 79.4061 22.5711C79.3756 22.9711 79.1503 23.3347 78.8033 23.5348C72.1907 27.432 69.7916 62.889 69.7916 85.7694C69.7916 86.4482 69.2375 86.9998 68.5556 86.9998H68.5495ZM24.8978 84.533H67.3195C67.3682 75.1565 68.0258 31.6565 76.185 22.5529C70.6258 18.7526 46.3979 4.61828 16.0749 22.6862C18.9184 26.2986 24.4046 39.1358 24.9039 84.533H24.8978Z" fill="#3759A8"/>
<path d="M35.4559 19.8013C35.2732 19.8013 35.0905 19.7588 34.914 19.674C34.299 19.377 34.0432 18.6376 34.3477 18.0254C35.1697 16.3586 37.3252 11.534 37.4774 9.29751C37.4835 9.19447 37.5018 9.09143 37.5383 8.98839C37.6601 8.63079 40.5219 0.284758 46.5195 0.0423171C47.5303 -0.11527 52.7668 -0.406199 56.4262 9.49146C56.4506 9.55813 56.4689 9.6248 56.481 9.69147C56.9864 12.4189 58.0946 16.7344 58.9714 17.7708C59.4098 18.2921 59.3428 19.0679 58.8192 19.5043C58.2955 19.9407 57.5162 19.874 57.0778 19.3528C55.5129 17.492 54.3377 11.6613 54.0698 10.243C50.9218 1.80608 46.964 2.46067 46.9214 2.47279C46.8544 2.48491 46.757 2.49703 46.6839 2.50309C43.1706 2.59401 40.6741 7.55193 39.9373 9.63086C39.639 12.7947 36.8929 18.4618 36.5762 19.1042C36.3631 19.5406 35.9186 19.7952 35.462 19.7952L35.4559 19.8013Z" fill="#CF264B"/>
</g>
<defs>
<clipPath id="clip0_47_700">
<rect width="289" height="87" fill="white"/>
</clipPath>
</defs>
</svg>
