<svg width="183" height="55" viewBox="0 0 183 55" fill="none" xmlns="http://www.w3.org/2000/svg">
<g clip-path="url(#clip0_0_53)">
<path d="M78.4353 42.4627C77.1398 42.4627 76.492 41.773 76.492 40.3936V28.9944H75.4009C74.0591 28.9944 73.3921 28.4234 73.3921 27.2739C73.3921 26.1244 73.8586 25.5918 74.7917 25.5918H76.4959V22.5763C76.4959 20.4957 76.9624 19.0588 77.8955 18.2618C78.8247 17.4687 80.1549 17.0702 81.8822 17.0702C82.7459 17.0702 83.4669 17.1813 84.0452 17.4035C84.6236 17.6257 84.9012 18.1239 84.878 18.894C84.878 19.3845 84.7778 19.7945 84.5734 20.1202C84.3691 20.4497 83.9488 20.6106 83.3126 20.6106C83.1738 20.6106 83.0158 20.5991 82.8345 20.5761C82.6533 20.5532 82.4914 20.5417 82.3564 20.5417C80.9954 20.5417 80.313 21.3846 80.313 23.0667V25.5918H82.8692C84.211 25.5918 84.878 26.1551 84.878 27.2739C84.878 28.3928 84.2187 28.9944 82.9039 28.9944H80.313V40.3936C80.313 41.773 79.6883 42.4627 78.4391 42.4627H78.4353Z" fill="#3759A8"/>
<path d="M92.7473 42.7118C90.9776 42.7808 89.5163 42.3823 88.3673 41.5201C87.2183 40.6542 86.6477 39.405 86.6477 37.7689C86.6477 36.5773 86.9986 35.558 87.7042 34.7189C88.4097 33.8759 89.3158 33.2169 90.4301 32.7379C91.5444 32.259 92.6895 32.0061 93.8732 31.9831C94.4631 31.9371 95.0221 31.9831 95.5427 32.1248C96.067 32.2666 96.5336 32.4659 96.9422 32.7188V31.2474C96.9422 30.1477 96.7148 29.435 96.2598 29.1093C95.8048 28.7798 95.134 28.6189 94.251 28.6189C93.6148 28.6189 92.9517 28.6993 92.2577 28.8641C91.5636 29.0288 90.8889 29.2511 90.2296 29.5308C89.6397 29.7875 89.1346 29.8795 88.7143 29.8105C88.2941 29.7377 87.9471 29.458 87.6772 28.9675C87.4034 28.4771 87.3417 28.0058 87.4882 27.5498C87.6348 27.0938 88.0165 26.7375 88.6295 26.4808C89.4469 26.0823 90.3375 25.7681 91.3053 25.5343C92.2692 25.3006 93.2524 25.1818 94.251 25.1818C96.3639 25.1818 97.9524 25.6186 99.0204 26.4961C100.088 27.3736 100.624 28.956 100.624 31.2474V38.9989C100.624 39.2326 100.651 39.4204 100.709 39.5583C100.767 39.7001 100.817 39.8035 100.863 39.8725C101.068 40.1752 101.291 40.3515 101.53 40.3975C101.77 40.4434 101.978 40.4741 102.159 40.4856C102.34 40.4971 102.433 40.6082 102.433 40.8189C102.433 41.2404 102.325 41.6044 102.109 41.9071C101.893 42.2098 101.534 42.4206 101.033 42.5394C100.509 42.6543 99.9998 42.7156 99.4985 42.7156C98.793 42.7156 98.257 42.593 97.8792 42.3478C97.5052 42.1026 97.2391 41.6887 97.0772 41.1025C96.5104 41.5929 95.8511 41.9723 95.1031 42.2405C94.3513 42.5087 93.5686 42.6658 92.7512 42.7156L92.7473 42.7118ZM92.6818 39.2748C93.9541 39.2288 95.0029 38.9721 95.8318 38.5046C96.6608 38.0371 97.0541 37.3704 97.0078 36.5045C96.9847 35.9412 96.7071 35.558 96.1711 35.3473C95.639 35.1365 94.972 35.0561 94.1778 35.1021C93.0635 35.1251 92.1458 35.4124 91.4171 35.9604C90.6884 36.5083 90.3375 37.1252 90.3607 37.7996C90.407 38.8533 91.1781 39.3437 92.6779 39.2709L92.6818 39.2748Z" fill="#3759A8"/>
<path d="M113.672 42.8497C111.74 42.8497 110.217 41.9838 109.107 40.2557V40.9569C109.107 41.5163 108.929 41.911 108.579 42.1332C108.228 42.3554 107.788 42.4666 107.268 42.4666C106.13 42.4666 105.563 41.7769 105.563 40.3975V19.5263C105.563 18.1469 106.211 17.4572 107.507 17.4572C108.802 17.4572 109.415 18.1469 109.415 19.5263V27.1015C109.963 26.4961 110.595 26.021 111.324 25.68C112.053 25.3428 112.835 25.1703 113.676 25.1703C115.199 25.1703 116.556 25.5229 117.747 26.2241C118.943 26.9253 119.879 27.9368 120.558 29.2587C121.24 30.5807 121.58 32.1632 121.58 34.01C121.58 35.8569 121.237 37.4432 120.558 38.7613C119.876 40.0833 118.939 41.0948 117.747 41.796C116.556 42.4972 115.199 42.8497 113.676 42.8497H113.672ZM113.533 39.2709C114.736 39.2709 115.738 38.815 116.533 37.903C117.327 36.9911 117.728 35.6921 117.728 34.01C117.728 32.3279 117.331 31.029 116.533 30.117C115.738 29.2051 114.74 28.7491 113.533 28.7491C112.326 28.7491 111.328 29.2051 110.533 30.117C109.739 31.029 109.342 32.3279 109.342 34.01C109.342 35.6921 109.739 36.9911 110.533 37.903C111.328 38.815 112.326 39.2709 113.533 39.2709Z" fill="#3759A8"/>
<path d="M131.593 42.8497C129.981 42.8497 128.747 42.547 127.895 41.9378C127.043 41.3286 126.619 40.1139 126.619 38.29V28.9982H125.493C124.151 28.9982 123.484 28.4273 123.484 27.2778C123.484 26.7413 123.627 26.3237 123.912 26.0325C124.198 25.7413 124.714 25.5957 125.462 25.5957H126.619V21.7371C126.619 20.3577 127.267 19.668 128.562 19.668C129.858 19.668 130.436 20.3577 130.436 21.7371V25.5957H132.958C134.299 25.5957 134.966 26.1589 134.966 27.2778C134.966 28.3966 134.307 28.9982 132.992 28.9982H130.436V37.2746C130.436 38.0678 130.625 38.6081 130.999 38.8878C131.373 39.1675 131.913 39.3093 132.618 39.3093C133.324 39.3093 133.918 39.3974 134.338 39.5736C134.758 39.7499 134.966 40.1982 134.966 40.9224C134.966 41.5086 134.801 41.934 134.473 42.2022C134.141 42.4704 133.721 42.6467 133.212 42.7271C132.703 42.8076 132.163 42.8497 131.593 42.8497Z" fill="#EFBF1B"/>
<path d="M145.057 42.8497C143.557 42.8497 142.211 42.4819 141.02 41.7462C139.828 41.0105 138.884 39.9798 138.194 38.6617C137.5 37.3398 137.156 35.7918 137.156 34.0139C137.156 32.236 137.504 30.688 138.194 29.366C138.888 28.0441 139.828 27.0172 141.02 26.2777C142.215 25.542 143.557 25.1742 145.057 25.1742C146.557 25.1742 147.968 25.542 149.163 26.2777C150.354 27.0134 151.291 28.0441 151.974 29.366C152.656 30.688 152.995 32.236 152.995 34.0139C152.995 35.7918 152.652 37.3398 151.974 38.6617C151.291 39.9798 150.354 41.0105 149.163 41.7462C147.968 42.4819 146.603 42.8497 145.057 42.8497ZM145.057 39.2709C146.26 39.2709 147.243 38.815 148.002 37.903C148.762 36.9911 149.144 35.6921 149.144 34.01C149.144 32.3279 148.762 31.029 148.002 30.117C147.243 29.2051 146.26 28.7491 145.057 28.7491C143.854 28.7491 142.909 29.2051 142.161 30.117C141.409 31.029 141.035 32.3279 141.035 34.01C141.035 35.6921 141.409 36.9911 142.161 37.903C142.909 38.815 143.877 39.2709 145.057 39.2709Z" fill="#F0A124"/>
<path d="M158.243 42.4627C156.948 42.4627 156.3 41.773 156.3 40.3936V27.6609C156.3 26.2815 156.971 25.5918 158.309 25.5918C158.764 25.5918 159.161 25.7029 159.504 25.9252C159.843 26.1474 160.013 26.5612 160.013 27.1705V27.979C160.421 27.136 161.062 26.4578 161.941 25.9443C162.816 25.4309 163.741 25.1742 164.717 25.1742C165.422 25.1742 165.958 25.3658 166.336 25.7528C166.71 26.1398 166.899 26.6609 166.899 27.3122C166.899 27.9215 166.752 28.366 166.456 28.6457C166.159 28.9254 165.819 29.0442 165.434 28.9944C165.253 28.9714 165.06 28.956 164.855 28.9407C164.651 28.9254 164.424 28.9216 164.173 28.9216C163.059 28.9216 162.11 29.2971 161.328 30.0442C160.545 30.7914 160.152 31.8451 160.152 33.2015V40.3898C160.152 41.7692 159.515 42.4589 158.243 42.4589V42.4627Z" fill="#F18221"/>
<path d="M171.364 49.4441H170.442C169.806 49.3981 169.328 49.195 169.012 48.831C168.695 48.467 168.534 47.9957 168.534 47.4133C168.534 46.2446 168.919 45.7158 169.69 45.8346C169.918 45.8576 170.134 45.8768 170.338 45.8883C170.542 45.8998 170.747 45.9074 170.951 45.9074C171.564 45.9074 172.023 45.8384 172.331 45.6967C172.636 45.5549 172.883 45.3212 173.064 44.9955C173.245 44.6659 173.449 44.2253 173.677 43.662L174.12 42.4321L168.568 27.9828C168.294 27.2356 168.264 26.6494 168.468 26.2279C168.672 25.8064 169.069 25.5957 169.659 25.5957H169.898C171.055 25.5957 171.819 26.1474 172.181 27.2433L175.794 37.6961L179.167 27.2778C179.553 26.1551 180.312 25.5957 181.45 25.5957C182.109 25.5957 182.564 25.8064 182.811 26.2279C183.062 26.6494 183.062 27.2356 182.811 27.9828L176.95 44.8192C176.403 46.3634 175.74 47.5206 174.957 48.2907C174.17 49.0609 172.975 49.4479 171.364 49.4479V49.4441Z" fill="#CF264B"/>
<path d="M29.9468 16.8518H29.9236C23.6081 16.8364 19.0392 10.2574 18.8503 9.97771C18.6074 9.62136 18.6999 9.13857 19.0585 8.89717C19.417 8.65578 19.9028 8.74774 20.1458 9.10408C20.1882 9.16539 24.4486 15.2884 29.9352 15.2961H29.9468C33.147 15.2961 36.2083 13.2117 39.0461 9.10025C39.2928 8.74391 39.7786 8.65578 40.1372 8.89717C40.4919 9.1424 40.5845 9.62519 40.3416 9.98154C37.1954 14.5412 33.6983 16.8556 29.9506 16.8556L29.9468 16.8518Z" fill="#F0A124"/>
<path d="M49.4987 34.7266C49.3021 34.7266 49.1093 34.6538 48.9666 34.5196L44.5095 30.4083C44.1934 30.117 44.1741 29.6228 44.4671 29.3086C44.764 28.9944 45.2575 28.9752 45.5737 29.2664L49.4409 32.8337L56.5854 24.745L48.8934 15.5068C48.6158 15.1773 48.662 14.6868 48.9975 14.411C49.3291 14.1389 49.8264 14.1849 50.1002 14.5144L58.2202 24.2622C58.4669 24.5573 58.4592 24.9864 58.2047 25.2738L50.0848 34.4622C49.946 34.6193 49.7455 34.7151 49.5373 34.7266C49.5257 34.7266 49.5103 34.7266 49.4987 34.7266Z" fill="#CF264B"/>
<path d="M8.90254 33.6077C8.69434 33.6077 8.48999 33.5272 8.33962 33.3701L0.219655 25.0209C-0.0618067 24.7335 -0.0733735 24.2814 0.184954 23.9748L8.30492 14.5068C8.58638 14.1811 9.0799 14.1389 9.40763 14.4186C9.73536 14.6983 9.77777 15.1888 9.49631 15.5145L1.84288 24.4461L9.01436 31.8221L12.9008 29.2779C13.2633 29.0403 13.7491 29.14 13.9843 29.5001C14.2233 29.8603 14.1231 30.3431 13.7606 30.5768L9.33052 33.4774C9.19943 33.5656 9.04906 33.6077 8.89869 33.6077H8.90254Z" fill="#CF264B"/>
<path d="M43.4067 55H14.9906C14.5588 55 14.2118 54.6552 14.2079 54.2298C13.8879 18.3461 8.62498 14.9436 8.571 14.9129C8.28954 14.8095 8.12375 14.5719 8.0929 14.2769C8.06206 13.9818 8.23556 13.7059 8.48618 13.5488C31.701 -0.915773 49.8147 13.4607 49.9959 13.6063C50.1926 13.7672 50.3005 14.0163 50.2813 14.2692C50.262 14.5221 50.1193 14.752 49.8995 14.8784C45.7123 17.3422 44.1932 39.7576 44.1932 54.2222C44.1932 54.6513 43.8423 55 43.4105 55H43.4067ZM15.7656 53.4405H42.6278C42.6587 47.5129 43.0751 20.0129 48.2416 14.2577C44.7214 11.8552 29.3799 2.91974 10.1788 14.342C11.9794 16.6257 15.4533 24.7412 15.7695 53.4405H15.7656Z" fill="#3759A8"/>
<path d="M22.4513 12.5183C22.3356 12.5183 22.2199 12.4915 22.1081 12.4378C21.7187 12.2501 21.5568 11.7826 21.7496 11.3956C22.2701 10.3419 23.635 7.29189 23.7313 5.878C23.7352 5.81286 23.7468 5.74772 23.7699 5.68258C23.847 5.45651 25.6592 0.180281 29.457 0.0270132C30.097 -0.0726106 33.4128 -0.256531 35.7301 6.00061C35.7455 6.04276 35.7571 6.08491 35.7648 6.12706C36.0848 7.85131 36.7865 10.5795 37.3417 11.2347C37.6193 11.5642 37.5769 12.0547 37.2453 12.3306C36.9138 12.6064 36.4202 12.5643 36.1426 12.2348C35.1517 11.0584 34.4076 7.37235 34.238 6.47574C32.2446 1.14203 29.7384 1.55586 29.7114 1.56352C29.669 1.57118 29.6073 1.57885 29.5611 1.58268C27.3364 1.64015 25.7556 4.77447 25.289 6.08874C25.1001 8.08888 23.3612 11.6715 23.1607 12.0777C23.0258 12.3535 22.7443 12.5145 22.4551 12.5145L22.4513 12.5183Z" fill="#CF264B"/>
</g>
<defs>
<clipPath id="clip0_0_53">
<rect width="183" height="55" fill="white"/>
</clipPath>
</defs>
</svg>
