<svg width="248" height="206" viewBox="0 0 248 206" fill="none" xmlns="http://www.w3.org/2000/svg">
<g clip-path="url(#clip0_22_226)">
<path opacity="0.19" d="M124.159 205.994C192.555 205.994 248 203.045 248 199.407C248 195.768 192.555 192.819 124.159 192.819C55.764 192.819 0.318634 195.768 0.318634 199.407C0.318634 203.045 55.764 205.994 124.159 205.994Z" fill="black"/>
<path d="M30.8734 149.137C7.60741 130.881 -7.72118 103.714 4.06829 73.2183C22.3272 25.9912 78.0029 2.43756 125.377 0.0856221C145.656 -0.919089 151.767 6.76467 160.78 23.3938C171.431 43.037 201.502 40.5995 218.339 53.9005C231.038 63.9361 236.996 81.7869 237.149 97.6853C237.531 136.27 205.707 163.722 171.084 172.787C138.794 181.242 103.073 178.662 71.1693 169.682C57.394 165.806 43.0441 158.693 30.8677 149.137H30.8734Z" fill="#85C7BE"/>
<path d="M19.094 80.1959L17.3991 80.8633L31.8182 117.721L33.5131 117.053L19.094 80.1959Z" fill="#401671"/>
<path d="M213.514 125.184L44.3186 125.007L52.9388 63.5423L61.3656 58.9868L213.514 125.184Z" fill="white"/>
<path d="M20.6373 89.1283L17.1778 80.28L47.9431 51.2747L49.1892 52.6048L42.0597 59.3238L45.0697 65.4548L20.6373 89.1283ZM19.3172 80.7652L21.3314 85.9201L42.8506 65.0723L40.6714 60.6367L19.3172 80.7709V80.7652Z" fill="#401671"/>
<path d="M69.5249 60.4254C67.1977 56.0641 62.458 53.8206 57.8378 54.4771L54.3329 47.9065C53.2063 45.7943 50.5832 44.9951 48.478 46.1311C46.3727 47.2614 45.5761 49.8931 46.7084 52.0053L50.2361 58.6101C47.192 62.1037 46.4524 67.2529 48.7625 71.5857L69.5306 60.4254H69.5249Z" fill="#321C8C"/>
<path d="M37.7127 120.942V120.931H37.7866L37.7127 116.358H27.5562V120.942H21.2973V125.007H44.3186V120.942H37.7127Z" fill="#321C8C"/>
<g opacity="0.15">
<path d="M51.8578 48.7342L55.5903 55.7273C60.2731 55.0651 65.0754 57.2001 67.6586 61.4244L69.5249 60.4254C67.1977 56.0641 62.458 53.8206 57.8378 54.4771L54.3329 47.9065C53.2063 45.7943 50.5832 44.9951 48.478 46.1311C48.3698 46.1882 48.2674 46.251 48.165 46.3195C49.6728 46.4394 51.0896 47.3014 51.8578 48.7399V48.7342Z" fill="white"/>
</g>
<path d="M192.848 105.352H171.858C173.861 107.076 175.129 109.633 175.129 112.488C175.129 117.677 170.936 121.884 165.764 121.884H159.329C158.703 121.884 158.202 122.392 158.202 123.014C158.202 123.642 158.708 124.145 159.329 124.145H192.848C198.02 124.145 202.213 119.937 202.213 114.748C202.213 109.559 198.02 105.352 192.848 105.352Z" fill="#E6E0FF"/>
<path d="M192.933 125.167H158.788C158.225 125.167 157.77 124.71 157.77 124.145C157.77 123.58 158.225 123.123 158.788 123.123H192.933C197.536 123.123 201.286 119.367 201.286 114.743C201.286 110.119 197.542 106.363 192.933 106.363C192.37 106.363 191.915 105.906 191.915 105.341C191.915 104.776 192.37 104.319 192.933 104.319C198.657 104.319 203.317 108.994 203.317 114.737C203.317 120.48 198.657 125.155 192.933 125.155V125.167Z" fill="#C9C4E5"/>
<g opacity="0.19">
<path d="M175.061 111.375H202.754C201.354 107.282 197.479 104.336 192.933 104.336C192.37 104.336 191.915 104.793 191.915 105.358H171.846C173.582 106.853 174.771 108.977 175.05 111.38L175.061 111.375Z" fill="black"/>
</g>
<path d="M141.77 107.453H223.71C225.627 107.453 227.238 105.894 227.306 103.965L229.184 49.9616C229.252 48.0378 227.75 46.4736 225.826 46.4736H143.892C141.974 46.4736 140.364 48.0321 140.296 49.9616L138.418 103.965C138.35 105.889 139.852 107.453 141.775 107.453H141.77Z" fill="#330EC9"/>
<path d="M138.708 95.5161L138.413 103.965C138.344 105.889 139.846 107.453 141.77 107.453H223.71C225.627 107.453 227.238 105.894 227.306 103.965L227.602 95.5161H138.708Z" fill="#C9C4E5"/>
<path d="M139.312 107.453H221.252C223.169 107.453 224.78 105.894 224.848 103.965L226.726 49.9616C226.794 48.0378 225.292 46.4736 223.374 46.4736H141.434C139.517 46.4736 137.906 48.0321 137.838 49.9616L135.96 103.965C135.892 105.889 137.394 107.453 139.317 107.453H139.312Z" fill="#4929CF"/>
<path d="M139.812 95.5674H221.633L223.243 49.3564H141.422L139.812 95.5674Z" fill="white"/>
<path d="M136.25 95.5161L135.954 103.965C135.886 105.889 137.388 107.453 139.306 107.453H221.246C223.164 107.453 224.774 105.894 224.842 103.965L225.138 95.5161H136.25Z" fill="#E6E0FF"/>
<path d="M178.316 101.213C178.276 102.435 179.226 103.428 180.444 103.428C181.661 103.428 182.686 102.435 182.731 101.213C182.777 99.9916 181.821 98.9983 180.603 98.9983C179.385 98.9983 178.361 99.9916 178.316 101.213Z" fill="#C9C4E5"/>
<path d="M221.684 94.1289H142.708L144.142 52.9529H223.118L221.684 94.1289Z" fill="#E6E0FF"/>
<path d="M223.05 54.911H141.098L141.286 49.3679H223.243L223.05 54.911Z" fill="#24004D"/>
<path d="M222.339 75.2163H213.616L214.321 54.9109H223.05L222.339 75.2163Z" fill="#310F57"/>
<path d="M221.246 53.1983C221.178 53.1983 221.115 53.1697 221.064 53.1184L219.522 51.5142C219.425 51.4115 219.425 51.2517 219.528 51.1546C219.63 51.0576 219.789 51.0576 219.886 51.1603L221.428 52.7644C221.525 52.8672 221.525 53.027 221.422 53.1241C221.371 53.1697 221.309 53.1926 221.246 53.1926V53.1983Z" fill="#4929CF"/>
<path d="M219.647 53.1983C219.579 53.1983 219.516 53.1697 219.465 53.1184C219.368 53.0156 219.368 52.8558 219.471 52.7587L221.127 51.1546C221.229 51.0576 221.388 51.0576 221.485 51.1603C221.582 51.2631 221.582 51.4229 221.479 51.52L219.824 53.1241C219.772 53.1697 219.71 53.1983 219.647 53.1983Z" fill="#4929CF"/>
<path d="M211.095 64.6668H194.253L194.333 62.4233H211.169L211.095 64.6668Z" fill="#24004D"/>
<path d="M210.799 73.0641H193.963L194.276 64.0959H211.112L210.799 73.0641Z" fill="#4929CF"/>
<path d="M156.688 71.7569H146.754L146.799 70.4382H156.734L156.688 71.7569Z" fill="#24004D"/>
<path d="M156.518 76.7119H146.583L146.765 71.4258H156.7L156.518 76.7119Z" fill="#4929CF"/>
<path d="M156.467 78.0365H146.538L146.583 76.7122H156.518L156.467 78.0365Z" fill="#24004D"/>
<path d="M156.296 82.9859H146.367L146.549 77.6997H156.484L156.296 82.9859Z" fill="#4929CF"/>
<path d="M218.122 53.2098H215.989L216.063 51.0691H218.196L218.122 53.2098ZM216.518 52.7017H217.633L217.673 51.5829H216.558L216.518 52.7017Z" fill="#4929CF"/>
<path d="M221.633 95.5162H139.681L139.778 92.7476H221.73L221.633 95.5162Z" fill="#24004D"/>
<path d="M143.647 92.7474H139.778L141.098 54.9109H144.967L143.647 92.7474Z" fill="#401671"/>
<path d="M143.954 58.3133H141.866L141.94 56.2183H144.028L143.954 58.3133Z" fill="#4929CF"/>
<path d="M143.824 62.1095H141.735L141.809 60.0144H143.898L143.824 62.1095Z" fill="#4929CF"/>
<path d="M143.693 65.9H141.605L141.679 63.8049H143.767L143.693 65.9Z" fill="#4929CF"/>
<path d="M143.562 69.6961H141.474L141.548 67.6011H143.63L143.562 69.6961Z" fill="#4929CF"/>
<path d="M143.425 73.4867H141.343L141.411 71.3916H143.499L143.425 73.4867Z" fill="#4929CF"/>
<path d="M143.294 77.283H141.206L141.28 75.188H143.368L143.294 77.283Z" fill="#4929CF"/>
<path d="M222.902 59.0496H214.174L214.202 58.2847H222.93L222.902 59.0496Z" fill="#4929CF"/>
<path d="M222.76 63.1883H214.031L214.06 62.4233H222.788L222.76 63.1883Z" fill="#4929CF"/>
<path d="M222.617 67.3272H213.889L213.917 66.5623H222.64L222.617 67.3272Z" fill="#4929CF"/>
<path d="M222.469 71.4659H213.747L213.77 70.7009H222.498L222.469 71.4659Z" fill="#4929CF"/>
<path d="M189.644 89.0256H159.351L160.41 58.6331H190.703L189.644 89.0256Z" fill="white"/>
<path d="M177.61 77.5282H171.499L170.265 80.3483H166.094L172.979 65.8428H177.007L182.908 80.3483H178.652L177.616 77.5282H177.61ZM176.518 74.5027L174.822 69.8616L172.802 74.5027H176.518Z" fill="#85C7BE"/>
<path d="M167.357 66.5792H165.878L165.935 65.095H167.414L167.357 66.5792Z" fill="#4929CF"/>
<path d="M183.983 66.5792H182.504L182.555 65.095H184.034L183.983 66.5792Z" fill="#4929CF"/>
<path d="M183.482 80.9649H182.003L182.054 79.4807H183.533L183.482 80.9649Z" fill="#4929CF"/>
<path d="M166.856 80.9649H165.377L165.434 79.4807H166.913L166.856 80.9649Z" fill="#4929CF"/>
<path d="M182.919 80.3769H165.98L166.492 65.6772H183.431L182.919 80.3769ZM166.31 80.0629H182.617L183.107 65.9969H166.799L166.31 80.0629Z" fill="#4929CF"/>
<path d="M166.725 123.574H131.755V125.172H166.725V123.574Z" fill="#401671"/>
<path d="M149.525 123.579C149.144 123.659 148.768 123.408 148.694 123.026L148.324 121.222C148.245 120.839 148.495 120.463 148.876 120.388C149.257 120.308 149.633 120.56 149.707 120.942L150.077 122.746C150.156 123.128 149.906 123.505 149.525 123.579Z" fill="#5D41D4"/>
<path d="M149.844 121.633L148.461 121.918L145.878 109.234C145.798 108.851 146.048 108.475 146.43 108.4C146.811 108.32 147.186 108.572 147.26 108.954L149.844 121.639V121.633Z" fill="#401671"/>
<path d="M48.5462 199.406H45.7013V149.525C45.7013 141.601 40.8478 135.156 34.8791 135.156H32.3755C26.4068 135.156 21.5533 141.601 21.5533 149.525V199.406H18.7084V149.525C18.7084 140.026 24.8364 132.302 32.3755 132.302H34.8791C42.4125 132.302 48.5462 140.031 48.5462 149.525V199.406Z" fill="#401671"/>
<path d="M34.9929 126.668H32.2674V133.729H34.9929V126.668Z" fill="#401671"/>
<path d="M228.427 199.406H225.582V149.525C225.582 141.601 220.728 135.156 214.76 135.156H212.256C206.287 135.156 201.434 141.601 201.434 149.525V199.406H198.589V149.525C198.589 140.026 204.717 132.302 212.256 132.302H214.76C222.293 132.302 228.427 140.031 228.427 149.525V199.406Z" fill="#401671"/>
<path d="M214.873 126.668H212.148V133.729H214.873V126.668Z" fill="#401671"/>
<path d="M233.218 125.184H13.9175V128.152H233.218V125.184Z" fill="#4929CF"/>
<path d="M122.083 125.166H109.605C107.499 125.166 105.792 123.454 105.792 121.342C105.792 119.229 107.499 117.517 109.605 117.517H122.083C124.188 117.517 125.895 119.229 125.895 121.342C125.895 123.454 124.188 125.166 122.083 125.166Z" fill="#FE8770"/>
<path d="M116.688 66.0484H115.215V59.2095H117.155L118.6 63.1941C119.067 64.4728 118.236 65.9171 116.888 66.0427C116.825 66.0484 116.757 66.0541 116.688 66.0541V66.0484Z" fill="#FE8D77"/>
<path d="M111.175 77.7395H103.881V52.4048C103.881 52.4048 116.984 52.4048 117.149 52.4048C117.377 52.4048 116.825 69.2851 116.632 70.8378C116.245 73.9376 114.89 77.7395 111.169 77.7395H111.175Z" fill="#FE9B88"/>
<g opacity="0.15">
<path d="M115.215 52.4048V75.359C116.028 74.0346 116.45 72.3563 116.637 70.8435C116.831 69.2908 117.383 52.4105 117.155 52.4105C117.115 52.4105 116.353 52.4105 115.215 52.4105V52.4048Z" fill="white"/>
</g>
<path d="M104.415 87.7866H98.9815V65.2605H110.521V79.218L104.415 87.7866Z" fill="#FE9B88"/>
<path d="M103.306 77.8765C97.542 77.8765 92.8706 73.1898 92.8706 67.407V66.0483H103.306V77.8765Z" fill="#FE9B88"/>
<path d="M103.442 47.918H94.5263C91.717 47.918 89.4396 50.2029 89.4396 53.0214V69.2395C89.4396 72.0581 91.717 74.343 94.5263 74.343H103.442C106.252 74.343 108.529 72.0581 108.529 69.2395V53.0214C108.529 50.2029 106.252 47.918 103.442 47.918Z" fill="#310F57"/>
<path d="M117.872 38.7271C115.869 38.7271 114.105 39.7546 113.075 41.3073H99.67C96.6714 41.3073 94.2418 43.7449 94.2418 46.7533V55.0936H116.762C119.812 55.0936 122.572 52.9928 123.385 50.0415C123.681 48.9625 123.767 47.8208 123.727 46.7077C123.687 45.5317 123.721 44.3557 123.448 43.1969C122.834 40.6109 120.552 38.7271 117.878 38.7271H117.872Z" fill="#310F57"/>
<path d="M108.216 66.0484C106.942 66.0484 105.912 65.0152 105.912 63.7365V61.2932C105.912 60.0145 106.942 58.9812 108.216 58.9812C109.491 58.9812 110.521 60.0145 110.521 61.2932V63.7365C110.521 65.0152 109.491 66.0484 108.216 66.0484Z" fill="#FE9B88"/>
<path d="M105.713 51.4685H112.962V57.8107C112.962 60.7564 110.578 63.1483 107.642 63.1483H105.713V51.4685Z" fill="#310F57"/>
<path d="M117.445 57.7137H116.831C116.609 57.7137 116.427 57.531 116.427 57.3084C116.427 57.0858 116.609 56.9031 116.831 56.9031H117.445C117.667 56.9031 117.849 57.0858 117.849 57.3084C117.849 57.531 117.667 57.7137 117.445 57.7137Z" fill="#310F57"/>
<path d="M113.024 65.3804V55.0935L110.521 60.4367V79.218H113.024C115.755 79.218 117.963 76.9973 117.963 74.2629V70.3354C117.963 69.3764 117.189 68.6 116.233 68.6C114.458 68.6 113.024 67.1557 113.024 65.3804Z" fill="#310F57"/>
<g opacity="0.15">
<path d="M109.496 57.8108C109.496 60.2255 107.903 62.2578 105.713 62.92V63.1483H107.642C110.578 63.1483 112.962 60.7564 112.962 57.8108V55.0935H109.496V57.8108Z" fill="white"/>
</g>
<g opacity="0.15">
<path d="M123.727 46.7077C123.687 45.5317 123.721 44.3557 123.448 43.1969C122.834 40.6109 120.552 38.7271 117.878 38.7271C117.269 38.7271 116.683 38.8241 116.131 39.0011C118.026 39.6062 119.511 41.1875 119.983 43.1969C120.256 44.3557 120.228 45.5317 120.262 46.7077C120.296 47.8208 120.216 48.9625 119.92 50.0415C119.107 52.9928 116.347 55.0936 113.297 55.0936H116.762C119.812 55.0936 122.572 52.9928 123.386 50.0415C123.681 48.9625 123.767 47.8208 123.727 46.7077Z" fill="white"/>
</g>
<path d="M127.505 126.696C119.437 126.696 112.956 118.539 109.656 110.935C107.101 105.038 105.098 99.5293 102.782 93.1471L102.481 92.3194C101.764 90.3385 102.777 88.1464 104.751 87.4271C106.725 86.7021 108.91 87.724 109.627 89.7048L109.929 90.5326C112.205 96.7949 114.168 102.201 116.632 107.887C118.811 112.916 123.772 120.006 128.541 118.939C132.927 117.951 142.862 114.434 142.959 114.4L143.385 114.275C146.504 113.567 150.464 113.658 150.908 113.675C153.007 113.738 154.663 115.496 154.6 117.603C154.538 119.709 152.762 121.353 150.686 121.308C149.781 121.285 147.107 121.308 145.269 121.679C143.676 122.238 134.697 125.378 130.208 126.388C129.292 126.594 128.387 126.691 127.505 126.691V126.696Z" fill="#FE9B88"/>
<path d="M108.165 111.181C108.119 111.044 103.454 97.5314 101.098 91.035L111.01 87.4158C113.394 93.9921 118.083 107.584 118.134 107.721L108.165 111.181Z" fill="#85C7BE"/>
<path d="M107.101 141.328L68.9957 140.483L70.8734 90.3499C71.3684 84.1561 79.0043 78.105 85.1721 78.6016L101.383 79.9032C107.55 80.3998 112.148 85.823 111.653 92.0225L107.101 141.328Z" fill="#85C7BE"/>
<path d="M142.708 194.155L138.009 194.126L137.343 180.962L144.245 181.002L144.615 192.265C144.609 193.316 143.755 194.16 142.708 194.155Z" fill="#FE9B88"/>
<path d="M137.623 189.348L141.327 189.408C142.021 189.419 142.575 189.993 142.564 190.69L142.532 192.704L136.308 192.604L136.34 190.589C136.351 189.893 136.923 189.337 137.617 189.348L137.623 189.348Z" fill="#24004D"/>
<path d="M149.371 192.094L138.395 192.031C137.252 192.025 136.319 192.95 136.313 194.098L136.285 199.304L149.331 199.378L154.299 199.407L154.31 197.106C154.327 194.354 152.114 192.105 149.366 192.094H149.371Z" fill="#310F57"/>
<path d="M145.349 192.094L145.337 192.077H144.979L136.33 192.025L136.29 199.31L144.939 199.361L149.337 199.384H149.912L149.923 197.089C149.94 194.457 147.92 192.299 145.349 192.094Z" fill="#24004D"/>
<path d="M134.982 185.318L133.764 154.697C132.973 150.415 129.166 147.418 124.808 147.658L124.603 147.67H124.398C116.814 147.567 104.41 147.418 103.414 147.436L103.09 135.556C104.034 135.522 118.128 135.704 124.364 135.784C134.839 135.282 143.943 142.743 145.531 153.196L145.582 153.521L145.593 153.852L146.828 184.844L134.993 185.318H134.982Z" fill="#24004D"/>
<path d="M158.589 169.608L153.94 170.31L150.657 157.5L157.479 156.467L160.182 167.444C160.336 168.483 159.624 169.448 158.589 169.608Z" fill="#FE9B88"/>
<path d="M153.867 165.482L155.524 165.249C156.781 165.072 157.949 165.951 158.126 167.217L158.26 168.173L152.039 169.047L151.905 168.092C151.729 166.831 152.605 165.659 153.867 165.482Z" fill="#24004D"/>
<path d="M164.853 166.536L154.003 168.175C152.871 168.346 152.091 169.402 152.262 170.538L153.036 175.687L165.935 173.735L170.851 172.993L170.509 170.721C170.1 167.998 167.568 166.125 164.853 166.531V166.536Z" fill="#310F57"/>
<path d="M160.876 167.159L160.865 167.142L160.512 167.193L151.96 168.489L153.041 175.693L161.593 174.397L165.94 173.741L166.509 173.655L166.168 171.383C165.775 168.786 163.454 166.965 160.882 167.159H160.876Z" fill="#24004D"/>
<path d="M149.343 163.06C149.297 162.826 144.558 138.924 132.211 138.924C126.669 138.924 105.844 144.09 94.0142 147.35L90.8791 135.887C94.1679 134.979 123.272 127.039 132.211 127.039C154.612 127.039 160.751 159.555 161.001 160.936L149.349 163.06H149.343Z" fill="#310F57"/>
<path d="M133.809 154.252C133.138 149.822 129.257 146.665 124.802 146.928L124.159 140.203C143.425 134.471 143.92 141.932 145.519 152.459L133.809 154.252Z" fill="#24004D"/>
<path d="M71.7269 121.65H109.605V138.262C109.605 144.37 104.66 149.331 98.5718 149.331H81.7582C76.2219 149.331 71.7326 144.821 71.7326 139.272V121.656L71.7269 121.65Z" fill="#310F57"/>
<path d="M93.377 193.584C92.3926 193.584 91.5903 192.779 91.5903 191.791V169.488C91.5903 168.5 92.3869 167.695 93.377 167.695C94.367 167.695 95.1636 168.5 95.1636 169.488V191.791C95.1636 192.779 94.367 193.584 93.377 193.584Z" fill="#ACA7C4"/>
<path d="M96.8137 191.049H89.9346C88.7876 191.049 87.8578 191.982 87.8578 193.133V197.323C87.8578 198.474 88.7876 199.406 89.9346 199.406H96.8137C97.9606 199.406 98.8905 198.474 98.8905 197.323V193.133C98.8905 191.982 97.9606 191.049 96.8137 191.049Z" fill="#4929CF"/>
<path d="M114.959 193.584C113.974 193.584 113.172 192.779 113.172 191.791V189.559L93.377 189.605C92.3926 189.605 91.596 188.806 91.5903 187.818C91.5903 186.831 92.3869 186.026 93.3713 186.02L114.959 185.969C115.431 185.969 115.886 186.157 116.222 186.494C116.558 186.831 116.745 187.287 116.745 187.761V191.791C116.745 192.779 115.949 193.584 114.959 193.584Z" fill="#ACA7C4"/>
<path d="M118.401 191.049H111.522C110.375 191.049 109.445 191.982 109.445 193.133V197.323C109.445 198.474 110.375 199.406 111.522 199.406H118.401C119.548 199.406 120.478 198.474 120.478 197.323V193.133C120.478 191.982 119.548 191.049 118.401 191.049Z" fill="#4929CF"/>
<path d="M111.425 191.055C110.321 191.106 109.44 192.014 109.44 193.133V197.323C109.44 198.442 110.321 199.35 111.425 199.401C112.529 199.35 113.411 198.442 113.411 197.323V193.133C113.411 192.014 112.529 191.106 111.425 191.055Z" fill="#321C8C"/>
<path d="M71.8293 193.584C70.845 193.584 70.0427 192.779 70.0427 191.791V187.761C70.0427 187.287 70.2304 186.83 70.5661 186.494C70.9018 186.157 71.3343 185.963 71.8293 185.968L93.4168 186.02C94.4011 186.02 95.1977 186.825 95.1977 187.818C95.1977 188.806 94.3954 189.605 93.4111 189.605L73.6159 189.559V191.791C73.6159 192.779 72.8193 193.584 71.8293 193.584Z" fill="#ACA7C4"/>
<path d="M75.2717 199.406H68.9957C67.5164 199.406 66.3101 198.202 66.3101 196.712V193.127C66.3101 191.98 67.2432 191.043 68.3869 191.043H75.266C76.4097 191.043 77.3428 191.98 77.3428 193.127V197.317C77.3428 198.465 76.4097 199.401 75.266 199.401L75.2717 199.406Z" fill="#4929CF"/>
<path d="M75.3627 191.055C76.4666 191.106 77.3485 192.014 77.3485 193.133V197.323C77.3485 198.442 76.4666 199.349 75.3627 199.401C74.2589 199.349 73.377 198.442 73.377 197.323V193.133C73.377 192.014 74.2589 191.106 75.3627 191.055Z" fill="#321C8C"/>
<path d="M93.377 176.852C91.8976 176.852 90.697 175.648 90.697 174.163V152.471C90.697 150.986 91.8976 149.782 93.377 149.782C94.8563 149.782 96.0569 150.986 96.0569 152.471V174.163C96.0569 175.648 94.8563 176.852 93.377 176.852Z" fill="#4929CF"/>
<path d="M97.394 163.323H89.3599V180.888H97.394V163.323Z" fill="#321C8C"/>
<path d="M63.0043 154.314H116.802V157.037C116.802 158.584 115.55 159.84 114.009 159.84H65.7184C64.2219 159.84 63.0043 158.619 63.0043 157.117V154.314Z" fill="#321C8C"/>
<path d="M116.802 147.247H63.0043V156.204H116.802V147.247Z" fill="#E6E0FF"/>
<path d="M125.434 153.709L116.802 156.204V147.247H124.785C126.083 147.247 127.129 148.298 127.129 149.599V151.449C127.129 152.499 126.435 153.418 125.434 153.709Z" fill="#C9C4E5"/>
<path d="M111.385 141.755H69.4339L67.431 84.0759H109.383L111.385 141.755Z" fill="#C9C4E5"/>
<path d="M104.546 141.755H62.5946L60.5861 84.0759H102.538L104.546 141.755Z" fill="#E6E0FF"/>
<path d="M100.085 138.69H67.1067C66.2873 138.69 65.5932 138.022 65.5647 137.2L63.8748 88.643C63.8464 87.821 64.4893 87.1531 65.3087 87.1531H98.2873C99.1067 87.1531 99.8009 87.821 99.8293 88.643L101.519 137.2C101.548 138.022 100.905 138.69 100.085 138.69Z" fill="#C9C4E5"/>
<path d="M99.9602 80.8507H71.8976L71.2831 63.2568H99.3514L99.9602 80.8507Z" fill="#C9C4E5"/>
<path d="M95.3855 80.8507H67.3172L66.7027 63.2568H94.771L95.3855 80.8507Z" fill="#E6E0FF"/>
<path d="M84.9275 92.382H79.0441C78.2248 92.382 77.5306 91.714 77.5021 90.892L76.8819 73.0527C76.8535 72.2306 77.4964 71.5627 78.3158 71.5627H84.1991C85.0185 71.5627 85.7127 72.2306 85.7411 73.0527L86.3613 90.892C86.3898 91.714 85.7468 92.382 84.9275 92.382Z" fill="#4929CF"/>
<path d="M87.2376 131.343H81.3485C80.5283 131.343 79.8634 132.01 79.8634 132.833V160.645C79.8634 161.468 80.5283 162.135 81.3485 162.135H87.2376C88.0577 162.135 88.7226 161.468 88.7226 160.645V132.833C88.7226 132.01 88.0577 131.343 87.2376 131.343Z" fill="#4929CF"/>
<path d="M87.1522 75.7358H76.0171C75.1977 75.7358 74.5036 75.0679 74.4751 74.2459L74.3215 69.8674C74.293 69.0453 74.936 68.3774 75.7553 68.3774H86.8905C87.7098 68.3774 88.404 69.0453 88.4324 69.8674L88.5861 74.2459C88.6145 75.0679 87.9715 75.7358 87.1522 75.7358Z" fill="#4929CF"/>
<g opacity="0.19">
<path d="M85.9403 78.6872H77.0811L76.9787 75.7358H85.8378L85.9403 78.6872Z" fill="black"/>
</g>
</g>
<defs>
<clipPath id="clip0_22_226">
<rect width="248" height="206" fill="white"/>
</clipPath>
</defs>
</svg>
