<svg width="183" height="85" viewBox="0 0 183 85" fill="none" xmlns="http://www.w3.org/2000/svg">
<path d="M183 82.0472H49.5347V32.0645H183L170.406 58.0948L183 82.0472Z" fill="#F2890A"/>
<path d="M60.1919 36.7722L60.188 36.5081L60.9852 36.4963L60.9892 36.7604L60.1919 36.7722ZM62.0535 36.7461L62.0496 36.4819L62.8468 36.4701L62.8508 36.7343L62.0535 36.7461ZM63.9151 36.7199L63.9111 36.4557L64.7084 36.444L64.7123 36.7081L63.9151 36.7199ZM65.7767 36.6937L65.7727 36.4296L66.57 36.4178L66.5739 36.682L65.7767 36.6937ZM67.6382 36.6676L67.6343 36.4034L68.4316 36.3917L68.4355 36.6558L67.6382 36.6676ZM69.4998 36.6414L69.4959 36.3773L70.2931 36.3655L70.2971 36.6297L69.4998 36.6414ZM71.3614 36.6153L71.3575 36.3511L72.1547 36.3394L72.1587 36.6035L71.3614 36.6153ZM73.223 36.5891L73.219 36.325L74.0163 36.3132L74.0202 36.5774L73.223 36.5891ZM75.0846 36.563L75.0806 36.2988L75.8779 36.287L75.8818 36.5512L75.0846 36.563ZM76.9461 36.5368L76.9422 36.2727L77.7394 36.2609L77.7434 36.525L76.9461 36.5368ZM78.8077 36.5107L78.8038 36.2465L79.601 36.2347L79.605 36.4989L78.8077 36.5107ZM80.6693 36.4845L80.6653 36.2204L81.4626 36.2086L81.4665 36.4727L80.6693 36.4845ZM82.5309 36.4584L82.5269 36.1942L83.3242 36.1824L83.3281 36.4466L82.5309 36.4584ZM84.3924 36.4322L84.3885 36.168L85.1858 36.1563L85.1897 36.4204L84.3924 36.4322ZM86.254 36.406L86.2501 36.1419L87.0473 36.1301L87.0513 36.3943L86.254 36.406ZM88.1156 36.3799L88.1117 36.1157L88.9089 36.104L88.9129 36.3681L88.1156 36.3799ZM89.9772 36.3537L89.9732 36.0896L90.7705 36.0778L90.7744 36.342L89.9772 36.3537ZM91.8388 36.3276L91.8348 36.0634L92.6321 36.0517L92.636 36.3158L91.8388 36.3276ZM93.7003 36.3014L93.6964 36.0373L94.4936 36.0255L94.4976 36.2897L93.7003 36.3014ZM95.5619 36.2753L95.558 36.0111L96.3552 35.9993L96.3592 36.2635L95.5619 36.2753ZM97.4235 36.2491L97.4195 35.985L98.2168 35.9732L98.2207 36.2374L97.4235 36.2491ZM99.2851 36.223L99.2811 35.9588L100.078 35.947L100.082 36.2112L99.2851 36.223ZM101.147 36.1968L101.143 35.9326L101.94 35.9209L101.944 36.185L101.147 36.1968ZM103.008 36.1707L103.004 35.9065L103.802 35.8947L103.805 36.1589L103.008 36.1707ZM104.87 36.1445L104.866 35.8803L105.663 35.8686L105.667 36.1327L104.87 36.1445ZM106.731 36.1183L106.727 35.8542L107.525 35.8424L107.529 36.1066L106.731 36.1183ZM108.593 36.0922L108.589 35.828L109.386 35.8163L109.39 36.0804L108.593 36.0922ZM110.455 36.066L110.451 35.8019L111.248 35.7901L111.252 36.0543L110.455 36.066ZM112.316 36.0399L112.312 35.7757L113.109 35.764L113.113 36.0281L112.316 36.0399ZM114.178 36.0137L114.174 35.7496L114.971 35.7378L114.975 36.002L114.178 36.0137ZM116.039 35.9876L116.035 35.7234L116.833 35.7116L116.837 35.9758L116.039 35.9876ZM117.901 35.9614L117.897 35.6973L118.694 35.6855L118.698 35.9496L117.901 35.9614ZM119.762 35.9353L119.758 35.6711L120.556 35.6593L120.56 35.9235L119.762 35.9353ZM121.624 35.9091L121.62 35.645L122.417 35.6332L122.421 35.8973L121.624 35.9091ZM123.486 35.883L123.482 35.6188L124.279 35.607L124.283 35.8712L123.486 35.883ZM125.347 35.8568L125.343 35.5926L126.14 35.5809L126.144 35.845L125.347 35.8568ZM127.209 35.8306L127.205 35.5665L128.002 35.5547L128.006 35.8189L127.209 35.8306ZM129.07 35.8045L129.066 35.5403L129.864 35.5286L129.868 35.7927L129.07 35.8045ZM130.932 35.7783L130.928 35.5142L131.725 35.5024L131.729 35.7666L130.932 35.7783ZM132.793 35.7522L132.79 35.488L133.587 35.4763L133.591 35.7404L132.793 35.7522ZM134.655 35.726L134.651 35.4619L135.448 35.4501L135.452 35.7143L134.655 35.726ZM136.517 35.6999L136.513 35.4357L137.31 35.4239L137.314 35.6881L136.517 35.6999ZM138.378 35.6737L138.374 35.4096L139.172 35.3978L139.175 35.662L138.378 35.6737ZM140.24 35.6476L140.236 35.3834L141.033 35.3716L141.037 35.6358L140.24 35.6476ZM142.101 35.6214L142.097 35.3572L142.895 35.3455L142.899 35.6096L142.101 35.6214ZM143.963 35.5953L143.959 35.3311L144.756 35.3193L144.76 35.5835L143.963 35.5953ZM145.825 35.5691L145.821 35.3049L146.618 35.2932L146.622 35.5573L145.825 35.5691ZM147.686 35.5429L147.682 35.2788L148.479 35.267L148.483 35.5312L147.686 35.5429ZM149.548 35.5168L149.544 35.2526L150.341 35.2409L150.345 35.505L149.548 35.5168ZM151.409 35.4906L151.405 35.2265L152.203 35.2147L152.206 35.4789L151.409 35.4906ZM153.271 35.4645L153.267 35.2003L154.064 35.1886L154.068 35.4527L153.271 35.4645ZM155.132 35.4383L155.128 35.1742L155.926 35.1624L155.93 35.4266L155.132 35.4383ZM156.994 35.4122L156.99 35.148L157.787 35.1362L157.791 35.4004L156.994 35.4122ZM158.856 35.386L158.852 35.1219L159.649 35.1101L159.653 35.3742L158.856 35.386ZM160.717 35.3599L160.713 35.0957L161.51 35.0839L161.514 35.3481L160.717 35.3599ZM162.579 35.3337L162.575 35.0696L163.372 35.0578L163.376 35.3219L162.579 35.3337ZM164.44 35.3076L164.436 35.0434L165.234 35.0316L165.238 35.2958L164.44 35.3076ZM166.302 35.2814L166.298 35.0172L167.095 35.0055L167.099 35.2696L166.302 35.2814ZM168.163 35.2552L168.159 34.9911L168.957 34.9793L168.961 35.2435L168.163 35.2552ZM170.025 35.2291L170.021 34.9649L170.818 34.9532L170.822 35.2173L170.025 35.2291ZM171.887 35.2029L171.883 34.9388L172.68 34.927L172.684 35.1912L171.887 35.2029ZM173.748 35.1768L173.744 34.9126L174.541 34.9009L174.545 35.165L173.748 35.1768ZM175.61 35.1506L175.606 34.8865L176.403 34.8747L176.407 35.1389L175.61 35.1506ZM177.471 35.1245L177.467 34.8603L178.265 34.8485L178.269 35.1127L177.471 35.1245ZM179.333 35.0983L179.329 34.8342L180.126 34.8224L180.13 35.0865L179.333 35.0983Z" fill="white"/>
<path d="M60.1919 79.8016L60.188 79.5375L60.9852 79.5257L60.9892 79.7899L60.1919 79.8016ZM62.0535 79.7755L62.0496 79.5113L62.8468 79.4995L62.8508 79.7637L62.0535 79.7755ZM63.9151 79.7493L63.9111 79.4852L64.7084 79.4734L64.7123 79.7375L63.9151 79.7493ZM65.7767 79.7232L65.7727 79.459L66.57 79.4472L66.5739 79.7114L65.7767 79.7232ZM67.6382 79.697L67.6343 79.4328L68.4316 79.4211L68.4355 79.6852L67.6382 79.697ZM69.4998 79.6709L69.4959 79.4067L70.2931 79.3949L70.2971 79.6591L69.4998 79.6709ZM71.3614 79.6447L71.3575 79.3805L72.1547 79.3688L72.1587 79.6329L71.3614 79.6447ZM73.223 79.6185L73.219 79.3544L74.0163 79.3426L74.0202 79.6068L73.223 79.6185ZM75.0846 79.5924L75.0806 79.3282L75.8779 79.3165L75.8818 79.5806L75.0846 79.5924ZM76.9461 79.5662L76.9422 79.3021L77.7394 79.2903L77.7434 79.5545L76.9461 79.5662ZM78.8077 79.5401L78.8038 79.2759L79.601 79.2642L79.605 79.5283L78.8077 79.5401ZM80.6693 79.5139L80.6653 79.2498L81.4626 79.238L81.4665 79.5022L80.6693 79.5139ZM82.5309 79.4878L82.5269 79.2236L83.3242 79.2118L83.3281 79.476L82.5309 79.4878ZM84.3924 79.4616L84.3885 79.1975L85.1858 79.1857L85.1897 79.4498L84.3924 79.4616ZM86.254 79.4355L86.2501 79.1713L87.0473 79.1595L87.0513 79.4237L86.254 79.4355ZM88.1156 79.4093L88.1117 79.1452L88.9089 79.1334L88.9129 79.3975L88.1156 79.4093ZM89.9772 79.3832L89.9732 79.119L90.7705 79.1072L90.7744 79.3714L89.9772 79.3832ZM91.8388 79.357L91.8348 79.0928L92.6321 79.0811L92.636 79.3452L91.8388 79.357ZM93.7003 79.3308L93.6964 79.0667L94.4936 79.0549L94.4976 79.3191L93.7003 79.3308ZM95.5619 79.3047L95.558 79.0405L96.3552 79.0288L96.3592 79.2929L95.5619 79.3047ZM97.4235 79.2785L97.4195 79.0144L98.2168 79.0026L98.2207 79.2668L97.4235 79.2785ZM99.2851 79.2524L99.2811 78.9882L100.078 78.9765L100.082 79.2406L99.2851 79.2524ZM101.147 79.2262L101.143 78.9621L101.94 78.9503L101.944 79.2145L101.147 79.2262ZM103.008 79.2001L103.004 78.9359L103.802 78.9241L103.805 79.1883L103.008 79.2001ZM104.87 79.1739L104.866 78.9098L105.663 78.898L105.667 79.1622L104.87 79.1739ZM106.731 79.1478L106.727 78.8836L107.525 78.8718L107.529 79.136L106.731 79.1478ZM108.593 79.1216L108.589 78.8575L109.386 78.8457L109.39 79.1098L108.593 79.1216ZM110.455 79.0955L110.451 78.8313L111.248 78.8195L111.252 79.0837L110.455 79.0955ZM112.316 79.0693L112.312 78.8051L113.109 78.7934L113.113 79.0575L112.316 79.0693ZM114.178 79.0431L114.174 78.779L114.971 78.7672L114.975 79.0314L114.178 79.0431ZM116.039 79.017L116.035 78.7528L116.833 78.7411L116.837 79.0052L116.039 79.017ZM117.901 78.9908L117.897 78.7267L118.694 78.7149L118.698 78.9791L117.901 78.9908ZM119.762 78.9647L119.758 78.7005L120.556 78.6887L120.56 78.9529L119.762 78.9647ZM121.624 78.9385L121.62 78.6744L122.417 78.6626L122.421 78.9268L121.624 78.9385ZM123.486 78.9124L123.482 78.6482L124.279 78.6364L124.283 78.9006L123.486 78.9124ZM125.347 78.8862L125.343 78.6221L126.14 78.6103L126.144 78.8745L125.347 78.8862ZM127.209 78.8601L127.205 78.5959L128.002 78.5841L128.006 78.8483L127.209 78.8601ZM129.07 78.8339L129.066 78.5697L129.864 78.558L129.868 78.8221L129.07 78.8339ZM130.932 78.8078L130.928 78.5436L131.725 78.5318L131.729 78.796L130.932 78.8078ZM132.793 78.7816L132.79 78.5174L133.587 78.5057L133.591 78.7698L132.793 78.7816ZM134.655 78.7554L134.651 78.4913L135.448 78.4795L135.452 78.7437L134.655 78.7554ZM136.517 78.7293L136.513 78.4651L137.31 78.4534L137.314 78.7175L136.517 78.7293ZM138.378 78.7031L138.374 78.439L139.172 78.4272L139.175 78.6914L138.378 78.7031ZM140.24 78.677L140.236 78.4128L141.033 78.4011L141.037 78.6652L140.24 78.677ZM142.101 78.6508L142.097 78.3867L142.895 78.3749L142.899 78.6391L142.101 78.6508ZM143.963 78.6247L143.959 78.3605L144.756 78.3487L144.76 78.6129L143.963 78.6247ZM145.825 78.5985L145.821 78.3344L146.618 78.3226L146.622 78.5867L145.825 78.5985ZM147.686 78.5724L147.682 78.3082L148.479 78.2964L148.483 78.5606L147.686 78.5724ZM149.548 78.5462L149.544 78.282L150.341 78.2703L150.345 78.5344L149.548 78.5462ZM151.409 78.5201L151.405 78.2559L152.203 78.2441L152.206 78.5083L151.409 78.5201ZM153.271 78.4939L153.267 78.2297L154.064 78.218L154.068 78.4821L153.271 78.4939ZM155.132 78.4677L155.128 78.2036L155.926 78.1918L155.93 78.456L155.132 78.4677ZM156.994 78.4416L156.99 78.1774L157.787 78.1657L157.791 78.4298L156.994 78.4416ZM158.856 78.4154L158.852 78.1513L159.649 78.1395L159.653 78.4037L158.856 78.4154ZM160.717 78.3893L160.713 78.1251L161.51 78.1134L161.514 78.3775L160.717 78.3893ZM162.579 78.3631L162.575 78.099L163.372 78.0872L163.376 78.3514L162.579 78.3631ZM164.44 78.337L164.436 78.0728L165.234 78.061L165.238 78.3252L164.44 78.337ZM166.302 78.3108L166.298 78.0467L167.095 78.0349L167.099 78.299L166.302 78.3108ZM168.163 78.2847L168.159 78.0205L168.957 78.0087L168.961 78.2729L168.163 78.2847ZM170.025 78.2585L170.021 77.9943L170.818 77.9826L170.822 78.2467L170.025 78.2585ZM171.887 78.2324L171.883 77.9682L172.68 77.9564L172.684 78.2206L171.887 78.2324ZM173.748 78.2062L173.744 77.942L174.541 77.9303L174.545 78.1944L173.748 78.2062ZM175.61 78.18L175.606 77.9159L176.403 77.9041L176.407 78.1683L175.61 78.18ZM177.471 78.1539L177.467 77.8897L178.265 77.878L178.269 78.1421L177.471 78.1539ZM179.333 78.1277L179.329 77.8636L180.126 77.8518L180.13 78.116L179.333 78.1277Z" fill="white"/>
<path d="M69.1174 18.8118L75.5678 4.8335L81.1157 10.0866L69.1174 18.8118Z" fill="url(#paint0_linear_181_279)"/>
<path d="M63.8801 19.5742L63.1973 10.3037L67.6756 11.4781L63.8801 19.5742Z" fill="url(#paint1_linear_181_279)"/>
<path d="M72.4868 24.1199L77.9426 21.2507L78.7964 24.3723L72.4868 24.1199Z" fill="url(#paint2_linear_181_279)"/>
<path d="M16.8499 28.5519L13.2241 26.398L14.8226 25.0576L16.8499 28.5519Z" fill="url(#paint3_linear_181_279)"/>
<path d="M13.8899 34.0612L4.66357 35.5795L5.4332 31.0391L13.8899 34.0612Z" fill="url(#paint4_linear_181_279)"/>
<path d="M20.0862 23.1064L16.1934 13.3586L21.6873 12.4968L20.0862 23.1064Z" fill="url(#paint5_linear_181_279)"/>
<path d="M76.8967 43.2598C78.0123 39.7354 77.8755 36.6152 76.4875 33.9736C74.2194 29.6581 69.4319 28.4367 69.2491 28.3909C62.8118 26.7471 56.7403 27.3774 52.8198 28.1803C56.4522 18.1174 56.6929 10.4567 53.5302 5.38662C50.4886 0.512717 45.463 0.0275496 45.2511 0.00924143L45.0933 0.00139506C38.043 -0.0953769 35.5236 4.86615 35.1749 7.51168L35.1578 7.71176C34.7671 17.4269 33.6949 20.4216 33.3555 21.1395L33.2792 21.1827L32.9805 21.6508C27.7392 29.8922 24.9053 39.1744 24.7738 39.6125C24.0713 42.143 22.3307 43.1682 21.1756 43.5775C20.9283 43.3435 20.6691 43.1211 20.3849 42.9289C18.4313 41.6016 16.3487 41.8095 15.7843 41.8984L8.88526 42.7001C5.67256 42.9171 3.25711 43.9973 1.7047 45.9105C-0.110833 48.1481 -0.0476839 50.7086 0.0299367 51.5311C-0.0437371 54.3061 0.371993 57.1374 0.428564 57.5062L2.20068 71.5067C2.78612 75.9634 3.76493 78.7241 3.80703 78.8391L3.9057 79.0719C6.01724 83.3443 9.94563 84.4637 12.7926 84.4637C13.5188 84.4637 14.1766 84.3904 14.7134 84.2793L18.0287 83.8334C21.394 83.462 23.8108 82.2772 25.2158 80.3169C30.8203 80.7877 36.5932 80.9524 41.9029 80.9524C53.7763 80.9524 63.3262 80.1377 63.4696 80.1246L63.6827 80.0959C72.6749 78.4351 74.6378 71.6074 74.4246 67.2003C76.2441 65.805 77.3848 64.0683 77.8215 62.0217C78.4057 59.2912 77.5571 56.7411 76.7927 55.1483C80.3317 50.94 78.7753 46.0792 76.8953 43.2598H76.8967Z" fill="url(#paint6_linear_181_279)"/>
<path d="M76.8967 43.2598C78.0123 39.7354 77.8755 36.6152 76.4875 33.9736C74.2194 29.6581 69.4319 28.4367 69.2491 28.3909C62.8118 26.7471 56.7403 27.3774 52.8198 28.1803C56.4522 18.1174 56.6929 10.4567 53.5302 5.38662C50.4886 0.512717 45.463 0.0275496 45.2511 0.00924143L45.0933 0.00139506C38.043 -0.0953769 35.5236 4.86615 35.1749 7.51168L35.1578 7.71176C34.7671 17.4269 33.6949 20.4216 33.3555 21.1395L33.2792 21.1827L32.9805 21.6508C27.7392 29.8922 24.9053 39.1744 24.7738 39.6125C24.0713 42.143 22.3307 43.1682 21.1756 43.5775C20.9283 43.3435 20.6691 43.1211 20.3849 42.9289C18.4313 41.6016 16.3487 41.8095 15.7843 41.8984L8.88526 42.7001C5.67256 42.9171 3.25711 43.9973 1.7047 45.9105C-0.110833 48.1481 -0.0476839 50.7086 0.0299367 51.5311C-0.0437371 54.3061 0.371993 57.1374 0.428564 57.5062L2.20068 71.5067C2.78612 75.9634 3.76493 78.7241 3.80703 78.8391L3.9057 79.0719C6.01724 83.3443 9.94563 84.4637 12.7926 84.4637C13.5188 84.4637 14.1766 84.3904 14.7134 84.2793L18.0287 83.8334C21.394 83.462 23.8108 82.2772 25.2145 80.3169C30.819 80.7877 36.5919 80.9524 41.9016 80.9524C53.7749 80.9524 63.3249 80.1377 63.4683 80.1246L63.6814 80.0959C72.6736 78.4351 74.6365 71.6074 74.4233 67.2003C76.2428 65.805 77.3834 64.0683 77.8202 62.0217C78.4043 59.2912 77.5558 56.7411 76.7914 55.1483C80.3304 50.94 78.774 46.0792 76.894 43.2598H76.8967ZM21.5703 77.725C20.9493 78.5998 19.5535 79.1805 17.4814 79.4106L14.0253 79.8749L13.849 79.9049C13.432 79.9926 9.76934 80.6386 7.99196 77.228C7.81699 76.6984 7.1013 74.3915 6.64873 70.9405L4.87399 56.9203L4.86478 56.8562C4.86083 56.8288 4.43194 54.0485 4.51614 51.5168L4.52272 51.3141L4.49246 51.1127C4.49115 51.0996 4.35038 49.75 5.19499 48.7104C5.93699 47.7963 7.29601 47.2693 9.23521 47.145L16.3618 46.3198L16.3592 46.3329L16.496 46.3002C17.2407 46.1865 18.5536 46.3748 19.018 48.8791L21.9058 75.9124L21.9531 76.1897C21.9545 76.1975 22.0808 77.0083 21.5716 77.7263L21.5703 77.725ZM72.1736 56.0546C72.1921 56.0807 73.9642 58.6844 73.4327 61.1155C73.1656 62.3356 72.3381 63.3439 70.9001 64.2017L69.5924 64.9955L69.845 66.4929C69.9766 67.2762 70.9001 74.1666 62.9684 75.6941C61.3949 75.8235 43.2488 77.2607 26.4262 75.9438C26.4078 75.6901 26.3775 75.4848 26.3525 75.3462L23.4674 48.3285L23.4463 48.1794C23.4069 47.9519 23.3556 47.7361 23.3043 47.5203C25.3619 46.6442 27.9918 44.782 29.0837 40.8483C29.11 40.7594 31.7873 31.9884 36.5892 24.3238C37.5759 23.3012 39.1389 20.0816 39.6335 8.01516C39.7309 7.4816 40.4755 4.45683 44.8709 4.45683H44.9117C45.3906 4.52614 48.0731 5.02961 49.7663 7.80984C51.516 10.6829 52.6001 16.6422 47.8205 28.7348L45.3077 35.3009L49.961 33.5616C50.0492 33.5289 58.8045 30.325 68.1387 32.7077C68.1689 32.7155 71.2198 33.5342 72.5289 36.0659C73.4327 37.8131 73.3537 40.0937 72.2947 42.8439L71.8329 44.0719L72.6736 45.0749C73.3156 45.8412 76.3283 49.8311 72.5446 53.0991L71.0409 54.4134L72.1736 56.052V56.0546Z" fill="url(#paint7_linear_181_279)"/>
<path d="M83.0602 66.3437V46.5826H87.9438C88.8278 46.5826 89.6251 46.6637 90.3368 46.8272C91.0486 46.9893 91.6617 47.2627 92.1774 47.6445C92.6931 48.0264 93.0891 48.5429 93.368 49.1942C93.6456 49.8454 93.785 50.6667 93.785 51.6579C93.785 52.4557 93.6745 53.1383 93.4535 53.7072C93.2325 54.2773 92.9088 54.7285 92.4839 55.0607C92.0577 55.3941 91.5261 55.6177 90.8881 55.7315C91.6735 55.8623 92.3234 56.1343 92.8391 56.5488C93.3548 56.9634 93.739 57.5048 93.9929 58.1717C94.2468 58.8387 94.3731 59.6442 94.3731 60.5871C94.3731 61.53 94.2547 62.3643 94.0166 63.0875C93.7798 63.812 93.4272 64.4135 92.9615 64.8935C92.4957 65.3734 91.9143 65.7356 91.2183 65.9789C90.5223 66.2234 89.7093 66.345 88.7765 66.345H83.0576L83.0602 66.3437ZM86.6926 54.6579H87.9201C88.6397 54.6579 89.1962 54.5519 89.5896 54.3401C89.9816 54.1295 90.2566 53.8039 90.4118 53.3645C90.5671 52.9251 90.6447 52.3733 90.6447 51.705C90.6447 51.0368 90.5263 50.4653 90.2895 50.0821C90.0527 49.7003 89.6961 49.44 89.2212 49.3014C88.7463 49.1628 88.1411 49.0935 87.4044 49.0935H86.6926V54.6566V54.6579ZM86.6926 63.8067H88.0674C89.1633 63.8067 89.908 63.5426 90.3013 63.0143C90.6934 62.4859 90.8907 61.6686 90.8907 60.5623C90.8907 59.7659 90.796 59.1185 90.6079 58.6229C90.4197 58.1273 90.1079 57.7572 89.6751 57.5126C89.2409 57.2681 88.6647 57.1465 87.9451 57.1465H86.6939V63.8067H86.6926Z" fill="white"/>
<path d="M96.8291 66.3437V46.5826H100.413V66.3437H96.8291Z" fill="white"/>
<path d="M108.463 66.613C107.154 66.613 106.115 66.3371 105.346 65.7839C104.577 65.2308 104.026 64.4461 103.69 63.43C103.355 62.4139 103.188 61.2147 103.188 59.8312V53.1957C103.188 51.7808 103.351 50.5607 103.678 49.5367C104.006 48.5115 104.582 47.7281 105.408 47.1828C106.234 46.6375 107.375 46.3655 108.831 46.3655C110.189 46.3655 111.269 46.593 112.072 47.0481C112.873 47.5032 113.451 48.1584 113.802 49.0123C114.153 49.8663 114.329 50.9033 114.329 52.1234V53.1487H110.869V52.0266C110.869 51.3924 110.825 50.8471 110.734 50.392C110.644 49.9369 110.464 49.5916 110.194 49.3549C109.925 49.1196 109.487 49.0019 108.881 49.0019C108.243 49.0019 107.78 49.1562 107.495 49.4648C107.208 49.7734 107.029 50.1801 106.955 50.6849C106.882 51.1897 106.845 51.7429 106.845 52.3444V60.6145C106.845 61.2971 106.901 61.8921 107.017 62.3956C107.132 62.9004 107.345 63.2862 107.655 63.5543C107.966 63.8224 108.408 63.9571 108.98 63.9571C109.552 63.9571 110.019 63.8106 110.33 63.5177C110.64 63.2247 110.857 62.818 110.98 62.2975C111.102 61.7771 111.164 61.1598 111.164 60.4432V58.5888H109.029V56.3199H114.428V66.3476H112.097L111.827 64.3964C111.565 65.0477 111.168 65.5799 110.636 65.9945C110.105 66.409 109.38 66.617 108.464 66.617L108.463 66.613Z" fill="white"/>
<path d="M128.171 66.6133C126.976 66.6133 125.978 66.3818 125.176 65.9176C124.374 65.4547 123.769 64.7746 123.36 63.8802C122.95 62.9857 122.722 61.8885 122.673 60.586L125.79 59.9766C125.822 60.7416 125.916 61.4164 126.072 62.0009C126.228 62.5868 126.464 63.038 126.784 63.3544C127.104 63.6722 127.525 63.8305 128.048 63.8305C128.638 63.8305 129.055 63.6552 129.3 63.3061C129.546 62.9569 129.668 62.5136 129.668 61.9761C129.668 61.1143 129.472 60.4068 129.079 59.8537C128.685 59.3005 128.162 58.7473 127.508 58.1941L125.004 55.9985C124.3 55.3969 123.74 54.7261 123.323 53.9859C122.906 53.2457 122.697 52.3316 122.697 51.241C122.697 49.6795 123.154 48.4764 124.071 47.6303C124.987 46.7842 126.239 46.3618 127.826 46.3618C128.759 46.3618 129.536 46.5044 130.157 46.7881C130.778 47.0732 131.274 47.4668 131.643 47.9716C132.011 48.4764 132.285 49.0492 132.465 49.6913C132.645 50.3334 132.76 51.0134 132.808 51.7287L129.715 52.2649C129.682 51.6464 129.613 51.0945 129.506 50.6054C129.4 50.1176 129.211 49.7358 128.942 49.4585C128.672 49.1826 128.275 49.044 127.751 49.044C127.227 49.044 126.797 49.2192 126.512 49.5684C126.225 49.9188 126.083 50.353 126.083 50.8735C126.083 51.5404 126.221 52.0897 126.5 52.5199C126.778 52.9515 127.179 53.3948 127.702 53.8499L130.181 56.0207C130.999 56.7033 131.698 57.505 132.279 58.4243C132.86 59.3436 133.15 60.4539 133.15 61.7551C133.15 62.698 132.941 63.5362 132.524 64.2686C132.107 65.0009 131.526 65.5737 130.781 65.9882C130.036 66.4028 129.165 66.6107 128.167 66.6107L128.171 66.6133Z" fill="white"/>
<path d="M134.185 66.3437L138.16 46.5826H142.039L146.014 66.3437H142.652L141.866 61.7811H138.406L137.596 66.3437H134.185ZM138.775 59.4886H141.474L140.125 51.1937L138.775 59.4886Z" fill="white"/>
<path d="M147.903 66.3437V46.5826H151.536V63.8551H156.347V66.3437H147.903Z" fill="white"/>
<path d="M158.138 66.3437V46.5826H166.483V49.1196H161.77V54.8043H165.476V57.3178H161.77V63.8564H166.531V66.345H158.138V66.3437Z" fill="white"/>
<defs>
<linearGradient id="paint0_linear_181_279" x1="70.5492" y1="8.98909" x2="75.3806" y2="14.8342" gradientUnits="userSpaceOnUse">
<stop offset="0.04" stop-color="#F7931E"/>
<stop offset="1" stop-color="#F15A24"/>
</linearGradient>
<linearGradient id="paint1_linear_181_279" x1="62.1435" y1="11.1824" x2="66.9745" y2="17.025" gradientUnits="userSpaceOnUse">
<stop offset="0.04" stop-color="#F7931E"/>
<stop offset="1" stop-color="#F15A24"/>
</linearGradient>
<linearGradient id="paint2_linear_181_279" x1="74.8133" y1="22.2038" x2="77.498" y2="25.4519" gradientUnits="userSpaceOnUse">
<stop offset="0.04" stop-color="#F7931E"/>
<stop offset="1" stop-color="#F15A24"/>
</linearGradient>
<linearGradient id="paint3_linear_181_279" x1="13.9306" y1="25.5689" x2="15.9424" y2="29.0737" gradientUnits="userSpaceOnUse">
<stop offset="0.04" stop-color="#F7931E"/>
<stop offset="1" stop-color="#F15A24"/>
</linearGradient>
<linearGradient id="paint4_linear_181_279" x1="6.66855" y1="30.3303" x2="10.0675" y2="36.255" gradientUnits="userSpaceOnUse">
<stop offset="0.04" stop-color="#F7931E"/>
<stop offset="1" stop-color="#F15A24"/>
</linearGradient>
<linearGradient id="paint5_linear_181_279" x1="17.7773" y1="12.4497" x2="22.9495" y2="21.462" gradientUnits="userSpaceOnUse">
<stop offset="0.04" stop-color="#F7931E"/>
<stop offset="1" stop-color="#F15A24"/>
</linearGradient>
<linearGradient id="paint6_linear_181_279" x1="15.9579" y1="14.8088" x2="56.4355" y2="85.3397" gradientUnits="userSpaceOnUse">
<stop stop-color="white"/>
<stop offset="0.97" stop-color="#F2F2F2"/>
<stop offset="1"/>
</linearGradient>
<linearGradient id="paint7_linear_181_279" x1="15.9579" y1="14.8088" x2="56.4355" y2="85.3397" gradientUnits="userSpaceOnUse">
<stop offset="0.04" stop-color="#F7931E"/>
<stop offset="1" stop-color="#F15A24"/>
</linearGradient>
</defs>
</svg>
