<svg width="48" height="48" viewBox="0 0 48 48" fill="none" xmlns="http://www.w3.org/2000/svg">
<g clip-path="url(#clip0_22_445)">
<path d="M16.8 0C15.527 0 14.3061 0.505713 13.4059 1.40589C12.5057 2.30606 12 3.52696 12 4.8H33.6C34.873 4.8 36.0939 5.30571 36.9941 6.20589C37.8943 7.10606 38.4 8.32696 38.4 9.6V38.4C39.673 38.4 40.8939 37.8943 41.7941 36.9941C42.6943 36.0939 43.2 34.873 43.2 33.6V4.8C43.2 3.52696 42.6943 2.30606 41.7941 1.40589C40.8939 0.505713 39.673 0 38.4 0L16.8 0Z" fill="#CC5336"/>
<path d="M31.2 48H9.6C8.32696 48 7.10606 47.4943 6.20589 46.5941C5.30571 45.694 4.8 44.4731 4.8 43.2V12C4.8 10.727 5.30571 9.50607 6.20589 8.6059C7.10606 7.70572 8.32696 7.20001 9.6 7.20001H31.2C32.473 7.20001 33.6939 7.70572 34.5941 8.6059C35.4943 9.50607 36 10.727 36 12V43.2C36 44.4731 35.4943 45.694 34.5941 46.5941C33.6939 47.4943 32.473 48 31.2 48ZM15.6 39.6L16.584 36.984L19.2 36L16.584 35.016L15.6 32.4L14.616 35.016L12 36L14.616 36.984L15.6 39.6ZM22.7568 37.3224L25.0416 31.176L31.1136 28.8624L25.0416 26.5488L22.7568 20.4L20.472 26.5488L14.4 28.8624L20.472 31.176L22.7568 37.3224ZM14.4 25.2L15.7128 21.7128L19.2 20.4L15.7128 19.0872L14.4 15.6L13.0872 19.0872L9.6 20.4L13.0872 21.7128L14.4 25.2Z" fill="#CC5336"/>
</g>
<defs>
<clipPath id="clip0_22_445">
<rect width="48" height="48" fill="white"/>
</clipPath>
</defs>
</svg>
