<svg width="181" height="84" viewBox="0 0 181 84" fill="none" xmlns="http://www.w3.org/2000/svg">
<path d="M181 81.0863H48.9934V31.6889H181L168.543 57.4144L181 81.0863Z" fill="url(#paint0_linear_181_168)"/>
<path d="M59.5345 36.3414L59.5306 36.0804L60.3192 36.0687L60.3231 36.3298L59.5345 36.3414ZM61.3758 36.3156L61.3719 36.0545L62.1604 36.0429L62.1643 36.304L61.3758 36.3156ZM63.217 36.2898L63.2131 36.0287L64.0017 36.0171L64.0056 36.2781L63.217 36.2898ZM65.0582 36.2639L65.0543 36.0028L65.8429 35.9912L65.8468 36.2523L65.0582 36.2639ZM66.8995 36.2381L66.8956 35.977L67.6841 35.9654L67.688 36.2264L66.8995 36.2381ZM68.7407 36.2122L68.7368 35.9511L69.5254 35.9395L69.5293 36.2006L68.7407 36.2122ZM70.5819 36.1864L70.578 35.9253L71.3666 35.9137L71.3705 36.1747L70.5819 36.1864ZM72.4232 36.1605L72.4193 35.8994L73.2078 35.8878L73.2117 36.1489L72.4232 36.1605ZM74.2644 36.1347L74.2605 35.8736L75.049 35.862L75.0529 36.123L74.2644 36.1347ZM76.1056 36.1088L76.1017 35.8477L76.8903 35.8361L76.8942 36.0972L76.1056 36.1088ZM77.9469 36.083L77.943 35.8219L78.7315 35.8103L78.7354 36.0713L77.9469 36.083ZM79.7881 36.0571L79.7842 35.796L80.5727 35.7844L80.5766 36.0455L79.7881 36.0571ZM81.6293 36.0313L81.6254 35.7702L82.414 35.7586L82.4179 36.0196L81.6293 36.0313ZM83.4706 36.0054L83.4667 35.7444L84.2552 35.7327L84.2591 35.9938L83.4706 36.0054ZM85.3118 35.9796L85.3079 35.7185L86.0964 35.7069L86.1003 35.9679L85.3118 35.9796ZM87.153 35.9537L87.1491 35.6927L87.9377 35.681L87.9416 35.9421L87.153 35.9537ZM88.9943 35.9279L88.9904 35.6668L89.7789 35.6552L89.7828 35.9162L88.9943 35.9279ZM90.8355 35.902L90.8316 35.641L91.6201 35.6293L91.624 35.8904L90.8355 35.902ZM92.6767 35.8762L92.6728 35.6151L93.4614 35.6035L93.4653 35.8645L92.6767 35.8762ZM94.518 35.8503L94.5141 35.5893L95.3026 35.5776L95.3065 35.8387L94.518 35.8503ZM96.3592 35.8245L96.3553 35.5634L97.1438 35.5518L97.1477 35.8129L96.3592 35.8245ZM98.2004 35.7986L98.1965 35.5376L98.9851 35.5259L98.989 35.787L98.2004 35.7986ZM100.042 35.7728L100.038 35.5117L100.826 35.5001L100.83 35.7612L100.042 35.7728ZM101.883 35.7469L101.879 35.4859L102.668 35.4742L102.671 35.7353L101.883 35.7469ZM103.724 35.7211L103.72 35.46L104.509 35.4484L104.513 35.7095L103.724 35.7211ZM105.565 35.6952L105.561 35.4342L106.35 35.4225L106.354 35.6836L105.565 35.6952ZM107.407 35.6694L107.403 35.4083L108.191 35.3967L108.195 35.6578L107.407 35.6694ZM109.248 35.6435L109.244 35.3825L110.032 35.3708L110.036 35.6319L109.248 35.6435ZM111.089 35.6177L111.085 35.3566L111.874 35.345L111.878 35.6061L111.089 35.6177ZM112.93 35.5918L112.926 35.3308L113.715 35.3191L113.719 35.5802L112.93 35.5918ZM114.772 35.566L114.768 35.3049L115.556 35.2933L115.56 35.5544L114.772 35.566ZM116.613 35.5401L116.609 35.2791L117.397 35.2675L117.401 35.5285L116.613 35.5401ZM118.454 35.5143L118.45 35.2532L119.239 35.2416L119.243 35.5027L118.454 35.5143ZM120.295 35.4885L120.291 35.2274L121.08 35.2158L121.084 35.4768L120.295 35.4885ZM122.136 35.4626L122.133 35.2015L122.921 35.1899L122.925 35.451L122.136 35.4626ZM123.978 35.4368L123.974 35.1757L124.762 35.1641L124.766 35.4251L123.978 35.4368ZM125.819 35.4109L125.815 35.1498L126.604 35.1382L126.607 35.3993L125.819 35.4109ZM127.66 35.3851L127.656 35.124L128.445 35.1124L128.449 35.3734L127.66 35.3851ZM129.501 35.3592L129.497 35.0981L130.286 35.0865L130.29 35.3476L129.501 35.3592ZM131.343 35.3334L131.339 35.0723L132.127 35.0607L132.131 35.3217L131.343 35.3334ZM133.184 35.3075L133.18 35.0464L133.968 35.0348L133.972 35.2959L133.184 35.3075ZM135.025 35.2817L135.021 35.0206L135.81 35.009L135.814 35.27L135.025 35.2817ZM136.866 35.2558L136.862 34.9947L137.651 34.9831L137.655 35.2442L136.866 35.2558ZM138.708 35.23L138.704 34.9689L139.492 34.9573L139.496 35.2183L138.708 35.23ZM140.549 35.2041L140.545 34.9431L141.333 34.9314L141.337 35.1925L140.549 35.2041ZM142.39 35.1783L142.386 34.9172L143.175 34.9056L143.179 35.1666L142.39 35.1783ZM144.231 35.1524L144.227 34.8914L145.016 34.8797L145.02 35.1408L144.231 35.1524ZM146.072 35.1266L146.069 34.8655L146.857 34.8539L146.861 35.1149L146.072 35.1266ZM147.914 35.1007L147.91 34.8397L148.698 34.828L148.702 35.0891L147.914 35.1007ZM149.755 35.0749L149.751 34.8138L150.54 34.8022L150.543 35.0632L149.755 35.0749ZM151.596 35.049L151.592 34.788L152.381 34.7763L152.385 35.0374L151.596 35.049ZM153.437 35.0232L153.434 34.7621L154.222 34.7505L154.226 35.0116L153.437 35.0232ZM155.279 34.9973L155.275 34.7363L156.063 34.7246L156.067 34.9857L155.279 34.9973ZM157.12 34.9715L157.116 34.7104L157.905 34.6988L157.908 34.9599L157.12 34.9715ZM158.961 34.9456L158.957 34.6846L159.746 34.6729L159.75 34.934L158.961 34.9456ZM160.802 34.9198L160.798 34.6587L161.587 34.6471L161.591 34.9082L160.802 34.9198ZM162.644 34.8939L162.64 34.6329L163.428 34.6212L163.432 34.8823L162.644 34.8939ZM164.485 34.8681L164.481 34.607L165.269 34.5954L165.273 34.8565L164.485 34.8681ZM166.326 34.8422L166.322 34.5812L167.111 34.5695L167.115 34.8306L166.326 34.8422ZM168.167 34.8164L168.163 34.5553L168.952 34.5437L168.956 34.8048L168.167 34.8164ZM170.008 34.7905L170.005 34.5295L170.793 34.5178L170.797 34.7789L170.008 34.7905ZM171.85 34.7647L171.846 34.5036L172.634 34.492L172.638 34.7531L171.85 34.7647ZM173.691 34.7389L173.687 34.4778L174.476 34.4662L174.48 34.7272L173.691 34.7389ZM175.532 34.713L175.528 34.4519L176.317 34.4403L176.321 34.7014L175.532 34.713ZM177.373 34.6872L177.37 34.4261L178.158 34.4145L178.162 34.6755L177.373 34.6872Z" fill="white"/>
<path d="M59.5345 78.8672L59.5306 78.6061L60.3192 78.5945L60.3231 78.8556L59.5345 78.8672ZM61.3758 78.8413L61.3719 78.5803L62.1604 78.5686L62.1643 78.8297L61.3758 78.8413ZM63.217 78.8155L63.2131 78.5544L64.0017 78.5428L64.0056 78.8039L63.217 78.8155ZM65.0582 78.7896L65.0543 78.5286L65.8429 78.517L65.8468 78.778L65.0582 78.7896ZM66.8995 78.7638L66.8956 78.5027L67.6841 78.4911L67.688 78.7522L66.8995 78.7638ZM68.7407 78.7379L68.7368 78.4769L69.5254 78.4653L69.5293 78.7263L68.7407 78.7379ZM70.5819 78.7121L70.578 78.451L71.3666 78.4394L71.3705 78.7005L70.5819 78.7121ZM72.4232 78.6863L72.4193 78.4252L73.2078 78.4136L73.2117 78.6746L72.4232 78.6863ZM74.2644 78.6604L74.2605 78.3993L75.049 78.3877L75.0529 78.6488L74.2644 78.6604ZM76.1056 78.6346L76.1017 78.3735L76.8903 78.3619L76.8942 78.6229L76.1056 78.6346ZM77.9469 78.6087L77.943 78.3476L78.7315 78.336L78.7354 78.5971L77.9469 78.6087ZM79.7881 78.5829L79.7842 78.3218L80.5727 78.3102L80.5766 78.5712L79.7881 78.5829ZM81.6293 78.557L81.6254 78.2959L82.414 78.2843L82.4179 78.5454L81.6293 78.557ZM83.4706 78.5312L83.4667 78.2701L84.2552 78.2585L84.2591 78.5195L83.4706 78.5312ZM85.3118 78.5053L85.3079 78.2442L86.0964 78.2326L86.1003 78.4937L85.3118 78.5053ZM87.153 78.4795L87.1491 78.2184L87.9377 78.2068L87.9416 78.4678L87.153 78.4795ZM88.9943 78.4536L88.9904 78.1926L89.7789 78.1809L89.7828 78.442L88.9943 78.4536ZM90.8355 78.4278L90.8316 78.1667L91.6201 78.1551L91.624 78.4161L90.8355 78.4278ZM92.6767 78.4019L92.6728 78.1409L93.4614 78.1292L93.4653 78.3903L92.6767 78.4019ZM94.518 78.3761L94.5141 78.115L95.3026 78.1034L95.3065 78.3644L94.518 78.3761ZM96.3592 78.3502L96.3553 78.0892L97.1438 78.0775L97.1477 78.3386L96.3592 78.3502ZM98.2004 78.3244L98.1965 78.0633L98.9851 78.0517L98.989 78.3127L98.2004 78.3244ZM100.042 78.2985L100.038 78.0375L100.826 78.0258L100.83 78.2869L100.042 78.2985ZM101.883 78.2727L101.879 78.0116L102.668 78L102.671 78.261L101.883 78.2727ZM103.724 78.2468L103.72 77.9858L104.509 77.9741L104.513 78.2352L103.724 78.2468ZM105.565 78.221L105.561 77.9599L106.35 77.9483L106.354 78.2094L105.565 78.221ZM107.407 78.1951L107.403 77.9341L108.191 77.9224L108.195 78.1835L107.407 78.1951ZM109.248 78.1693L109.244 77.9082L110.032 77.8966L110.036 78.1577L109.248 78.1693ZM111.089 78.1434L111.085 77.8824L111.874 77.8707L111.878 78.1318L111.089 78.1434ZM112.93 78.1176L112.926 77.8565L113.715 77.8449L113.719 78.106L112.93 78.1176ZM114.772 78.0917L114.768 77.8307L115.556 77.819L115.56 78.0801L114.772 78.0917ZM116.613 78.0659L116.609 77.8048L117.397 77.7932L117.401 78.0543L116.613 78.0659ZM118.454 78.04L118.45 77.779L119.239 77.7673L119.243 78.0284L118.454 78.04ZM120.295 78.0142L120.291 77.7531L121.08 77.7415L121.084 78.0026L120.295 78.0142ZM122.136 77.9884L122.133 77.7273L122.921 77.7157L122.925 77.9767L122.136 77.9884ZM123.978 77.9625L123.974 77.7014L124.762 77.6898L124.766 77.9509L123.978 77.9625ZM125.819 77.9367L125.815 77.6756L126.604 77.664L126.607 77.925L125.819 77.9367ZM127.66 77.9108L127.656 77.6497L128.445 77.6381L128.449 77.8992L127.66 77.9108ZM129.501 77.885L129.497 77.6239L130.286 77.6123L130.29 77.8733L129.501 77.885ZM131.343 77.8591L131.339 77.598L132.127 77.5864L132.131 77.8475L131.343 77.8591ZM133.184 77.8333L133.18 77.5722L133.968 77.5606L133.972 77.8216L133.184 77.8333ZM135.025 77.8074L135.021 77.5463L135.81 77.5347L135.814 77.7958L135.025 77.8074ZM136.866 77.7816L136.862 77.5205L137.651 77.5089L137.655 77.7699L136.866 77.7816ZM138.708 77.7557L138.704 77.4946L139.492 77.483L139.496 77.7441L138.708 77.7557ZM140.549 77.7299L140.545 77.4688L141.333 77.4572L141.337 77.7182L140.549 77.7299ZM142.39 77.704L142.386 77.443L143.175 77.4313L143.179 77.6924L142.39 77.704ZM144.231 77.6782L144.227 77.4171L145.016 77.4055L145.02 77.6665L144.231 77.6782ZM146.072 77.6523L146.069 77.3913L146.857 77.3796L146.861 77.6407L146.072 77.6523ZM147.914 77.6265L147.91 77.3654L148.698 77.3538L148.702 77.6148L147.914 77.6265ZM149.755 77.6006L149.751 77.3396L150.54 77.3279L150.543 77.589L149.755 77.6006ZM151.596 77.5748L151.592 77.3137L152.381 77.3021L152.385 77.5631L151.596 77.5748ZM153.437 77.5489L153.434 77.2879L154.222 77.2762L154.226 77.5373L153.437 77.5489ZM155.279 77.5231L155.275 77.262L156.063 77.2504L156.067 77.5114L155.279 77.5231ZM157.12 77.4972L157.116 77.2362L157.905 77.2245L157.908 77.4856L157.12 77.4972ZM158.961 77.4714L158.957 77.2103L159.746 77.1987L159.75 77.4598L158.961 77.4714ZM160.802 77.4455L160.798 77.1845L161.587 77.1728L161.591 77.4339L160.802 77.4455ZM162.644 77.4197L162.64 77.1586L163.428 77.147L163.432 77.4081L162.644 77.4197ZM164.485 77.3938L164.481 77.1328L165.269 77.1211L165.273 77.3822L164.485 77.3938ZM166.326 77.368L166.322 77.1069L167.111 77.0953L167.115 77.3564L166.326 77.368ZM168.167 77.3421L168.163 77.0811L168.952 77.0694L168.956 77.3305L168.167 77.3421ZM170.008 77.3163L170.005 77.0552L170.793 77.0436L170.797 77.3047L170.008 77.3163ZM171.85 77.2904L171.846 77.0294L172.634 77.0177L172.638 77.2788L171.85 77.2904ZM173.691 77.2646L173.687 77.0035L174.476 76.9919L174.48 77.253L173.691 77.2646ZM175.532 77.2388L175.528 76.9777L176.317 76.9661L176.321 77.2271L175.532 77.2388ZM177.373 77.2129L177.37 76.9518L178.158 76.9402L178.162 77.2013L177.373 77.2129Z" fill="white"/>
<path d="M68.3622 18.5915L74.7421 4.77686L80.2293 9.9685L68.3622 18.5915Z" fill="url(#paint1_linear_181_168)"/>
<path d="M63.1819 19.3449L62.5066 10.1829L66.9359 11.3435L63.1819 19.3449Z" fill="url(#paint2_linear_181_168)"/>
<path d="M71.6946 23.8375L77.0908 21.0019L77.9353 24.0869L71.6946 23.8375Z" fill="url(#paint3_linear_181_168)"/>
<path d="M16.666 28.2174L13.0798 26.0888L14.6608 24.764L16.666 28.2174Z" fill="url(#paint4_linear_181_168)"/>
<path d="M13.7379 33.6624L4.61245 35.1629L5.37366 30.6756L13.7379 33.6624Z" fill="url(#paint5_linear_181_168)"/>
<path d="M19.867 22.8359L16.0167 13.2022L21.4506 12.3505L19.867 22.8359Z" fill="url(#paint6_linear_181_168)"/>
<path d="M76.0562 42.7532C77.1597 39.2702 77.0244 36.1865 75.6516 33.5758C73.4083 29.3108 68.6731 28.1037 68.4922 28.0584C62.1253 26.4339 56.1202 27.0568 52.2425 27.8504C55.8352 17.9052 56.0733 10.3342 52.9452 5.32355C49.9368 0.506713 44.9661 0.027227 44.7566 0.00913322L44.6005 0.00137872C37.6272 -0.0942601 35.1353 4.80917 34.7905 7.42373L34.7736 7.62147C34.3871 17.2228 33.3266 20.1825 32.9909 20.892L32.9155 20.9346L32.6201 21.3973C27.436 29.5421 24.6332 38.7157 24.503 39.1487C23.8082 41.6495 22.0867 42.6628 20.9442 43.0673C20.6996 42.8359 20.4432 42.6162 20.1622 42.4262C18.2298 41.1144 16.17 41.3199 15.6118 41.4078L8.78815 42.2001C5.61056 42.4146 3.22151 43.4821 1.68607 45.373C-0.109622 47.5843 -0.0471628 50.1148 0.0296095 50.9278C-0.0432591 53.6703 0.367928 56.4683 0.42388 56.8328L2.17663 70.6694C2.75567 75.074 3.72379 77.8023 3.76542 77.916L3.86302 78.1461C5.95148 82.3684 9.83694 83.4747 12.6528 83.4747C13.3711 83.4747 14.0217 83.4023 14.5526 83.2924L17.8317 82.8517C21.1602 82.4847 23.5505 81.3138 24.9402 79.3764C30.4835 79.8417 36.1932 80.0045 41.445 80.0045C53.1885 80.0045 62.6341 79.1994 62.776 79.1864L62.9867 79.158C71.8806 77.5166 73.822 70.7689 73.6112 66.4135C75.4108 65.0345 76.539 63.3182 76.971 61.2955C77.5488 58.597 76.7095 56.0767 75.9535 54.5026C79.4537 50.3436 77.9144 45.5397 76.0549 42.7532H76.0562Z" fill="url(#paint7_linear_181_168)"/>
<path d="M76.0563 42.7532C77.1597 39.2702 77.0244 36.1865 75.6516 33.5758C73.4083 29.3108 68.6731 28.1037 68.4922 28.0584C62.1253 26.4339 56.1202 27.0568 52.2425 27.8504C55.8352 17.9052 56.0734 10.3342 52.9452 5.32355C49.9368 0.506713 44.9661 0.027227 44.7566 0.00913322L44.6005 0.00137872C37.6272 -0.0942601 35.1353 4.80917 34.7905 7.42373L34.7736 7.62147C34.3871 17.2228 33.3266 20.1825 32.9909 20.892L32.9155 20.9346L32.6201 21.3973C27.436 29.5421 24.6332 38.7157 24.503 39.1487C23.8082 41.6495 22.0867 42.6628 20.9442 43.0673C20.6996 42.8359 20.4432 42.6162 20.1622 42.4262C18.2298 41.1144 16.17 41.3199 15.6118 41.4078L8.78815 42.2001C5.61056 42.4146 3.22151 43.4821 1.68607 45.373C-0.109622 47.5843 -0.0471628 50.1148 0.0296095 50.9278C-0.0432591 53.6703 0.367928 56.4683 0.423881 56.8328L2.17663 70.6694C2.75567 75.074 3.72379 77.8023 3.76543 77.916L3.86302 78.1461C5.95148 82.3684 9.83694 83.4747 12.6528 83.4747C13.3711 83.4747 14.0217 83.4023 14.5526 83.2924L17.8317 82.8517C21.1602 82.4847 23.5505 81.3138 24.9389 79.3764C30.4822 79.8417 36.1919 80.0045 41.4437 80.0045C53.1872 80.0045 62.6328 79.1994 62.7747 79.1864L62.9855 79.158C71.8793 77.5166 73.8208 70.7689 73.61 66.4135C75.4096 65.0345 76.5377 63.3182 76.9697 61.2955C77.5475 58.597 76.7082 56.0767 75.9522 54.5026C79.4525 50.3436 77.9131 45.5397 76.0537 42.7532H76.0563ZM21.3346 76.8149C20.7204 77.6795 19.3398 78.2533 17.2904 78.4808L13.872 78.9396L13.6977 78.9693C13.2852 79.0559 9.66257 79.6944 7.90462 76.3237C7.73156 75.8003 7.02369 73.5205 6.57607 70.1098L4.82072 56.2538L4.81161 56.1905C4.80771 56.1633 4.38351 53.4157 4.46679 50.9135L4.47329 50.7132L4.44336 50.5142C4.44206 50.5013 4.30283 49.1675 5.13822 48.14C5.87211 47.2366 7.21627 46.7158 9.13428 46.593L16.183 45.7775L16.1804 45.7904L16.3157 45.7581C17.0522 45.6456 18.3508 45.8318 18.8102 48.3067L21.6664 75.0236L21.7132 75.2976C21.7145 75.3053 21.8394 76.1066 21.3359 76.8161L21.3346 76.8149ZM71.3849 55.3982C71.4031 55.4241 73.1558 57.9973 72.6301 60.3999C72.366 61.6057 71.5475 62.6022 70.1253 63.45L68.8319 64.2345L69.0817 65.7143C69.2118 66.4884 70.1253 73.2982 62.2802 74.8077C60.7239 74.9357 42.7761 76.356 26.1374 75.0546C26.1192 74.8039 26.0892 74.6009 26.0645 74.464L23.2109 47.7626L23.1901 47.6153C23.1511 47.3904 23.1003 47.1772 23.0496 46.9639C25.0847 46.098 27.6858 44.2576 28.7659 40.37C28.7919 40.2821 31.4399 31.6139 36.1893 24.039C37.1653 23.0284 38.7111 19.8464 39.2004 7.92131C39.2967 7.394 40.0332 4.40464 44.3805 4.40464H44.4209C44.8945 4.47314 47.5477 4.97072 49.2224 7.7184C50.953 10.5578 52.0252 16.4474 47.2979 28.3984L44.8126 34.8876L49.415 33.1687C49.5022 33.1364 58.1618 29.9699 67.394 32.3247C67.4239 32.3325 70.4415 33.1415 71.7362 35.6436C72.6301 37.3703 72.5521 39.6243 71.5046 42.3422L71.0478 43.5558L71.8793 44.5471C72.5143 45.3045 75.4941 49.2476 71.7518 52.4774L70.2645 53.7762L71.3849 55.3956V55.3982Z" fill="url(#paint8_linear_181_168)"/>
<path d="M102.612 56.6311V37.9259H107.332C108.185 37.9259 108.957 38.0035 109.644 38.1573C110.332 38.3111 110.924 38.5696 111.423 38.9314C111.921 39.2933 112.304 39.7818 112.573 40.3983C112.841 41.0148 112.976 41.7916 112.976 42.7311C112.976 43.4859 112.87 44.1321 112.656 44.6711C112.443 45.21 112.131 45.6378 111.719 45.9531C111.308 46.2685 110.794 46.4804 110.178 46.5877C110.936 46.7118 111.565 46.969 112.063 47.3619C112.561 47.7548 112.932 48.2666 113.178 48.8973C113.423 49.5293 113.546 50.2905 113.546 51.1835C113.546 52.0766 113.432 52.8663 113.203 53.55C112.974 54.2349 112.634 54.8049 112.183 55.2585C111.732 55.7135 111.17 56.0547 110.499 56.286C109.826 56.5173 109.04 56.6324 108.139 56.6324H102.612V56.6311ZM106.123 45.5693H107.308C108.004 45.5693 108.542 45.4698 108.921 45.2694C109.301 45.0691 109.565 44.7615 109.716 44.3454C109.865 43.9292 109.941 43.4071 109.941 42.7751C109.941 42.1431 109.826 41.6016 109.597 41.2397C109.368 40.8778 109.023 40.6323 108.565 40.5004C108.106 40.3699 107.522 40.304 106.81 40.304H106.122V45.5693H106.123ZM106.123 54.2285H107.451C108.511 54.2285 109.23 53.979 109.61 53.4776C109.99 52.9774 110.179 52.2033 110.179 51.1564C110.179 50.4029 110.088 49.7903 109.906 49.3212C109.723 48.852 109.423 48.5018 109.004 48.2704C108.585 48.0391 108.028 47.9241 107.332 47.9241H106.122V54.2285H106.123Z" fill="white"/>
<path d="M115.822 56.6311V37.9259H123.886V40.3272H119.332V45.7076H122.913V48.0856H119.332V54.2737H123.933V56.6285H115.821L115.822 56.6311Z" fill="white"/>
<path d="M130.812 56.8857C129.658 56.8857 128.693 56.666 127.918 56.2278C127.143 55.7884 126.559 55.1461 126.163 54.2995C125.768 53.453 125.546 52.4139 125.499 51.1822L128.512 50.6045C128.543 51.3283 128.634 51.9667 128.785 52.5212C128.935 53.0756 129.165 53.5021 129.473 53.8033C129.782 54.1031 130.189 54.253 130.695 54.253C131.264 54.253 131.667 54.0876 131.905 53.7567C132.142 53.4259 132.261 53.0058 132.261 52.4979C132.261 51.6824 132.071 51.0129 131.692 50.4895C131.312 49.9661 130.806 49.4426 130.173 48.9192L127.755 46.841C127.074 46.271 126.533 45.6365 126.129 44.936C125.726 44.2355 125.524 43.3696 125.524 42.3382C125.524 40.8597 125.967 39.7211 126.853 38.9211C127.738 38.1211 128.948 37.7204 130.482 37.7204C131.384 37.7204 132.134 37.8548 132.736 38.1249C133.337 38.3951 133.814 38.7686 134.171 39.2455C134.526 39.7224 134.792 40.2652 134.966 40.8739C135.14 41.4826 135.251 42.125 135.298 42.8022L132.309 43.3101C132.276 42.7247 132.21 42.2012 132.107 41.7398C132.004 41.2784 131.822 40.9166 131.562 40.6542C131.3 40.3931 130.918 40.2613 130.412 40.2613C129.905 40.2613 129.49 40.4267 129.213 40.7576C128.936 41.0885 128.798 41.5007 128.798 41.9932C128.798 42.6251 128.932 43.1447 129.201 43.5518C129.47 43.9602 129.857 44.379 130.363 44.8106L132.759 46.8656C133.549 47.5118 134.225 48.2704 134.786 49.1402C135.347 50.01 135.628 51.0607 135.628 52.2924C135.628 53.1855 135.427 53.9777 135.023 54.6705C134.62 55.3632 134.059 55.906 133.339 56.2989C132.62 56.6918 131.778 56.8883 130.814 56.8883L130.812 56.8857Z" fill="white"/>
<path d="M139.611 56.6311V40.4436H136.552V37.9259H146.134V40.4436H143.122V56.6311H139.611Z" fill="white"/>
<path d="M105.433 73.8834C104.496 73.8834 103.761 73.7011 103.23 73.3341C102.698 72.9683 102.327 72.4682 102.116 71.8362C101.906 71.2029 101.8 70.474 101.8 69.6481V65.1143C101.8 64.2458 101.906 63.4936 102.116 62.8552C102.327 62.2167 102.698 61.7256 103.23 61.3805C103.762 61.0355 104.496 60.8623 105.433 60.8623C106.318 60.8623 107.01 61.0109 107.51 61.3095C108.01 61.608 108.365 62.0332 108.576 62.5877C108.786 63.1421 108.892 63.7857 108.892 64.5172V65.5848H106.649V64.4862C106.649 64.1308 106.63 63.8064 106.594 63.513C106.557 63.2209 106.457 62.987 106.293 62.8151C106.129 62.6419 105.848 62.5566 105.449 62.5566C105.049 62.5566 104.757 62.6484 104.572 62.8306C104.387 63.0142 104.269 63.2597 104.217 63.5686C104.163 63.8775 104.137 64.2251 104.137 64.6116V70.1341C104.137 70.5942 104.174 70.9741 104.248 71.2714C104.322 71.57 104.456 71.7948 104.651 71.946C104.846 72.0973 105.112 72.1735 105.449 72.1735C105.838 72.1735 106.115 72.0817 106.278 71.8995C106.44 71.7173 106.543 71.473 106.586 71.1693C106.628 70.8656 106.65 70.5257 106.65 70.1496V69.0045H108.893V70.0242C108.893 70.7777 108.793 71.4446 108.593 72.0249C108.392 72.6052 108.042 73.0601 107.542 73.3897C107.043 73.7192 106.339 73.8834 105.433 73.8834Z" fill="white"/>
<path d="M110.551 73.7102V61.0019H112.874V66.3202H115.48V61.0019H117.818V73.7102H115.48V67.968H112.874V73.7102H110.551Z" fill="white"/>
<path d="M123.251 73.8834C122.345 73.8834 121.624 73.7154 121.087 73.3819C120.549 73.0472 120.165 72.5664 119.934 71.9383C119.702 71.3102 119.586 70.5683 119.586 69.7102V64.9567C119.586 64.0985 119.702 63.3644 119.934 62.7518C120.165 62.1405 120.549 61.6713 121.087 61.3482C121.624 61.0238 122.345 60.8623 123.251 60.8623C124.156 60.8623 124.907 61.0251 125.438 61.3482C125.97 61.6726 126.354 62.1405 126.591 62.7518C126.828 63.3631 126.946 64.0985 126.946 64.9567V69.7257C126.946 70.5735 126.828 71.3076 126.591 71.9305C126.354 72.5535 125.969 73.0343 125.438 73.3742C124.906 73.7141 124.177 73.8847 123.251 73.8847V73.8834ZM123.251 72.1735C123.64 72.1735 123.927 72.0895 124.112 71.9228C124.296 71.7561 124.42 71.526 124.483 71.2326C124.547 70.9405 124.578 70.6213 124.578 70.2749V64.4229C124.578 64.0675 124.547 63.7482 124.483 63.4652C124.419 63.1822 124.296 62.9612 124.112 62.7983C123.927 62.6368 123.641 62.5553 123.251 62.5553C122.882 62.5553 122.603 62.6368 122.414 62.7983C122.224 62.9612 122.098 63.1822 122.035 63.4652C121.972 63.747 121.94 64.0662 121.94 64.4229V70.2749C121.94 70.62 121.969 70.9392 122.028 71.2326C122.085 71.526 122.21 71.7561 122.398 71.9228C122.588 72.0908 122.872 72.1735 123.252 72.1735H123.251Z" fill="white"/>
<path d="M128.733 73.7102V61.0019H131.039V73.7102H128.733Z" fill="white"/>
<path d="M136.457 73.8834C135.52 73.8834 134.785 73.7011 134.254 73.3341C133.722 72.9683 133.351 72.4682 133.14 71.8362C132.929 71.2029 132.824 70.474 132.824 69.6481V65.1143C132.824 64.2458 132.929 63.4936 133.14 62.8552C133.351 62.2167 133.722 61.7256 134.254 61.3805C134.786 61.0355 135.52 60.8623 136.457 60.8623C137.342 60.8623 138.034 61.0109 138.534 61.3095C139.033 61.608 139.389 62.0332 139.599 62.5877C139.81 63.1421 139.916 63.7857 139.916 64.5172V65.5848H137.672V64.4862C137.672 64.1308 137.654 63.8064 137.618 63.513C137.581 63.2209 137.481 62.987 137.317 62.8151C137.153 62.6419 136.872 62.5566 136.473 62.5566C136.073 62.5566 135.78 62.6484 135.596 62.8306C135.411 63.0142 135.292 63.2597 135.24 63.5686C135.187 63.8775 135.161 64.2251 135.161 64.6116V70.1341C135.161 70.5942 135.197 70.9741 135.272 71.2714C135.346 71.57 135.48 71.7948 135.675 71.946C135.87 72.0973 136.136 72.1735 136.473 72.1735C136.862 72.1735 137.139 72.0817 137.302 71.8995C137.464 71.7173 137.567 71.473 137.61 71.1693C137.652 70.8656 137.674 70.5257 137.674 70.1496V69.0045H139.917V70.0242C139.917 70.7777 139.817 71.4446 139.616 72.0249C139.416 72.6052 139.066 73.0601 138.566 73.3897C138.067 73.7192 137.363 73.8834 136.457 73.8834Z" fill="white"/>
<path d="M141.543 73.7102V61.0019H146.914V62.6329H143.88V66.2879H146.266V67.9034H143.88V72.1076H146.945V73.7077H141.542L141.543 73.7102Z" fill="white"/>
<defs>
<linearGradient id="paint0_linear_181_168" x1="160.432" y1="101.514" x2="70.179" y2="10.6466" gradientUnits="userSpaceOnUse">
<stop offset="0.1" stop-color="#B54294"/>
<stop offset="0.46" stop-color="#B13D92"/>
<stop offset="0.76" stop-color="#9D2B8E"/>
</linearGradient>
<linearGradient id="paint1_linear_181_168" x1="69.775" y1="8.88278" x2="74.5492" y2="14.6632" gradientUnits="userSpaceOnUse">
<stop offset="0.1" stop-color="#B54294"/>
<stop offset="0.46" stop-color="#B13D92"/>
<stop offset="0.76" stop-color="#9D2B8E"/>
</linearGradient>
<linearGradient id="paint2_linear_181_168" x1="61.4608" y1="11.0491" x2="66.2333" y2="16.8271" gradientUnits="userSpaceOnUse">
<stop offset="0.1" stop-color="#B54294"/>
<stop offset="0.46" stop-color="#B13D92"/>
<stop offset="0.76" stop-color="#9D2B8E"/>
</linearGradient>
<linearGradient id="paint3_linear_181_168" x1="73.9922" y1="21.9415" x2="76.6453" y2="25.1549" gradientUnits="userSpaceOnUse">
<stop offset="0.1" stop-color="#B54294"/>
<stop offset="0.46" stop-color="#B13D92"/>
<stop offset="0.76" stop-color="#9D2B8E"/>
</linearGradient>
<linearGradient id="paint4_linear_181_168" x1="13.7786" y1="25.2694" x2="15.766" y2="28.7344" gradientUnits="userSpaceOnUse">
<stop offset="0.1" stop-color="#B54294"/>
<stop offset="0.46" stop-color="#B13D92"/>
<stop offset="0.76" stop-color="#9D2B8E"/>
</linearGradient>
<linearGradient id="paint5_linear_181_168" x1="6.59551" y1="29.9751" x2="9.95336" y2="35.8327" gradientUnits="userSpaceOnUse">
<stop offset="0.1" stop-color="#B54294"/>
<stop offset="0.46" stop-color="#B13D92"/>
<stop offset="0.76" stop-color="#9D2B8E"/>
</linearGradient>
<linearGradient id="paint6_linear_181_168" x1="17.5834" y1="12.304" x2="22.6929" y2="21.2142" gradientUnits="userSpaceOnUse">
<stop offset="0.1" stop-color="#B54294"/>
<stop offset="0.46" stop-color="#B13D92"/>
<stop offset="0.76" stop-color="#9D2B8E"/>
</linearGradient>
<linearGradient id="paint7_linear_181_168" x1="15.7835" y1="14.6354" x2="55.7712" y2="84.3677" gradientUnits="userSpaceOnUse">
<stop stop-color="white"/>
<stop offset="0.97" stop-color="#F2F2F2"/>
<stop offset="1"/>
</linearGradient>
<linearGradient id="paint8_linear_181_168" x1="15.7835" y1="14.6354" x2="55.7712" y2="84.3677" gradientUnits="userSpaceOnUse">
<stop offset="0.1" stop-color="#B54294"/>
<stop offset="0.46" stop-color="#B13D92"/>
<stop offset="0.76" stop-color="#9D2B8E"/>
</linearGradient>
</defs>
</svg>
