<svg width="112" height="34" viewBox="0 0 112 34" fill="none" xmlns="http://www.w3.org/2000/svg">
<g clip-path="url(#clip0_39_63)">
<path d="M48.004 26.2497C47.2112 26.2497 46.8147 25.8233 46.8147 24.9706V17.9238H46.1469C45.3257 17.9238 44.9175 17.5709 44.9175 16.8602C44.9175 16.1496 45.203 15.8204 45.7741 15.8204H46.8171V13.9562C46.8171 12.6701 47.1026 11.7818 47.6737 11.2891C48.2424 10.7988 49.0565 10.5525 50.1136 10.5525C50.6422 10.5525 51.0835 10.6212 51.4375 10.7585C51.7914 10.8959 51.9613 11.2038 51.9472 11.68C51.9472 11.9831 51.8858 12.2366 51.7607 12.4379C51.6357 12.6416 51.3785 12.7411 50.9891 12.7411C50.9042 12.7411 50.8074 12.734 50.6965 12.7198C50.5856 12.7056 50.4865 12.6985 50.4039 12.6985C49.5709 12.6985 49.1532 13.2196 49.1532 14.2594V15.8204H50.7177C51.5389 15.8204 51.9472 16.1686 51.9472 16.8602C51.9472 17.5519 51.5436 17.9238 50.739 17.9238H49.1532V24.9706C49.1532 25.8233 48.771 26.2497 48.0064 26.2497H48.004Z" fill="#3759A8"/>
<path d="M56.7634 26.4037C55.6803 26.4463 54.7859 26.1999 54.0827 25.667C53.3795 25.1317 53.0303 24.3595 53.0303 23.3481C53.0303 22.6114 53.245 21.9813 53.6768 21.4626C54.1087 20.9415 54.6632 20.5341 55.3452 20.238C56.0271 19.9419 56.728 19.7856 57.4524 19.7714C57.8135 19.7429 58.1556 19.7714 58.4742 19.859C58.7951 19.9466 59.0806 20.0698 59.3308 20.2261V19.3166C59.3308 18.6368 59.1915 18.1962 58.9131 17.9949C58.6346 17.7911 58.224 17.6917 57.6837 17.6917C57.2943 17.6917 56.8884 17.7414 56.4637 17.8433C56.0389 17.9451 55.626 18.0825 55.2225 18.2554C54.8614 18.4141 54.5523 18.471 54.2951 18.4283C54.0379 18.3833 53.8255 18.2104 53.6603 17.9072C53.4928 17.604 53.455 17.3127 53.5447 17.0308C53.6344 16.7489 53.868 16.5286 54.2432 16.3699C54.7434 16.1236 55.2885 15.9294 55.8808 15.7849C56.4708 15.6404 57.0725 15.567 57.6837 15.567C58.9768 15.567 59.949 15.837 60.6027 16.3794C61.2563 16.9218 61.5843 17.9001 61.5843 19.3166V24.1084C61.5843 24.2529 61.6008 24.369 61.6362 24.4542C61.6716 24.5419 61.7023 24.6058 61.7306 24.6485C61.8557 24.8356 61.9925 24.9446 62.1388 24.973C62.2851 25.0014 62.4126 25.0203 62.5235 25.0275C62.6344 25.0346 62.691 25.1033 62.691 25.2335C62.691 25.4941 62.6249 25.7191 62.4928 25.9062C62.3607 26.0934 62.1412 26.2236 61.8344 26.2971C61.5135 26.3681 61.202 26.406 60.8953 26.406C60.4634 26.406 60.1354 26.3302 59.9042 26.1786C59.6753 26.027 59.5125 25.7712 59.4134 25.4088C59.0665 25.712 58.663 25.9465 58.2052 26.1123C57.745 26.2781 57.266 26.3752 56.7657 26.406L56.7634 26.4037ZM56.7233 24.279C57.502 24.2505 58.1438 24.0918 58.6512 23.8028C59.1585 23.5139 59.3992 23.1017 59.3709 22.5664C59.3567 22.2182 59.1868 21.9813 58.8588 21.8511C58.5332 21.7208 58.1249 21.671 57.6388 21.6995C56.9569 21.7137 56.3953 21.8913 55.9493 22.23C55.5033 22.5688 55.2885 22.9501 55.3027 23.367C55.331 24.0184 55.803 24.3216 56.7209 24.2766L56.7233 24.279Z" fill="#3759A8"/>
<path d="M69.5696 26.4889C68.3874 26.4889 67.4553 25.9536 66.7757 24.8853V25.3188C66.7757 25.6646 66.6672 25.9086 66.4524 26.046C66.2377 26.1834 65.9687 26.252 65.6501 26.252C64.954 26.252 64.6071 25.8257 64.6071 24.973V12.0708C64.6071 11.218 65.0035 10.7917 65.7964 10.7917C66.5893 10.7917 66.9645 11.218 66.9645 12.0708V16.7536C67.2996 16.3794 67.6866 16.0857 68.1326 15.8749C68.5785 15.6664 69.0576 15.5598 69.572 15.5598C70.5041 15.5598 71.3347 15.7778 72.0639 16.2112C72.7954 16.6447 73.3688 17.27 73.7841 18.0872C74.2018 18.9044 74.4094 19.8827 74.4094 21.0244C74.4094 22.1661 74.1994 23.1467 73.7841 23.9615C73.3664 24.7787 72.793 25.4041 72.0639 25.8375C71.3347 26.271 70.5041 26.4889 69.572 26.4889H69.5696ZM69.4847 24.2766C70.2209 24.2766 70.8344 23.9947 71.3206 23.431C71.8067 22.8672 72.0521 22.0642 72.0521 21.0244C72.0521 19.9845 71.809 19.1815 71.3206 18.6178C70.8344 18.0541 70.2233 17.7722 69.4847 17.7722C68.7461 17.7722 68.1349 18.0541 67.6488 18.6178C67.1627 19.1815 66.9197 19.9845 66.9197 21.0244C66.9197 22.0642 67.1627 22.8672 67.6488 23.431C68.1349 23.9947 68.7461 24.2766 69.4847 24.2766Z" fill="#3759A8"/>
<path d="M80.5377 26.4889C79.5513 26.4889 78.7962 26.3018 78.2747 25.9252C77.7532 25.5486 77.4936 24.7977 77.4936 23.6702V17.9261H76.8046C75.9834 17.9261 75.5752 17.5732 75.5752 16.8626C75.5752 16.531 75.6625 16.2728 75.8371 16.0928C76.0117 15.9128 76.3279 15.8228 76.7857 15.8228H77.4936V13.4375C77.4936 12.5848 77.8901 12.1584 78.6829 12.1584C79.4758 12.1584 79.8298 12.5848 79.8298 13.4375V15.8228H81.373C82.1942 15.8228 82.6024 16.171 82.6024 16.8626C82.6024 17.5543 82.1989 17.9261 81.3943 17.9261H79.8298V23.0425C79.8298 23.5328 79.9454 23.8668 80.1743 24.0397C80.4032 24.2126 80.7335 24.3003 81.1654 24.3003C81.5972 24.3003 81.9606 24.3547 82.2178 24.4637C82.475 24.5727 82.6024 24.8498 82.6024 25.2975C82.6024 25.6599 82.501 25.9228 82.3004 26.0886C82.0975 26.2544 81.8403 26.3634 81.5288 26.4131C81.2173 26.4629 80.8869 26.4889 80.5377 26.4889Z" fill="#EFBF1B"/>
<path d="M88.7779 26.4889C87.8599 26.4889 87.0364 26.2615 86.3072 25.8068C85.5781 25.352 84.9999 24.7148 84.5775 23.9C84.1528 23.0828 83.9428 22.1258 83.9428 21.0268C83.9428 19.9277 84.1552 18.9708 84.5775 18.1536C85.0023 17.3364 85.5781 16.7016 86.3072 16.2444C87.0387 15.7896 87.8599 15.5622 88.7779 15.5622C89.6958 15.5622 90.5595 15.7896 91.291 16.2444C92.0201 16.6992 92.5936 17.3364 93.0112 18.1536C93.4289 18.9708 93.6366 19.9277 93.6366 21.0268C93.6366 22.1258 93.4265 23.0828 93.0112 23.9C92.5936 24.7148 92.0201 25.352 91.291 25.8068C90.5595 26.2615 89.7241 26.4889 88.7779 26.4889ZM88.7779 24.2766C89.5141 24.2766 90.1158 23.9947 90.5807 23.431C91.0456 22.8672 91.2792 22.0642 91.2792 21.0244C91.2792 19.9845 91.0456 19.1816 90.5807 18.6178C90.1158 18.0541 89.5141 17.7722 88.7779 17.7722C88.0416 17.7722 87.4635 18.0541 87.0057 18.6178C86.5456 19.1816 86.3167 19.9845 86.3167 21.0244C86.3167 22.0642 86.5456 22.8672 87.0057 23.431C87.4635 23.9947 88.0558 24.2766 88.7779 24.2766Z" fill="#F0A124"/>
<path d="M96.8482 26.2497C96.0553 26.2497 95.6588 25.8233 95.6588 24.9706V17.0995C95.6588 16.2468 96.0694 15.8204 96.8883 15.8204C97.1667 15.8204 97.4098 15.8891 97.6198 16.0265C97.8274 16.1639 97.9313 16.4197 97.9313 16.7963V17.2961C98.1814 16.775 98.5731 16.3557 99.1111 16.0383C99.6468 15.7209 100.213 15.5622 100.81 15.5622C101.242 15.5622 101.57 15.6807 101.801 15.9199C102.03 16.1591 102.146 16.4813 102.146 16.8839C102.146 17.2606 102.056 17.5353 101.874 17.7082C101.693 17.8812 101.485 17.9546 101.249 17.9238C101.138 17.9096 101.02 17.9001 100.895 17.8906C100.77 17.8812 100.631 17.8788 100.477 17.8788C99.7955 17.8788 99.215 18.1109 98.7359 18.5728C98.2569 19.0347 98.0162 19.6861 98.0162 20.5246V24.9682C98.0162 25.821 97.6269 26.2473 96.8482 26.2473V26.2497Z" fill="#F18221"/>
<path d="M104.878 30.5654H104.314C103.925 30.537 103.632 30.4114 103.439 30.1864C103.245 29.9614 103.146 29.67 103.146 29.31C103.146 28.5876 103.382 28.2607 103.854 28.3341C103.993 28.3483 104.126 28.3602 104.251 28.3673C104.376 28.3744 104.501 28.3791 104.626 28.3791C105.001 28.3791 105.282 28.3365 105.471 28.2488C105.657 28.1612 105.808 28.0167 105.919 27.8154C106.03 27.6117 106.155 27.3393 106.294 26.9911L106.566 26.2307L103.168 17.2984C103 16.8365 102.981 16.4741 103.106 16.2136C103.231 15.953 103.474 15.8228 103.835 15.8228H103.982C104.69 15.8228 105.157 16.1638 105.379 16.8413L107.59 23.303L109.654 16.8626C109.89 16.1686 110.355 15.8228 111.051 15.8228C111.455 15.8228 111.733 15.953 111.884 16.2136C112.038 16.4741 112.038 16.8365 111.884 17.2984L108.298 27.7064C107.962 28.661 107.557 29.3763 107.078 29.8524C106.596 30.3285 105.865 30.5678 104.878 30.5678V30.5654Z" fill="#CF264B"/>
<path d="M18.328 10.4174H18.3139C14.4486 10.408 11.6524 6.34094 11.5367 6.16803C11.3881 5.94774 11.4447 5.64929 11.6642 5.50006C11.8836 5.35083 12.1809 5.40768 12.3296 5.62797C12.3556 5.66587 14.9631 9.45101 18.321 9.45575H18.328C20.2866 9.45575 22.1603 8.16719 23.897 5.6256C24.048 5.40531 24.3454 5.35083 24.5648 5.50006C24.7819 5.65166 24.8385 5.95011 24.6899 6.1704C22.7643 8.98912 20.6241 10.4198 18.3304 10.4198L18.328 10.4174Z" fill="#F0A124"/>
<path d="M30.2943 21.4673C30.1739 21.4673 30.0559 21.4223 29.9686 21.3394L27.2408 18.7978C27.0473 18.6178 27.0355 18.3123 27.2148 18.118C27.3965 17.9238 27.6986 17.912 27.8921 18.092L30.2589 20.2972L34.6314 15.2969L29.9238 9.58605C29.7539 9.38234 29.7822 9.07915 29.9875 8.90861C30.1904 8.74043 30.4948 8.76885 30.6624 8.97256L35.632 14.9985C35.783 15.1809 35.7783 15.4462 35.6225 15.6238L30.6529 21.3039C30.568 21.401 30.4453 21.4602 30.3179 21.4673C30.3108 21.4673 30.3013 21.4673 30.2943 21.4673Z" fill="#CF264B"/>
<path d="M5.44864 20.7757C5.32121 20.7757 5.19615 20.7259 5.10412 20.6288L0.134519 15.4675C-0.0377418 15.2898 -0.044821 15.0103 0.113281 14.8208L5.08288 8.96782C5.25514 8.76648 5.55718 8.74043 5.75776 8.91334C5.95834 9.08625 5.9843 9.38944 5.81204 9.59078L1.12797 15.1122L5.51707 19.6719L7.89568 18.0991C8.11749 17.9522 8.41482 18.0138 8.55877 18.2365C8.70507 18.4591 8.64371 18.7576 8.4219 18.9021L5.71057 20.6951C5.63034 20.7496 5.53831 20.7757 5.44628 20.7757H5.44864Z" fill="#CF264B"/>
<path d="M26.5659 34H9.17463C8.91034 34 8.69796 33.7868 8.6956 33.5239C8.49975 11.3412 5.27871 9.23784 5.24568 9.21889C5.07342 9.15493 4.97195 9.00808 4.95307 8.82569C4.93419 8.6433 5.04038 8.47276 5.19376 8.37564C19.4017 -0.56612 30.4877 8.32116 30.5986 8.41117C30.719 8.51065 30.7851 8.66462 30.7733 8.82095C30.7615 8.97728 30.6742 9.1194 30.5396 9.19757C27.977 10.7206 27.0472 24.5774 27.0472 33.5192C27.0472 33.7844 26.8325 34 26.5682 34H26.5659ZM9.64894 33.0359H26.0892C26.1081 29.3716 26.3629 12.3716 29.525 8.81384C27.3705 7.32868 17.9812 1.80493 6.22968 8.86596C7.33168 10.2777 9.4578 15.2945 9.6513 33.0359H9.64894Z" fill="#3759A8"/>
<path d="M13.7407 7.73848C13.6699 7.73848 13.5991 7.7219 13.5307 7.68874C13.2924 7.57267 13.1933 7.28369 13.3113 7.04446C13.6298 6.39307 14.4652 4.5076 14.5242 3.63356C14.5265 3.5933 14.5336 3.55303 14.5478 3.51276C14.595 3.37301 15.704 0.111339 18.0284 0.0165917C18.4201 -0.0449939 20.4494 -0.15869 21.8676 3.70936C21.8771 3.73542 21.8842 3.76147 21.8889 3.78753C22.0847 4.85343 22.5142 6.53993 22.854 6.94497C23.0239 7.14868 22.998 7.45187 22.795 7.62242C22.5921 7.79296 22.29 7.76691 22.1201 7.5632C21.5137 6.83601 21.0583 4.55735 20.9544 4.00308C19.7344 0.705877 18.2006 0.961694 18.1841 0.966431C18.1581 0.971169 18.1204 0.975906 18.0921 0.978275C16.7305 1.01381 15.763 2.95138 15.4775 3.76384C15.3619 5.00029 14.2976 7.215 14.1749 7.46608C14.0923 7.63663 13.9201 7.73611 13.7431 7.73611L13.7407 7.73848Z" fill="#CF264B"/>
</g>
<defs>
<clipPath id="clip0_39_63">
<rect width="112" height="34" fill="white"/>
</clipPath>
</defs>
</svg>
