<svg width="55" height="55" viewBox="0 0 55 55" fill="none" xmlns="http://www.w3.org/2000/svg">
<path d="M9.66625 20.9089C9.0066 19.53 9.46896 17.8845 10.7463 17.0654L25.3882 7.67541C26.3472 7.06039 27.5756 7.04075 28.5642 7.62464L44.7735 17.1977C46.1677 18.0211 46.6821 19.7867 45.9438 21.2144L29.9626 52.1172C28.817 54.3326 25.6201 54.2605 24.5363 51.9948L9.66625 20.9089Z" fill="#A4FF84"/>
<path fill-rule="evenodd" clip-rule="evenodd" d="M27.2864 52.5098C28.2263 52.4378 29.141 51.918 29.6507 50.9456L45.2079 21.2667C45.9266 19.8955 45.4513 18.2131 44.1266 17.4391L28.725 8.44038C28.2807 8.18084 27.7841 8.05076 27.2864 8.04883V52.5098Z" fill="#91D779"/>
<path fill-rule="evenodd" clip-rule="evenodd" d="M38.3696 21.563C38.6851 21.7571 38.7835 22.1702 38.5893 22.4857L27.4599 40.571L23.5137 37.4141C23.2245 37.1826 23.1776 36.7606 23.409 36.4713C23.6404 36.182 24.0625 36.1351 24.3517 36.3666L27.1128 38.5754L37.4469 21.7827C37.641 21.4672 38.0541 21.3688 38.3696 21.563Z" fill="white"/>
</svg>
