<svg width="183" height="55" viewBox="0 0 183 55" fill="none" xmlns="http://www.w3.org/2000/svg">
<g clip-path="url(#clip0_47_209)">
<path d="M78.4351 42.4628C77.1396 42.4628 76.4919 41.7731 76.4919 40.3937V28.9944H75.4008C74.059 28.9944 73.392 28.4235 73.392 27.274C73.392 26.1245 73.8585 25.5919 74.7916 25.5919H76.4957V22.5763C76.4957 20.4957 76.9623 19.0588 77.8953 18.2618C78.8246 17.4687 80.1547 17.0702 81.8821 17.0702C82.7457 17.0702 83.4667 17.1813 84.0451 17.4035C84.6234 17.6258 84.901 18.1239 84.8779 18.8941C84.8779 19.3845 84.7777 19.7945 84.5733 20.1202C84.369 20.4497 83.9487 20.6107 83.3125 20.6107C83.1737 20.6107 83.0156 20.5992 82.8344 20.5762C82.6532 20.5532 82.4913 20.5417 82.3563 20.5417C80.9953 20.5417 80.3128 21.3847 80.3128 23.0668V25.5919H82.8691C84.2109 25.5919 84.8779 26.1551 84.8779 27.274C84.8779 28.3928 84.2186 28.9944 82.9038 28.9944H80.3128V40.3937C80.3128 41.7731 79.6882 42.4628 78.439 42.4628H78.4351Z" fill="#3759A8"/>
<path d="M92.7473 42.7118C90.9776 42.7808 89.5163 42.3823 88.3673 41.5202C87.2183 40.6542 86.6477 39.4051 86.6477 37.769C86.6477 36.5773 86.9986 35.5581 87.7042 34.7189C88.4097 33.876 89.3158 33.2169 90.4301 32.738C91.5444 32.259 92.6895 32.0061 93.8732 31.9831C94.4631 31.9371 95.0221 31.9831 95.5427 32.1249C96.067 32.2667 96.5336 32.4659 96.9422 32.7188V31.2474C96.9422 30.1477 96.7148 29.4351 96.2598 29.1094C95.8048 28.7798 95.134 28.6189 94.251 28.6189C93.6148 28.6189 92.9517 28.6994 92.2577 28.8641C91.5636 29.0289 90.8889 29.2511 90.2296 29.5308C89.6397 29.7876 89.1346 29.8795 88.7143 29.8106C88.2941 29.7378 87.9471 29.458 87.6772 28.9676C87.4034 28.4771 87.3417 28.0058 87.4882 27.5499C87.6348 27.0939 88.0165 26.7375 88.6295 26.4808C89.4469 26.0823 90.3375 25.7681 91.3053 25.5344C92.2692 25.3007 93.2524 25.1819 94.251 25.1819C96.3639 25.1819 97.9524 25.6187 99.0204 26.4962C100.088 27.3736 100.624 28.9561 100.624 31.2474V38.9989C100.624 39.2327 100.651 39.4204 100.709 39.5584C100.767 39.7001 100.817 39.8036 100.863 39.8726C101.068 40.1753 101.291 40.3515 101.53 40.3975C101.77 40.4435 101.978 40.4741 102.159 40.4856C102.34 40.4971 102.433 40.6082 102.433 40.819C102.433 41.2405 102.325 41.6045 102.109 41.9072C101.893 42.2099 101.534 42.4206 101.033 42.5394C100.509 42.6544 99.9998 42.7157 99.4985 42.7157C98.793 42.7157 98.257 42.5931 97.8792 42.3478C97.5052 42.1026 97.2391 41.6888 97.0772 41.1025C96.5104 41.593 95.8511 41.9723 95.1031 42.2405C94.3513 42.5088 93.5686 42.6659 92.7512 42.7157L92.7473 42.7118ZM92.6818 39.2748C93.9541 39.2288 95.0029 38.9721 95.8318 38.5047C96.6608 38.0372 97.0541 37.3705 97.0078 36.5045C96.9847 35.9413 96.7071 35.5581 96.1711 35.3473C95.639 35.1366 94.972 35.0561 94.1778 35.1021C93.0635 35.1251 92.1458 35.4125 91.4171 35.9604C90.6884 36.5083 90.3375 37.1252 90.3607 37.7996C90.407 38.8533 91.1781 39.3438 92.6779 39.271L92.6818 39.2748Z" fill="#3759A8"/>
<path d="M113.672 42.8497C111.74 42.8497 110.217 41.9838 109.107 40.2557V40.9569C109.107 41.5163 108.929 41.911 108.579 42.1332C108.228 42.3554 107.788 42.4666 107.268 42.4666C106.13 42.4666 105.563 41.7769 105.563 40.3974V19.5263C105.563 18.1469 106.211 17.4572 107.507 17.4572C108.802 17.4572 109.415 18.1469 109.415 19.5263V27.1015C109.963 26.4961 110.595 26.021 111.324 25.6799C112.053 25.3428 112.835 25.1703 113.676 25.1703C115.199 25.1703 116.556 25.5229 117.747 26.224C118.943 26.9252 119.879 27.9368 120.558 29.2587C121.24 30.5807 121.58 32.1632 121.58 34.01C121.58 35.8569 121.237 37.4432 120.558 38.7613C119.876 40.0833 118.939 41.0948 117.747 41.796C116.556 42.4972 115.199 42.8497 113.676 42.8497H113.672ZM113.533 39.2709C114.736 39.2709 115.738 38.815 116.533 37.903C117.327 36.9911 117.728 35.6921 117.728 34.01C117.728 32.3279 117.331 31.029 116.533 30.117C115.738 29.2051 114.74 28.7491 113.533 28.7491C112.326 28.7491 111.328 29.2051 110.533 30.117C109.739 31.029 109.342 32.3279 109.342 34.01C109.342 35.6921 109.739 36.9911 110.533 37.903C111.328 38.815 112.326 39.2709 113.533 39.2709Z" fill="#3759A8"/>
<path d="M131.593 42.8498C129.981 42.8498 128.747 42.5471 127.895 41.9378C127.043 41.3286 126.619 40.114 126.619 38.2901V28.9982H125.493C124.151 28.9982 123.484 28.4273 123.484 27.2778C123.484 26.7414 123.627 26.3237 123.912 26.0325C124.198 25.7413 124.714 25.5957 125.462 25.5957H126.619V21.7372C126.619 20.3578 127.267 19.6681 128.562 19.6681C129.858 19.6681 130.436 20.3578 130.436 21.7372V25.5957H132.958C134.299 25.5957 134.966 26.159 134.966 27.2778C134.966 28.3967 134.307 28.9982 132.992 28.9982H130.436V37.2747C130.436 38.0678 130.625 38.6081 130.999 38.8878C131.373 39.1675 131.913 39.3093 132.618 39.3093C133.324 39.3093 133.918 39.3974 134.338 39.5737C134.758 39.75 134.966 40.1983 134.966 40.9224C134.966 41.5087 134.801 41.934 134.473 42.2022C134.141 42.4704 133.721 42.6467 133.212 42.7272C132.703 42.8076 132.163 42.8498 131.593 42.8498Z" fill="#EFBF1B"/>
<path d="M145.057 42.8498C143.557 42.8498 142.211 42.4819 141.02 41.7462C139.828 41.0105 138.884 39.9798 138.194 38.6617C137.5 37.3398 137.156 35.7918 137.156 34.0139C137.156 32.236 137.504 30.688 138.194 29.3661C138.888 28.0441 139.828 27.0172 141.02 26.2777C142.215 25.542 143.557 25.1742 145.057 25.1742C146.557 25.1742 147.968 25.542 149.163 26.2777C150.354 27.0134 151.291 28.0441 151.974 29.3661C152.656 30.688 152.995 32.236 152.995 34.0139C152.995 35.7918 152.652 37.3398 151.974 38.6617C151.291 39.9798 150.354 41.0105 149.163 41.7462C147.968 42.4819 146.603 42.8498 145.057 42.8498ZM145.057 39.271C146.26 39.271 147.243 38.815 148.002 37.9031C148.762 36.9911 149.144 35.6922 149.144 34.0101C149.144 32.328 148.762 31.029 148.002 30.1171C147.243 29.2051 146.26 28.7492 145.057 28.7492C143.854 28.7492 142.909 29.2051 142.161 30.1171C141.409 31.029 141.035 32.328 141.035 34.0101C141.035 35.6922 141.409 36.9911 142.161 37.9031C142.909 38.815 143.877 39.271 145.057 39.271Z" fill="#F0A124"/>
<path d="M158.243 42.4628C156.947 42.4628 156.3 41.7731 156.3 40.3936V27.661C156.3 26.2816 156.971 25.5918 158.308 25.5918C158.763 25.5918 159.161 25.703 159.504 25.9252C159.843 26.1474 160.013 26.5613 160.013 27.1705V27.979C160.421 27.136 161.061 26.4578 161.94 25.9444C162.816 25.4309 163.741 25.1742 164.717 25.1742C165.422 25.1742 165.958 25.3658 166.336 25.7528C166.71 26.1398 166.899 26.6609 166.899 27.3123C166.899 27.9215 166.752 28.366 166.455 28.6457C166.159 28.9254 165.819 29.0442 165.434 28.9944C165.252 28.9714 165.06 28.9561 164.855 28.9407C164.651 28.9254 164.423 28.9216 164.173 28.9216C163.059 28.9216 162.11 29.2971 161.327 30.0443C160.545 30.7914 160.151 31.8452 160.151 33.2016V40.3898C160.151 41.7692 159.515 42.4589 158.243 42.4589V42.4628Z" fill="#F18221"/>
<path d="M171.364 49.4441H170.442C169.806 49.3981 169.328 49.195 169.012 48.831C168.696 48.467 168.534 47.9957 168.534 47.4133C168.534 46.2447 168.919 45.7159 169.69 45.8347C169.918 45.8577 170.134 45.8768 170.338 45.8883C170.542 45.8998 170.747 45.9075 170.951 45.9075C171.564 45.9075 172.023 45.8385 172.331 45.6967C172.636 45.5549 172.883 45.3212 173.064 44.9955C173.245 44.666 173.45 44.2254 173.677 43.6621L174.12 42.4321L168.568 27.9828C168.295 27.2357 168.264 26.6494 168.468 26.2279C168.672 25.8064 169.07 25.5957 169.659 25.5957H169.899C171.055 25.5957 171.819 26.1475 172.181 27.2433L175.794 37.6962L179.167 27.2778C179.553 26.1551 180.313 25.5957 181.45 25.5957C182.109 25.5957 182.564 25.8064 182.811 26.2279C183.062 26.6494 183.062 27.2357 182.811 27.9828L176.951 44.8193C176.403 46.3634 175.74 47.5206 174.957 48.2908C174.171 49.0609 172.975 49.4479 171.364 49.4479V49.4441Z" fill="#CF264B"/>
<path d="M29.9467 16.8517H29.9235C23.608 16.8364 19.0391 10.2574 18.8501 9.97769C18.6072 9.62135 18.6998 9.13855 19.0583 8.89716C19.4169 8.65576 19.9027 8.74772 20.1456 9.10407C20.188 9.16538 24.4485 15.2884 29.9351 15.2961H29.9467C33.1468 15.2961 36.2082 13.2116 39.046 9.10024C39.2927 8.74389 39.7785 8.65576 40.1371 8.89716C40.4918 9.14239 40.5844 9.62518 40.3414 9.98152C37.1952 14.5412 33.6982 16.8556 29.9505 16.8556L29.9467 16.8517Z" fill="#F0A124"/>
<path d="M49.4986 34.7266C49.3019 34.7266 49.1092 34.6538 48.9665 34.5197L44.5094 30.4083C44.1932 30.1171 44.174 29.6228 44.467 29.3086C44.7639 28.9944 45.2574 28.9752 45.5735 29.2664L49.4407 32.8337L56.5852 24.745L48.8932 15.5068C48.6156 15.1773 48.6619 14.6869 48.9974 14.411C49.3289 14.1389 49.8263 14.1849 50.1001 14.5144L58.22 24.2622C58.4668 24.5573 58.4591 24.9864 58.2046 25.2738L50.0846 34.4622C49.9458 34.6193 49.7453 34.7151 49.5371 34.7266C49.5256 34.7266 49.5102 34.7266 49.4986 34.7266Z" fill="#CF264B"/>
<path d="M8.90267 33.6077C8.69446 33.6077 8.49011 33.5272 8.33974 33.3701L0.219777 25.0209C-0.0616846 24.7335 -0.0732515 24.2814 0.185076 23.9748L8.30504 14.5067C8.5865 14.1811 9.08003 14.1389 9.40775 14.4186C9.73548 14.6983 9.7779 15.1888 9.49643 15.5145L1.843 24.4461L9.01448 31.8221L12.901 29.2779C13.2634 29.0403 13.7492 29.1399 13.9844 29.5001C14.2234 29.8603 14.1232 30.3431 13.7608 30.5768L9.33064 33.4774C9.19955 33.5655 9.04918 33.6077 8.89881 33.6077H8.90267Z" fill="#CF264B"/>
<path d="M43.4068 55H14.9908C14.5589 55 14.2119 54.6552 14.2081 54.2299C13.888 18.3461 8.6251 14.9436 8.57112 14.9129C8.28966 14.8095 8.12387 14.5719 8.09303 14.2769C8.06218 13.9818 8.23568 13.706 8.4863 13.5489C31.7011 -0.915751 49.8148 13.4607 49.9961 13.6063C50.1927 13.7673 50.3007 14.0163 50.2814 14.2692C50.2621 14.5221 50.1194 14.752 49.8997 14.8785C45.7124 17.3422 44.1933 39.7576 44.1933 54.2222C44.1933 54.6513 43.8425 55 43.4106 55H43.4068ZM15.7657 53.4405H42.6279C42.6588 47.5129 43.0752 20.0129 48.2417 14.2577C44.7216 11.8553 29.38 2.91977 10.1789 14.342C11.9795 16.6257 15.4534 24.7412 15.7696 53.4405H15.7657Z" fill="#3759A8"/>
<path d="M22.4514 12.5183C22.3357 12.5183 22.2201 12.4914 22.1082 12.4378C21.7188 12.25 21.5569 11.7826 21.7497 11.3956C22.2702 10.3419 23.6351 7.29183 23.7315 5.87794C23.7353 5.8128 23.7469 5.74766 23.77 5.68253C23.8471 5.45646 25.6593 0.180227 29.4571 0.0269598C30.0971 -0.072664 33.413 -0.256585 35.7302 6.00056C35.7456 6.0427 35.7572 6.08485 35.7649 6.127C36.0849 7.85126 36.7866 10.5794 37.3419 11.2346C37.6195 11.5642 37.5771 12.0546 37.2455 12.3305C36.9139 12.6064 36.4204 12.5642 36.1428 12.2347C35.1519 11.0584 34.4077 7.3723 34.2381 6.47568C32.2447 1.14198 29.7385 1.5558 29.7116 1.56347C29.6691 1.57113 29.6075 1.57879 29.5612 1.58262C27.3365 1.6401 25.7557 4.77442 25.2891 6.08869C25.1002 8.08882 23.3613 11.6714 23.1608 12.0776C23.0259 12.3535 22.7444 12.5144 22.4553 12.5144L22.4514 12.5183Z" fill="#CF264B"/>
</g>
<defs>
<clipPath id="clip0_47_209">
<rect width="183" height="55" fill="white"/>
</clipPath>
</defs>
</svg>
