<svg width="17" height="22" viewBox="0 0 17 22" fill="none" xmlns="http://www.w3.org/2000/svg">
<path fill-rule="evenodd" clip-rule="evenodd" d="M13.217 4.25423C15.0288 7.39247 13.9536 11.4053 10.8154 13.2172C7.67712 15.0291 3.66426 13.9538 1.85239 10.8156C0.0405279 7.67733 1.11577 3.66447 4.25401 1.85261C7.39226 0.0407399 11.4051 1.11598 13.217 4.25423ZM11.9143 13.6651C15.0387 11.4384 16.0163 7.15874 14.0588 3.7682C11.9785 0.165031 7.37116 -1.06951 3.76799 1.01079C0.164819 3.09108 -1.06972 7.69843 1.01057 11.3016C3.05021 14.8344 7.51911 16.0902 11.089 14.1772C11.0897 14.1783 11.0903 14.1794 11.0909 14.1805L15.4652 21.7569C15.5994 21.9894 15.8966 22.069 16.1291 21.9348C16.3616 21.8006 16.4412 21.5034 16.307 21.2709L11.9328 13.6945C11.9269 13.6844 11.9208 13.6746 11.9143 13.6651Z" fill="#787878"/>
</svg>
