<svg width="181" height="84" viewBox="0 0 181 84" fill="none" xmlns="http://www.w3.org/2000/svg">
<path d="M181 80.9753H48.9932V31.6456H181L168.543 57.3358L181 80.9753Z" fill="url(#paint0_linear_181_224)"/>
<path d="M59.5348 36.2918L59.5309 36.0311L60.3195 36.0195L60.3234 36.2802L59.5348 36.2918ZM61.3761 36.266L61.3721 36.0053L62.1607 35.9937L62.1646 36.2544L61.3761 36.266ZM63.2173 36.2402L63.2134 35.9795L64.0019 35.9679L64.0058 36.2286L63.2173 36.2402ZM65.0585 36.2144L65.0546 35.9537L65.8432 35.942L65.8471 36.2028L65.0585 36.2144ZM66.8998 36.1886L66.8958 35.9278L67.6844 35.9162L67.6883 36.1769L66.8998 36.1886ZM68.741 36.1627L68.7371 35.902L69.5256 35.8904L69.5295 36.1511L68.741 36.1627ZM70.5822 36.1369L70.5783 35.8762L71.3669 35.8646L71.3708 36.1253L70.5822 36.1369ZM72.4235 36.1111L72.4196 35.8504L73.2081 35.8388L73.212 36.0995L72.4235 36.1111ZM74.2647 36.0853L74.2608 35.8246L75.0493 35.813L75.0532 36.0737L74.2647 36.0853ZM76.1059 36.0595L76.102 35.7988L76.8906 35.7872L76.8945 36.0479L76.1059 36.0595ZM77.9472 36.0337L77.9433 35.773L78.7318 35.7614L78.7357 36.0221L77.9472 36.0337ZM79.7884 36.0079L79.7845 35.7472L80.573 35.7355L80.5769 35.9962L79.7884 36.0079ZM81.6296 35.9821L81.6257 35.7213L82.4143 35.7097L82.4182 35.9704L81.6296 35.9821ZM83.4709 35.9562L83.467 35.6955L84.2555 35.6839L84.2594 35.9446L83.4709 35.9562ZM85.3121 35.9304L85.3082 35.6697L86.0967 35.6581L86.1006 35.9188L85.3121 35.9304ZM87.1533 35.9046L87.1494 35.6439L87.938 35.6323L87.9419 35.893L87.1533 35.9046ZM88.9946 35.8788L88.9907 35.6181L89.7792 35.6065L89.7831 35.8672L88.9946 35.8788ZM90.8358 35.853L90.8319 35.5923L91.6204 35.5807L91.6243 35.8414L90.8358 35.853ZM92.677 35.8272L92.6731 35.5665L93.4617 35.5549L93.4656 35.8156L92.677 35.8272ZM94.5183 35.8014L94.5144 35.5407L95.3029 35.529L95.3068 35.7897L94.5183 35.8014ZM96.3595 35.7755L96.3556 35.5148L97.1441 35.5032L97.148 35.7639L96.3595 35.7755ZM98.2007 35.7497L98.1968 35.489L98.9854 35.4774L98.9893 35.7381L98.2007 35.7497ZM100.042 35.7239L100.038 35.4632L100.827 35.4516L100.831 35.7123L100.042 35.7239ZM101.883 35.6981L101.879 35.4374L102.668 35.4258L102.672 35.6865L101.883 35.6981ZM103.724 35.6723L103.721 35.4116L104.509 35.4L104.513 35.6607L103.724 35.6723ZM105.566 35.6465L105.562 35.3858L106.35 35.3742L106.354 35.6349L105.566 35.6465ZM107.407 35.6207L107.403 35.36L108.192 35.3483L108.195 35.6091L107.407 35.6207ZM109.248 35.5949L109.244 35.3341L110.033 35.3225L110.037 35.5832L109.248 35.5949ZM111.089 35.569L111.085 35.3083L111.874 35.2967L111.878 35.5574L111.089 35.569ZM112.931 35.5432L112.927 35.2825L113.715 35.2709L113.719 35.5316L112.931 35.5432ZM114.772 35.5174L114.768 35.2567L115.556 35.2451L115.56 35.5058L114.772 35.5174ZM116.613 35.4916L116.609 35.2309L117.398 35.2193L117.402 35.48L116.613 35.4916ZM118.454 35.4658L118.45 35.2051L119.239 35.1935L119.243 35.4542L118.454 35.4658ZM120.296 35.44L120.292 35.1793L121.08 35.1677L121.084 35.4284L120.296 35.44ZM122.137 35.4142L122.133 35.1535L122.921 35.1418L122.925 35.4026L122.137 35.4142ZM123.978 35.3884L123.974 35.1276L124.763 35.116L124.767 35.3767L123.978 35.3884ZM125.819 35.3625L125.815 35.1018L126.604 35.0902L126.608 35.3509L125.819 35.3625ZM127.66 35.3367L127.657 35.076L128.445 35.0644L128.449 35.3251L127.66 35.3367ZM129.502 35.3109L129.498 35.0502L130.286 35.0386L130.29 35.2993L129.502 35.3109ZM131.343 35.2851L131.339 35.0244L132.128 35.0128L132.131 35.2735L131.343 35.2851ZM133.184 35.2593L133.18 34.9986L133.969 34.987L133.973 35.2477L133.184 35.2593ZM135.025 35.2335L135.022 34.9728L135.81 34.9612L135.814 35.2219L135.025 35.2335ZM136.867 35.2077L136.863 34.947L137.651 34.9353L137.655 35.1961L136.867 35.2077ZM138.708 35.1819L138.704 34.9211L139.493 34.9095L139.496 35.1702L138.708 35.1819ZM140.549 35.156L140.545 34.8953L141.334 34.8837L141.338 35.1444L140.549 35.156ZM142.39 35.1302L142.386 34.8695L143.175 34.8579L143.179 35.1186L142.39 35.1302ZM144.232 35.1044L144.228 34.8437L145.016 34.8321L145.02 35.0928L144.232 35.1044ZM146.073 35.0786L146.069 34.8179L146.857 34.8063L146.861 35.067L146.073 35.0786ZM147.914 35.0528L147.91 34.7921L148.699 34.7805L148.703 35.0412L147.914 35.0528ZM149.755 35.027L149.751 34.7663L150.54 34.7546L150.544 35.0154L149.755 35.027ZM151.597 35.0012L151.593 34.7405L152.381 34.7288L152.385 34.9895L151.597 35.0012ZM153.438 34.9753L153.434 34.7146L154.222 34.703L154.226 34.9637L153.438 34.9753ZM155.279 34.9495L155.275 34.6888L156.064 34.6772L156.068 34.9379L155.279 34.9495ZM157.12 34.9237L157.116 34.663L157.905 34.6514L157.909 34.9121L157.12 34.9237ZM158.961 34.8979L158.958 34.6372L159.746 34.6256L159.75 34.8863L158.961 34.8979ZM160.803 34.8721L160.799 34.6114L161.587 34.5998L161.591 34.8605L160.803 34.8721ZM162.644 34.8463L162.64 34.5856L163.429 34.574L163.432 34.8347L162.644 34.8463ZM164.485 34.8205L164.481 34.5598L165.27 34.5481L165.274 34.8089L164.485 34.8205ZM166.326 34.7947L166.322 34.534L167.111 34.5223L167.115 34.783L166.326 34.7947ZM168.168 34.7688L168.164 34.5081L168.952 34.4965L168.956 34.7572L168.168 34.7688ZM170.009 34.743L170.005 34.4823L170.794 34.4707L170.797 34.7314L170.009 34.743ZM171.85 34.7172L171.846 34.4565L172.635 34.4449L172.639 34.7056L171.85 34.7172ZM173.691 34.6914L173.687 34.4307L174.476 34.4191L174.48 34.6798L173.691 34.6914ZM175.533 34.6656L175.529 34.4049L176.317 34.3933L176.321 34.654L175.533 34.6656ZM177.374 34.6398L177.37 34.3791L178.158 34.3675L178.162 34.6282L177.374 34.6398Z" fill="white"/>
<path d="M59.5348 78.759L59.5309 78.4983L60.3195 78.4867L60.3234 78.7474L59.5348 78.759ZM61.3761 78.7332L61.3721 78.4725L62.1607 78.4609L62.1646 78.7216L61.3761 78.7332ZM63.2173 78.7074L63.2134 78.4467L64.0019 78.4351L64.0058 78.6958L63.2173 78.7074ZM65.0585 78.6816L65.0546 78.4209L65.8432 78.4093L65.8471 78.67L65.0585 78.6816ZM66.8998 78.6558L66.8958 78.3951L67.6844 78.3835L67.6883 78.6442L66.8998 78.6558ZM68.741 78.63L68.7371 78.3693L69.5256 78.3577L69.5295 78.6184L68.741 78.63ZM70.5822 78.6042L70.5783 78.3435L71.3669 78.3318L71.3708 78.5926L70.5822 78.6042ZM72.4235 78.5784L72.4196 78.3176L73.2081 78.306L73.212 78.5667L72.4235 78.5784ZM74.2647 78.5525L74.2608 78.2918L75.0493 78.2802L75.0532 78.5409L74.2647 78.5525ZM76.1059 78.5267L76.102 78.266L76.8906 78.2544L76.8945 78.5151L76.1059 78.5267ZM77.9472 78.5009L77.9433 78.2402L78.7318 78.2286L78.7357 78.4893L77.9472 78.5009ZM79.7884 78.4751L79.7845 78.2144L80.573 78.2028L80.5769 78.4635L79.7884 78.4751ZM81.6296 78.4493L81.6257 78.1886L82.4143 78.177L82.4182 78.4377L81.6296 78.4493ZM83.4709 78.4235L83.467 78.1628L84.2555 78.1512L84.2594 78.4119L83.4709 78.4235ZM85.3121 78.3977L85.3082 78.137L86.0967 78.1253L86.1006 78.3861L85.3121 78.3977ZM87.1533 78.3719L87.1494 78.1111L87.938 78.0995L87.9419 78.3602L87.1533 78.3719ZM88.9946 78.346L88.9907 78.0853L89.7792 78.0737L89.7831 78.3344L88.9946 78.346ZM90.8358 78.3202L90.8319 78.0595L91.6204 78.0479L91.6243 78.3086L90.8358 78.3202ZM92.677 78.2944L92.6731 78.0337L93.4617 78.0221L93.4656 78.2828L92.677 78.2944ZM94.5183 78.2686L94.5144 78.0079L95.3029 77.9963L95.3068 78.257L94.5183 78.2686ZM96.3595 78.2428L96.3556 77.9821L97.1441 77.9705L97.148 78.2312L96.3595 78.2428ZM98.2007 78.217L98.1968 77.9563L98.9854 77.9447L98.9893 78.2054L98.2007 78.217ZM100.042 78.1912L100.038 77.9305L100.827 77.9188L100.831 78.1795L100.042 78.1912ZM101.883 78.1654L101.879 77.9046L102.668 77.893L102.672 78.1537L101.883 78.1654ZM103.724 78.1395L103.721 77.8788L104.509 77.8672L104.513 78.1279L103.724 78.1395ZM105.566 78.1137L105.562 77.853L106.35 77.8414L106.354 78.1021L105.566 78.1137ZM107.407 78.0879L107.403 77.8272L108.192 77.8156L108.195 78.0763L107.407 78.0879ZM109.248 78.0621L109.244 77.8014L110.033 77.7898L110.037 78.0505L109.248 78.0621ZM111.089 78.0363L111.085 77.7756L111.874 77.764L111.878 78.0247L111.089 78.0363ZM112.931 78.0105L112.927 77.7498L113.715 77.7382L113.719 77.9989L112.931 78.0105ZM114.772 77.9847L114.768 77.724L115.556 77.7123L115.56 77.973L114.772 77.9847ZM116.613 77.9589L116.609 77.6981L117.398 77.6865L117.402 77.9472L116.613 77.9589ZM118.454 77.933L118.45 77.6723L119.239 77.6607L119.243 77.9214L118.454 77.933ZM120.296 77.9072L120.292 77.6465L121.08 77.6349L121.084 77.8956L120.296 77.9072ZM122.137 77.8814L122.133 77.6207L122.921 77.6091L122.925 77.8698L122.137 77.8814ZM123.978 77.8556L123.974 77.5949L124.763 77.5833L124.767 77.844L123.978 77.8556ZM125.819 77.8298L125.815 77.5691L126.604 77.5575L126.608 77.8182L125.819 77.8298ZM127.66 77.804L127.657 77.5433L128.445 77.5316L128.449 77.7924L127.66 77.804ZM129.502 77.7782L129.498 77.5174L130.286 77.5058L130.29 77.7665L129.502 77.7782ZM131.343 77.7523L131.339 77.4916L132.128 77.48L132.131 77.7407L131.343 77.7523ZM133.184 77.7265L133.18 77.4658L133.969 77.4542L133.973 77.7149L133.184 77.7265ZM135.025 77.7007L135.022 77.44L135.81 77.4284L135.814 77.6891L135.025 77.7007ZM136.867 77.6749L136.863 77.4142L137.651 77.4026L137.655 77.6633L136.867 77.6749ZM138.708 77.6491L138.704 77.3884L139.493 77.3768L139.496 77.6375L138.708 77.6491ZM140.549 77.6233L140.545 77.3626L141.334 77.351L141.338 77.6117L140.549 77.6233ZM142.39 77.5975L142.386 77.3368L143.175 77.3251L143.179 77.5859L142.39 77.5975ZM144.232 77.5717L144.228 77.3109L145.016 77.2993L145.02 77.56L144.232 77.5717ZM146.073 77.5458L146.069 77.2851L146.857 77.2735L146.861 77.5342L146.073 77.5458ZM147.914 77.52L147.91 77.2593L148.699 77.2477L148.703 77.5084L147.914 77.52ZM149.755 77.4942L149.751 77.2335L150.54 77.2219L150.544 77.4826L149.755 77.4942ZM151.597 77.4684L151.593 77.2077L152.381 77.1961L152.385 77.4568L151.597 77.4684ZM153.438 77.4426L153.434 77.1819L154.222 77.1703L154.226 77.431L153.438 77.4426ZM155.279 77.4168L155.275 77.1561L156.064 77.1445L156.068 77.4052L155.279 77.4168ZM157.12 77.391L157.116 77.1303L157.905 77.1186L157.909 77.3793L157.12 77.391ZM158.961 77.3652L158.958 77.1044L159.746 77.0928L159.75 77.3535L158.961 77.3652ZM160.803 77.3393L160.799 77.0786L161.587 77.067L161.591 77.3277L160.803 77.3393ZM162.644 77.3135L162.64 77.0528L163.429 77.0412L163.432 77.3019L162.644 77.3135ZM164.485 77.2877L164.481 77.027L165.27 77.0154L165.274 77.2761L164.485 77.2877ZM166.326 77.2619L166.322 77.0012L167.111 76.9896L167.115 77.2503L166.326 77.2619ZM168.168 77.2361L168.164 76.9754L168.952 76.9638L168.956 77.2245L168.168 77.2361ZM170.009 77.2103L170.005 76.9496L170.794 76.938L170.797 77.1987L170.009 77.2103ZM171.85 77.1845L171.846 76.9238L172.635 76.9121L172.639 77.1728L171.85 77.1845ZM173.691 77.1587L173.687 76.8979L174.476 76.8863L174.48 77.147L173.691 77.1587ZM175.533 77.1328L175.529 76.8721L176.317 76.8605L176.321 77.1212L175.533 77.1328ZM177.374 77.107L177.37 76.8463L178.158 76.8347L178.162 77.0954L177.374 77.107Z" fill="white"/>
<path d="M68.3622 18.566L74.7421 4.7703L80.2293 9.95481L68.3622 18.566Z" fill="url(#paint1_linear_181_224)"/>
<path d="M63.1819 19.3185L62.5066 10.1691L66.936 11.3281L63.1819 19.3185Z" fill="url(#paint2_linear_181_224)"/>
<path d="M71.6945 23.8047L77.0906 20.973L77.9351 24.0538L71.6945 23.8047Z" fill="url(#paint3_linear_181_224)"/>
<path d="M16.6655 28.1787L13.0793 26.053L14.6603 24.7301L16.6655 28.1787Z" fill="url(#paint4_linear_181_224)"/>
<path d="M13.738 33.616L4.6125 35.1145L5.37372 30.6333L13.738 33.616Z" fill="url(#paint5_linear_181_224)"/>
<path d="M19.8667 22.8045L16.0164 13.1841L21.4503 12.3336L19.8667 22.8045Z" fill="url(#paint6_linear_181_224)"/>
<path d="M76.0563 42.6946C77.1598 39.2163 77.0244 36.1368 75.6516 33.5297C73.4083 29.2706 68.6732 28.0651 68.4923 28.02C62.1254 26.3976 56.1202 27.0197 52.2426 27.8122C55.8353 17.8807 56.0734 10.3201 52.9452 5.31625C49.9368 0.506018 44.9661 0.0271897 44.7566 0.00912069L44.6005 0.00137683C37.6272 -0.0941308 35.1354 4.80257 34.7906 7.41354L34.7736 7.61101C34.3872 17.1992 33.3267 20.1548 32.991 20.8633L32.9155 20.9059L32.6201 21.368C27.436 29.5016 24.6332 38.6626 24.5031 39.095C23.8082 41.5924 22.0867 42.6042 20.9442 43.0082C20.6996 42.7772 20.4432 42.5578 20.1622 42.368C18.2298 41.058 16.17 41.2633 15.6118 41.351L8.78816 42.1422C5.61057 42.3564 3.22152 43.4225 1.68607 45.3107C-0.109622 47.519 -0.0471628 50.0461 0.0296095 50.8579C-0.0432591 53.5967 0.367928 56.3909 0.423881 56.7549L2.17663 70.5725C2.75568 74.971 3.72379 77.6956 3.76543 77.8091L3.86302 78.0389C5.95149 82.2554 9.83695 83.3602 12.6528 83.3602C13.3711 83.3602 14.0217 83.2879 14.5526 83.1782L17.8317 82.7381C21.1602 82.3716 23.5506 81.2022 24.9403 79.2676C30.4835 79.7322 36.1933 79.8948 41.445 79.8948C53.1886 79.8948 62.6342 79.0907 62.776 79.0778L62.9868 79.0494C71.8807 77.4103 73.8221 70.6719 73.6113 66.3224C75.4109 64.9453 76.5391 63.2313 76.9711 61.2114C77.5488 58.5166 76.7095 55.9998 75.9535 54.4278C79.4538 50.2745 77.9145 45.4772 76.055 42.6946H76.0563Z" fill="url(#paint7_linear_181_224)"/>
<path d="M76.0563 42.6946C77.1598 39.2163 77.0244 36.1368 75.6516 33.5297C73.4083 29.2706 68.6732 28.0651 68.4923 28.02C62.1254 26.3976 56.1202 27.0197 52.2426 27.8122C55.8353 17.8807 56.0734 10.3201 52.9452 5.31625C49.9368 0.506018 44.9661 0.0271897 44.7566 0.00912069L44.6005 0.00137683C37.6272 -0.0941308 35.1354 4.80257 34.7906 7.41354L34.7736 7.61101C34.3872 17.1992 33.3267 20.1548 32.991 20.8633L32.9155 20.9059L32.6201 21.368C27.436 29.5016 24.6332 38.6626 24.5031 39.095C23.8082 41.5924 22.0867 42.6042 20.9442 43.0082C20.6996 42.7772 20.4432 42.5578 20.1622 42.368C18.2298 41.058 16.17 41.2633 15.6118 41.351L8.78816 42.1422C5.61057 42.3564 3.22152 43.4225 1.68607 45.3107C-0.109622 47.519 -0.0471628 50.0461 0.0296095 50.8579C-0.0432591 53.5967 0.367928 56.3909 0.423881 56.7549L2.17663 70.5725C2.75568 74.971 3.72379 77.6956 3.76543 77.8091L3.86302 78.0389C5.95149 82.2554 9.83695 83.3602 12.6528 83.3602C13.3711 83.3602 14.0217 83.2879 14.5526 83.1782L17.8317 82.7381C21.1602 82.3716 23.5506 81.2022 24.939 79.2676C30.4822 79.7322 36.192 79.8948 41.4437 79.8948C53.1873 79.8948 62.6329 79.0907 62.7747 79.0778L62.9855 79.0494C71.8794 77.4103 73.8208 70.6719 73.61 66.3224C75.4096 64.9453 76.5378 63.2313 76.9698 61.2114C77.5475 58.5166 76.7082 55.9998 75.9522 54.4278C79.4525 50.2745 77.9132 45.4772 76.0537 42.6946H76.0563ZM21.3346 76.7095C20.7204 77.5729 19.3398 78.146 17.2904 78.3731L13.872 78.8313L13.6977 78.8623C13.2852 78.9488 9.66258 79.5863 7.90463 76.2203C7.73156 75.6976 7.0237 73.4209 6.57608 70.0149L4.82072 56.1779L4.81161 56.1134C4.80771 56.0863 4.38351 53.3424 4.46679 50.8437L4.4733 50.6437L4.44337 50.4449C4.44207 50.432 4.30283 49.1 5.13822 48.074C5.87211 47.1718 7.21628 46.6517 9.13428 46.5291L16.183 45.716L16.1804 45.7289L16.3157 45.6966C17.0522 45.5843 18.3509 45.7702 18.8102 48.2418L21.6664 74.922L21.7132 75.1956C21.7145 75.2033 21.8394 76.0035 21.3359 76.7121L21.3346 76.7095ZM71.3849 55.3222C71.4031 55.3481 73.1559 57.9177 72.6302 60.317C72.366 61.5212 71.5476 62.5163 70.1253 63.363L68.8319 64.1464L69.0818 65.6242C69.2119 66.3973 70.1253 73.1977 62.2802 74.7051C60.724 74.8329 42.7762 76.2513 26.1374 74.9516C26.1192 74.7013 26.0893 74.4986 26.0645 74.3618L23.2109 47.6971L23.1901 47.55C23.1511 47.3254 23.1003 47.1125 23.0496 46.8995C25.0847 46.0348 27.6859 44.1969 28.7659 40.3146C28.7919 40.2269 31.4399 31.5705 36.1894 24.0061C37.1653 22.9968 38.7111 19.8192 39.2004 7.91044C39.2967 7.38386 40.0332 4.3986 44.3806 4.3986H44.4209C44.8946 4.467 47.5478 4.9639 49.2224 7.70781C50.9531 10.5434 52.0253 16.4248 47.2979 28.3594L44.8126 34.8397L49.415 33.1232C49.5022 33.0909 58.1619 29.9288 67.3941 32.2804C67.424 32.2881 70.4415 33.0961 71.7362 35.5948C72.6302 37.3191 72.5521 39.5699 71.5046 42.2842L71.0479 43.4961L71.8794 44.486C72.5144 45.2423 75.4942 49.1801 71.7519 52.4054L70.2646 53.7025L71.3849 55.321V55.3222Z" fill="url(#paint8_linear_181_224)"/>
<path d="M105.12 55.8088V38.7607H109.343C110.107 38.7607 110.796 38.8304 111.412 38.9711C112.027 39.1118 112.558 39.3467 113.003 39.6758C113.449 40.0062 113.792 40.4515 114.032 41.0129C114.273 41.5743 114.393 42.2829 114.393 43.1386C114.393 43.8265 114.298 44.415 114.107 44.9068C113.915 45.3985 113.635 45.787 113.269 46.0748C112.9 46.3626 112.441 46.5549 111.889 46.653C112.568 46.7653 113.131 47.0002 113.577 47.3577C114.022 47.7152 114.355 48.1824 114.574 48.7568C114.792 49.3324 114.903 50.0268 114.903 50.8399C114.903 51.653 114.8 52.3731 114.596 52.9978C114.39 53.6225 114.087 54.1413 113.684 54.5556C113.28 54.9699 112.778 55.2823 112.177 55.4926C111.576 55.703 110.872 55.8088 110.065 55.8088H105.12ZM108.261 45.7276H109.322C109.944 45.7276 110.425 45.636 110.765 45.454C111.105 45.272 111.341 44.9907 111.475 44.6125C111.609 44.2343 111.677 43.7568 111.677 43.1812C111.677 42.6056 111.574 42.1112 111.37 41.7808C111.164 41.4517 110.857 41.2271 110.447 41.1071C110.038 40.9884 109.513 40.9277 108.877 40.9277H108.261V45.7263V45.7276ZM108.261 53.6199H109.449C110.397 53.6199 111.041 53.3915 111.38 52.9359C111.72 52.4803 111.889 51.7743 111.889 50.8205C111.889 50.1326 111.807 49.575 111.645 49.1478C111.482 48.7206 111.213 48.4005 110.838 48.1902C110.463 47.9798 109.965 47.874 109.341 47.874H108.259V53.6199H108.261Z" fill="white"/>
<path d="M116.939 55.8087V38.7606H124.155V40.9495H120.081V45.854H123.284V48.0223H120.081V53.6624H124.198V55.8087H116.941H116.939Z" fill="white"/>
<path d="M130.35 56.041C129.317 56.041 128.454 55.8409 127.76 55.4408C127.067 55.0407 126.544 54.4548 126.19 53.683C125.836 52.9112 125.638 51.9638 125.595 50.841L128.29 50.3144C128.319 50.9739 128.399 51.556 128.535 52.0619C128.669 52.5666 128.874 52.9563 129.15 53.23C129.426 53.5036 129.79 53.6404 130.243 53.6404C130.752 53.6404 131.114 53.4894 131.326 53.1874C131.538 52.8854 131.645 52.5033 131.645 52.04C131.645 51.2966 131.474 50.6861 131.136 50.2086C130.796 49.731 130.343 49.2548 129.777 48.7772L127.613 46.8826C127.004 46.3637 126.52 45.7842 126.16 45.1467C125.8 44.5078 125.619 43.7192 125.619 42.7783C125.619 41.4309 126.014 40.3932 126.807 39.6627C127.599 38.9335 128.68 38.5682 130.053 38.5682C130.86 38.5682 131.531 38.6909 132.069 38.9361C132.606 39.1813 133.034 39.522 133.353 39.957C133.672 40.3919 133.909 40.8862 134.064 41.4412C134.22 41.9962 134.319 42.5809 134.36 43.1991L131.686 43.6624C131.658 43.1294 131.598 42.6518 131.505 42.2311C131.413 41.8103 131.25 41.4812 131.017 41.2425C130.785 41.0037 130.441 40.885 129.988 40.885C129.535 40.885 129.165 41.036 128.916 41.338C128.669 41.64 128.545 42.0156 128.545 42.4634C128.545 43.039 128.665 43.5127 128.906 43.8844C129.146 44.2561 129.492 44.6394 129.945 45.0318L132.088 46.9045C132.795 47.4943 133.4 48.1848 133.902 48.9773C134.405 49.7697 134.656 50.7274 134.656 51.8503C134.656 52.6647 134.475 53.3861 134.114 54.0185C133.754 54.6497 133.252 55.144 132.608 55.5028C131.963 55.8603 131.21 56.0397 130.347 56.0397L130.35 56.041Z" fill="white"/>
<path d="M138.222 55.8087V41.054H135.484V38.7593H144.057V41.054H141.362V55.8087H138.221H138.222Z" fill="white"/>
<path d="M104.51 74.4909V60.0809H108.779C109.653 60.0809 110.36 60.2409 110.904 60.561C111.448 60.8811 111.849 61.347 112.107 61.9575C112.364 62.568 112.492 63.3062 112.492 64.1722C112.492 65.1092 112.33 65.8656 112.008 66.4399C111.685 67.0155 111.234 67.4337 110.653 67.6944C110.073 67.9551 109.388 68.0855 108.6 68.0855H107.165V74.4896H104.51V74.4909ZM107.165 66.236H108.169C108.647 66.236 109.021 66.1676 109.289 66.0307C109.559 65.8939 109.744 65.6745 109.845 65.3725C109.947 65.0705 109.997 64.664 109.997 64.1542C109.997 63.6443 109.958 63.2081 109.88 62.8816C109.802 62.555 109.636 62.315 109.378 62.1614C109.12 62.0078 108.717 61.9304 108.168 61.9304H107.163V66.236H107.165Z" fill="white"/>
<path d="M113.891 74.4909V60.0809H117.37C118.35 60.0809 119.179 60.197 119.854 60.4281C120.53 60.6591 121.044 61.054 121.396 61.6116C121.749 62.1691 121.926 62.928 121.926 63.8883C121.926 64.4691 121.873 64.9918 121.765 65.4538C121.657 65.9159 121.474 66.3108 121.218 66.6374C120.96 66.9639 120.605 67.2156 120.151 67.3937L122.178 74.4922H119.524L117.766 67.8919H116.547V74.4922H113.892L113.891 74.4909ZM116.545 66.236H117.37C117.884 66.236 118.294 66.1624 118.599 66.014C118.903 65.8655 119.122 65.6294 119.253 65.3028C119.385 64.9763 119.451 64.5581 119.451 64.0483C119.451 63.3256 119.317 62.7822 119.048 62.4208C118.778 62.0594 118.267 61.8787 117.514 61.8787H116.545V66.2373V66.236Z" fill="white"/>
<path d="M123.988 74.4909V60.0809H126.608V74.4909H123.988Z" fill="white"/>
<path d="M132.759 74.6858C131.694 74.6858 130.86 74.478 130.256 74.0637C129.653 73.6481 129.231 73.0828 128.992 72.3652C128.752 71.6476 128.632 70.8203 128.632 69.8833V64.7414C128.632 63.7566 128.752 62.9035 128.992 62.1795C129.231 61.4567 129.653 60.8991 130.256 60.5068C130.86 60.1157 131.694 59.9195 132.759 59.9195C133.763 59.9195 134.549 60.0886 135.118 60.4268C135.685 60.7649 136.088 61.2476 136.328 61.8762C136.567 62.5047 136.687 63.2339 136.687 64.0638V65.2731H134.141V64.0277C134.141 63.625 134.12 63.2571 134.078 62.9242C134.036 62.5925 133.922 62.3279 133.737 62.133C133.551 61.9368 133.232 61.84 132.778 61.84C132.324 61.84 131.992 61.9446 131.783 62.1511C131.573 62.3589 131.439 62.6376 131.379 62.9874C131.32 63.3372 131.29 63.7321 131.29 64.1709V70.4331C131.29 70.9558 131.331 71.3856 131.416 71.7225C131.499 72.0606 131.651 72.3162 131.873 72.4878C132.094 72.6595 132.396 72.746 132.778 72.746C133.221 72.746 133.534 72.6427 133.72 72.4349C133.905 72.2271 134.022 71.9522 134.07 71.6076C134.118 71.2643 134.142 70.8784 134.142 70.4512V69.1528H136.688V70.3092C136.688 71.1636 136.575 71.9187 136.347 72.5769C136.12 73.2351 135.723 73.7514 135.154 74.1244C134.586 74.4974 133.788 74.6845 132.76 74.6845L132.759 74.6858Z" fill="white"/>
<path d="M138.535 74.4909V60.0809H144.633V61.9317H141.189V66.0772H143.897V67.9099H141.189V72.6776H144.669V74.4922H138.535V74.4909Z" fill="white"/>
<defs>
<linearGradient id="paint0_linear_181_224" x1="160.431" y1="11.2444" x2="70.3037" y2="102.111" gradientUnits="userSpaceOnUse">
<stop offset="0.18" stop-color="#44ACB3"/>
<stop offset="0.73" stop-color="#2E9193"/>
</linearGradient>
<linearGradient id="paint1_linear_181_224" x1="69.7736" y1="8.87042" x2="74.5413" y2="14.6491" gradientUnits="userSpaceOnUse">
<stop offset="0.18" stop-color="#44ACB3"/>
<stop offset="0.73" stop-color="#2E9193"/>
</linearGradient>
<linearGradient id="paint2_linear_181_224" x1="61.4608" y1="11.0337" x2="66.2255" y2="16.8102" gradientUnits="userSpaceOnUse">
<stop offset="0.18" stop-color="#44ACB3"/>
<stop offset="0.73" stop-color="#2E9193"/>
</linearGradient>
<linearGradient id="paint3_linear_181_224" x1="73.9907" y1="21.9112" x2="76.6408" y2="25.1236" gradientUnits="userSpaceOnUse">
<stop offset="0.18" stop-color="#44ACB3"/>
<stop offset="0.73" stop-color="#2E9193"/>
</linearGradient>
<linearGradient id="paint4_linear_181_224" x1="13.7781" y1="25.2348" x2="15.7614" y2="28.6974" gradientUnits="userSpaceOnUse">
<stop offset="0.18" stop-color="#44ACB3"/>
<stop offset="0.73" stop-color="#2E9193"/>
</linearGradient>
<linearGradient id="paint5_linear_181_224" x1="6.59557" y1="29.9338" x2="9.94648" y2="35.7873" gradientUnits="userSpaceOnUse">
<stop offset="0.18" stop-color="#44ACB3"/>
<stop offset="0.73" stop-color="#2E9193"/>
</linearGradient>
<linearGradient id="paint6_linear_181_224" x1="17.5831" y1="12.2871" x2="22.682" y2="21.1912" gradientUnits="userSpaceOnUse">
<stop offset="0.18" stop-color="#44ACB3"/>
<stop offset="0.73" stop-color="#2E9193"/>
</linearGradient>
<linearGradient id="paint7_linear_181_224" x1="15.7835" y1="14.6153" x2="55.6886" y2="84.2993" gradientUnits="userSpaceOnUse">
<stop stop-color="white"/>
<stop offset="0.97" stop-color="#F2F2F2"/>
<stop offset="1"/>
</linearGradient>
<linearGradient id="paint8_linear_181_224" x1="15.7835" y1="14.6153" x2="55.6886" y2="84.2993" gradientUnits="userSpaceOnUse">
<stop offset="0.18" stop-color="#44ACB3"/>
<stop offset="0.73" stop-color="#2E9193"/>
</linearGradient>
</defs>
</svg>
