<svg width="293" height="89" viewBox="0 0 293 89" fill="none" xmlns="http://www.w3.org/2000/svg">
<g clip-path="url(#clip0_239_162)">
<path d="M125.582 68.7124C123.508 68.7124 122.471 67.5963 122.471 65.3642V46.9181H120.724C118.575 46.9181 117.507 45.9942 117.507 44.1341C117.507 42.274 118.254 41.4122 119.748 41.4122H122.477V36.5325C122.477 33.1657 123.224 30.8405 124.718 29.5509C126.205 28.2674 128.335 27.6226 131.101 27.6226C132.484 27.6226 133.638 27.8024 134.564 28.162C135.49 28.5216 135.934 29.3277 135.897 30.5739C135.897 31.3676 135.737 32.031 135.41 32.558C135.083 33.0913 134.41 33.3517 133.391 33.3517C133.169 33.3517 132.916 33.3331 132.626 33.2959C132.335 33.2587 132.076 33.2401 131.86 33.2401C129.681 33.2401 128.588 34.6042 128.588 37.3261V41.4122H132.681C134.829 41.4122 135.897 42.3236 135.897 44.1341C135.897 45.9446 134.842 46.9181 132.737 46.9181H128.588V65.3642C128.588 67.5963 127.588 68.7124 125.588 68.7124H125.582Z" fill="#3759A8"/>
<path d="M148.497 69.1154C145.663 69.227 143.324 68.5822 141.484 67.1871C139.645 65.7858 138.731 63.7645 138.731 61.117C138.731 59.1887 139.293 57.5394 140.422 56.1815C141.552 54.8174 143.003 53.7509 144.787 52.9759C146.571 52.2008 148.404 51.7916 150.3 51.7544C151.244 51.68 152.139 51.7544 152.973 51.9838C153.812 52.2132 154.559 52.5357 155.213 52.9449V50.564C155.213 48.7845 154.849 47.6312 154.121 47.1042C153.392 46.5709 152.318 46.3105 150.905 46.3105C149.886 46.3105 148.824 46.4407 147.713 46.7073C146.602 46.9739 145.522 47.3336 144.466 47.7862C143.521 48.2016 142.713 48.3504 142.04 48.2388C141.367 48.121 140.811 47.6684 140.379 46.8747C139.941 46.0811 139.842 45.3184 140.077 44.5806C140.311 43.8428 140.922 43.2661 141.904 42.8507C143.213 42.2059 144.639 41.6974 146.188 41.3192C147.732 40.941 149.306 40.7488 150.905 40.7488C154.287 40.7488 156.831 41.4556 158.541 42.8755C160.251 44.2954 161.109 46.8561 161.109 50.564V63.1073C161.109 63.4855 161.152 63.7893 161.245 64.0125C161.337 64.242 161.418 64.4094 161.492 64.521C161.819 65.0108 162.177 65.296 162.56 65.3704C162.942 65.4448 163.276 65.4944 163.566 65.513C163.856 65.5316 164.004 65.7114 164.004 66.0525C164.004 66.7345 163.831 67.3235 163.486 67.8134C163.14 68.3032 162.566 68.6442 161.763 68.8364C160.924 69.0224 160.109 69.1216 159.306 69.1216C158.177 69.1216 157.319 68.9232 156.714 68.5264C156.115 68.1296 155.689 67.4599 155.43 66.5113C154.522 67.3049 153.466 67.9188 152.269 68.3528C151.065 68.7868 149.812 69.041 148.503 69.1216L148.497 69.1154ZM148.392 63.5537C150.429 63.4793 152.108 63.0639 153.436 62.3074C154.763 61.551 155.393 60.4721 155.318 59.0708C155.281 58.1594 154.837 57.5394 153.979 57.1983C153.127 56.8573 152.059 56.7271 150.787 56.8015C149.003 56.8387 147.534 57.3037 146.367 58.1904C145.201 59.077 144.639 60.0753 144.676 61.1666C144.75 62.8717 145.985 63.6653 148.386 63.5475L148.392 63.5537Z" fill="#3759A8"/>
<path d="M181.999 69.3386C178.907 69.3386 176.468 67.9373 174.69 65.1409V66.2756C174.69 67.1809 174.406 67.8195 173.845 68.1791C173.283 68.5387 172.579 68.7185 171.746 68.7185C169.925 68.7185 169.017 67.6025 169.017 65.3703V31.597C169.017 29.3648 170.054 28.2488 172.128 28.2488C174.203 28.2488 175.184 29.3648 175.184 31.597V43.8551C176.061 42.8754 177.073 42.1066 178.24 41.5548C179.407 41.0091 180.66 40.7301 182.006 40.7301C184.444 40.7301 186.617 41.3005 188.525 42.4352C190.438 43.5699 191.938 45.2068 193.025 47.3459C194.117 49.485 194.661 52.0458 194.661 55.0343C194.661 58.0229 194.111 60.5899 193.025 62.7228C191.932 64.8619 190.432 66.4988 188.525 67.6335C186.617 68.7681 184.444 69.3386 182.006 69.3386H181.999ZM181.777 63.5474C183.703 63.5474 185.308 62.8096 186.58 61.3339C187.852 59.8582 188.494 57.7563 188.494 55.0343C188.494 52.3124 187.858 50.2105 186.58 48.7348C185.308 47.2591 183.709 46.5212 181.777 46.5212C179.845 46.5212 178.246 47.2591 176.974 48.7348C175.703 50.2105 175.067 52.3124 175.067 55.0343C175.067 57.7563 175.703 59.8582 176.974 61.3339C178.246 62.8096 179.845 63.5474 181.777 63.5474Z" fill="#3759A8"/>
<path d="M210.692 69.3386C208.112 69.3386 206.136 68.8488 204.772 67.8629C203.408 66.8771 202.729 64.9116 202.729 61.9602V46.9243H200.926C198.778 46.9243 197.71 46.0004 197.71 44.1403C197.71 43.2723 197.938 42.5964 198.395 42.1252C198.852 41.654 199.679 41.4184 200.877 41.4184H202.729V35.1746C202.729 32.9425 203.766 31.8264 205.84 31.8264C207.914 31.8264 208.84 32.9425 208.84 35.1746V41.4184H212.878C215.026 41.4184 216.094 42.3298 216.094 44.1403C216.094 45.9508 215.038 46.9243 212.933 46.9243H208.84V60.3171C208.84 61.6006 209.143 62.4748 209.742 62.9274C210.34 63.3801 211.205 63.6095 212.334 63.6095C213.464 63.6095 214.415 63.7521 215.088 64.0373C215.76 64.3225 216.094 65.048 216.094 66.2198C216.094 67.1685 215.828 67.8567 215.304 68.2907C214.773 68.7248 214.1 69.01 213.285 69.1402C212.47 69.2704 211.606 69.3386 210.692 69.3386Z" fill="#EFBF1B"/>
<path d="M232.249 69.3386C229.848 69.3386 227.693 68.7434 225.786 67.5529C223.878 66.3624 222.366 64.6945 221.261 62.5616C220.15 60.4225 219.6 57.9175 219.6 55.0406C219.6 52.1636 220.156 49.6587 221.261 47.5195C222.372 45.3804 223.878 43.7187 225.786 42.522C227.699 41.3316 229.848 40.7363 232.249 40.7363C234.65 40.7363 236.91 41.3316 238.824 42.522C240.731 43.7125 242.231 45.3804 243.324 47.5195C244.416 49.6587 244.96 52.1636 244.96 55.0406C244.96 57.9175 244.41 60.4225 243.324 62.5616C242.231 64.6945 240.731 66.3624 238.824 67.5529C236.91 68.7434 234.725 69.3386 232.249 69.3386ZM232.249 63.5475C234.175 63.5475 235.749 62.8096 236.965 61.3339C238.182 59.8582 238.793 57.7563 238.793 55.0344C238.793 52.3124 238.182 50.2105 236.965 48.7348C235.749 47.2591 234.175 46.5213 232.249 46.5213C230.323 46.5213 228.811 47.2591 227.613 48.7348C226.409 50.2105 225.81 52.3124 225.81 55.0344C225.81 57.7563 226.409 59.8582 227.613 61.3339C228.811 62.8096 230.36 63.5475 232.249 63.5475Z" fill="#F0A124"/>
<path d="M253.362 68.7124C251.288 68.7124 250.25 67.5963 250.25 65.3642V44.7604C250.25 42.5282 251.325 41.4122 253.467 41.4122C254.195 41.4122 254.831 41.592 255.38 41.9516C255.924 42.3112 256.195 42.9809 256.195 43.9667V45.275C256.85 43.9109 257.874 42.8135 259.282 41.9826C260.683 41.1518 262.165 40.7363 263.727 40.7363C264.856 40.7363 265.714 41.0463 266.319 41.6726C266.918 42.2988 267.221 43.1421 267.221 44.1961C267.221 45.182 266.986 45.9012 266.511 46.3539C266.035 46.8065 265.492 46.9987 264.875 46.9181C264.585 46.8809 264.276 46.8561 263.949 46.8313C263.622 46.8065 263.257 46.8003 262.856 46.8003C261.072 46.8003 259.554 47.4079 258.3 48.617C257.047 49.8261 256.418 51.5312 256.418 53.7261V65.358C256.418 67.5901 255.399 68.7062 253.362 68.7062V68.7124Z" fill="#F18221"/>
<path d="M274.369 80.0095H272.894C271.875 79.9351 271.11 79.6065 270.604 79.0175C270.097 78.4284 269.838 77.6658 269.838 76.7233C269.838 74.8322 270.455 73.9766 271.69 74.1688C272.054 74.206 272.4 74.237 272.727 74.2556C273.054 74.2742 273.382 74.2866 273.709 74.2866C274.69 74.2866 275.425 74.175 275.919 73.9456C276.406 73.7161 276.802 73.3379 277.092 72.8109C277.382 72.2777 277.709 71.5646 278.073 70.6532L278.783 68.6628L269.894 45.2813C269.455 44.0722 269.406 43.1236 269.733 42.4415C270.06 41.7595 270.696 41.4185 271.641 41.4185H272.023C273.875 41.4185 275.098 42.3113 275.678 44.0846L281.462 60.9992L286.864 44.1404C287.481 42.3237 288.697 41.4185 290.518 41.4185C291.574 41.4185 292.303 41.7595 292.698 42.4415C293.099 43.1236 293.099 44.0722 292.698 45.2813L283.314 72.5257C282.438 75.0244 281.376 76.8969 280.123 78.1432C278.863 79.3895 276.95 80.0157 274.369 80.0157V80.0095Z" fill="#CF264B"/>
<path d="M47.9472 27.2692H47.9102C37.7984 27.2444 30.4832 16.5984 30.1807 16.1458C29.7918 15.5691 29.9399 14.7879 30.514 14.3972C31.0881 14.0066 31.866 14.1554 32.2549 14.7321C32.3228 14.8313 39.1442 24.7395 47.9287 24.7519H47.9472C53.071 24.7519 57.9726 21.3789 62.5161 14.7259C62.9111 14.1492 63.689 14.0066 64.2631 14.3972C64.831 14.7941 64.9792 15.5753 64.5903 16.152C59.5529 23.5304 53.9538 27.2754 47.9534 27.2754L47.9472 27.2692Z" fill="#F0A124"/>
<path d="M79.2521 56.194C78.9373 56.194 78.6286 56.0762 78.4002 55.8592L71.2639 49.2062C70.7577 48.735 70.7269 47.9351 71.196 47.4267C71.6714 46.9183 72.4615 46.8873 72.9677 47.3585L79.1595 53.131L90.5985 40.0421L78.2829 25.093C77.8384 24.5597 77.9125 23.7661 78.4496 23.3197C78.9805 22.8794 79.7768 22.9539 80.2151 23.4871L93.2159 39.2608C93.611 39.7382 93.5987 40.4327 93.1912 40.8977L80.1904 55.7662C79.9682 56.0204 79.6472 56.1754 79.3138 56.194C79.2953 56.194 79.2706 56.194 79.2521 56.194Z" fill="#CF264B"/>
<path d="M14.2541 54.3835C13.9207 54.3835 13.5936 54.2533 13.3528 53.999L0.351981 40.4885C-0.0986647 40.0234 -0.117184 39.2918 0.296422 38.7958L13.2972 23.4747C13.7479 22.9476 14.5381 22.8794 15.0628 23.332C15.5875 23.7847 15.6554 24.5783 15.2048 25.1054L2.95091 39.5584L14.4331 51.4941L20.6557 47.3771C21.236 46.9926 22.0138 47.1538 22.3904 47.7367C22.7732 48.3195 22.6126 49.1008 22.0324 49.479L14.9393 54.1727C14.7294 54.3153 14.4887 54.3835 14.2479 54.3835H14.2541Z" fill="#CF264B"/>
<path d="M69.4984 89H24.0017C23.3103 89 22.7547 88.442 22.7486 87.7538C22.2362 29.6874 13.8097 24.1815 13.7233 24.1319C13.2727 23.9644 13.0072 23.58 12.9578 23.1026C12.9084 22.6252 13.1862 22.1787 13.5875 21.9245C50.7565 -1.48184 79.7583 21.7819 80.0485 22.0175C80.3633 22.2779 80.5362 22.681 80.5053 23.0902C80.4744 23.4994 80.246 23.8714 79.8941 24.0761C73.19 28.0629 70.7578 64.335 70.7578 87.7414C70.7578 88.4358 70.196 89 69.5046 89H69.4984ZM25.2426 86.4765H68.2514C68.3008 76.8845 68.9675 32.3845 77.2397 23.0716C71.6035 19.184 47.0402 4.72472 16.2975 23.208C19.1804 26.9034 24.7425 40.0358 25.2487 86.4765H25.2426Z" fill="#3759A8"/>
<path d="M35.9466 20.2565C35.7614 20.2565 35.5762 20.2131 35.3972 20.1263C34.7737 19.8225 34.5144 19.0661 34.8231 18.4398C35.6565 16.7347 37.8418 11.7993 37.9961 9.51132C38.0023 9.40592 38.0208 9.30051 38.0579 9.1951C38.1813 8.82928 41.0828 0.291383 47.1634 0.0433684C48.1881 -0.117841 53.4971 -0.415458 57.2072 9.70973C57.2319 9.77794 57.2504 9.84614 57.2628 9.91434C57.7752 12.7045 58.8987 17.1192 59.7876 18.1794C60.2321 18.7127 60.1642 19.5063 59.6333 19.9527C59.1024 20.3992 58.3122 20.331 57.8678 19.7977C56.2812 17.8942 55.0898 11.9295 54.8182 10.4786C51.6266 1.84767 47.614 2.51731 47.5708 2.52971C47.5029 2.54211 47.4041 2.55451 47.3301 2.56072C43.7681 2.65372 41.2371 7.72562 40.4901 9.85234C40.1876 13.0889 37.4035 18.8863 37.0825 19.5435C36.8664 19.9899 36.4158 20.2503 35.9528 20.2503L35.9466 20.2565Z" fill="#CF264B"/>
</g>
<defs>
<clipPath id="clip0_239_162">
<rect width="293" height="89" fill="white"/>
</clipPath>
</defs>
</svg>
