<svg width="188" height="87" viewBox="0 0 188 87" fill="none" xmlns="http://www.w3.org/2000/svg">
<path d="M188 84.1066H50.8882V32.8691H188L175.062 59.5529L188 84.1066Z" fill="url(#paint0_linear_181_254)"/>
<path d="M61.8371 37.6952L61.833 37.4244L62.652 37.4123L62.6561 37.6831L61.8371 37.6952ZM63.7495 37.6684L63.7454 37.3976L64.5645 37.3855L64.5685 37.6563L63.7495 37.6684ZM65.6619 37.6416L65.6579 37.3708L66.4769 37.3587L66.481 37.6295L65.6619 37.6416ZM67.5744 37.6147L67.5703 37.344L68.3894 37.3319L68.3934 37.6027L67.5744 37.6147ZM69.4868 37.5879L69.4828 37.3171L70.3018 37.3051L70.3059 37.5759L69.4868 37.5879ZM71.3993 37.5611L71.3952 37.2903L72.2142 37.2783L72.2183 37.5491L71.3993 37.5611ZM73.3117 37.5343L73.3077 37.2635L74.1267 37.2515L74.1307 37.5222L73.3117 37.5343ZM75.2241 37.5075L75.2201 37.2367L76.0391 37.2246L76.0432 37.4954L75.2241 37.5075ZM77.1366 37.4807L77.1325 37.2099L77.9516 37.1978L77.9556 37.4686L77.1366 37.4807ZM79.049 37.4539L79.045 37.1831L79.864 37.171L79.8681 37.4418L79.049 37.4539ZM80.9615 37.4271L80.9574 37.1563L81.7764 37.1442L81.7805 37.415L80.9615 37.4271ZM82.8739 37.4003L82.8699 37.1295L83.6889 37.1174L83.6929 37.3882L82.8739 37.4003ZM84.7864 37.3734L84.7823 37.1027L85.6013 37.0906L85.6054 37.3614L84.7864 37.3734ZM86.6988 37.3466L86.6947 37.0758L87.5138 37.0638L87.5178 37.3346L86.6988 37.3466ZM88.6112 37.3198L88.6072 37.049L89.4262 37.037L89.4303 37.3078L88.6112 37.3198ZM90.5237 37.293L90.5196 37.0222L91.3387 37.0102L91.3427 37.281L90.5237 37.293ZM92.4361 37.2662L92.4321 36.9954L93.2511 36.9833L93.2551 37.2541L92.4361 37.2662ZM94.3486 37.2394L94.3445 36.9686L95.1635 36.9565L95.1676 37.2273L94.3486 37.2394ZM96.261 37.2126L96.2569 36.9418L97.076 36.9297L97.08 37.2005L96.261 37.2126ZM98.1734 37.1858L98.1694 36.915L98.9884 36.9029L98.9925 37.1737L98.1734 37.1858ZM100.086 37.159L100.082 36.8882L100.901 36.8761L100.905 37.1469L100.086 37.159ZM101.998 37.1321L101.994 36.8614L102.813 36.8493L102.817 37.1201L101.998 37.1321ZM103.911 37.1053L103.907 36.8345L104.726 36.8225L104.73 37.0933L103.911 37.1053ZM105.823 37.0785L105.819 36.8077L106.638 36.7957L106.642 37.0665L105.823 37.0785ZM107.736 37.0517L107.732 36.7809L108.551 36.7689L108.555 37.0396L107.736 37.0517ZM109.648 37.0249L109.644 36.7541L110.463 36.742L110.467 37.0128L109.648 37.0249ZM111.561 36.9981L111.556 36.7273L112.375 36.7152L112.38 36.986L111.561 36.9981ZM113.473 36.9713L113.469 36.7005L114.288 36.6884L114.292 36.9592L113.473 36.9713ZM115.385 36.9445L115.381 36.6737L116.2 36.6616L116.204 36.9324L115.385 36.9445ZM117.298 36.9177L117.294 36.6469L118.113 36.6348L118.117 36.9056L117.298 36.9177ZM119.21 36.8908L119.206 36.6201L120.025 36.608L120.029 36.8788L119.21 36.8908ZM121.123 36.864L121.119 36.5932L121.938 36.5812L121.942 36.852L121.123 36.864ZM123.035 36.8372L123.031 36.5664L123.85 36.5544L123.854 36.8252L123.035 36.8372ZM124.948 36.8104L124.944 36.5396L125.763 36.5276L125.767 36.7983L124.948 36.8104ZM126.86 36.7836L126.856 36.5128L127.675 36.5007L127.679 36.7715L126.86 36.7836ZM128.772 36.7568L128.768 36.486L129.587 36.4739L129.592 36.7447L128.772 36.7568ZM130.685 36.73L130.681 36.4592L131.5 36.4471L131.504 36.7179L130.685 36.73ZM132.597 36.7032L132.593 36.4324L133.412 36.4203L133.416 36.6911L132.597 36.7032ZM134.51 36.6764L134.506 36.4056L135.325 36.3935L135.329 36.6643L134.51 36.6764ZM136.422 36.6495L136.418 36.3788L137.237 36.3667L137.241 36.6375L136.422 36.6495ZM138.335 36.6227L138.331 36.3519L139.15 36.3399L139.154 36.6107L138.335 36.6227ZM140.247 36.5959L140.243 36.3251L141.062 36.3131L141.066 36.5839L140.247 36.5959ZM142.16 36.5691L142.156 36.2983L142.975 36.2863L142.979 36.5571L142.16 36.5691ZM144.072 36.5423L144.068 36.2715L144.887 36.2594L144.891 36.5302L144.072 36.5423ZM145.984 36.5155L145.98 36.2447L146.799 36.2326L146.803 36.5034L145.984 36.5155ZM147.897 36.4887L147.893 36.2179L148.712 36.2058L148.716 36.4766L147.897 36.4887ZM149.809 36.4619L149.805 36.1911L150.624 36.179L150.628 36.4498L149.809 36.4619ZM151.722 36.4351L151.718 36.1643L152.537 36.1522L152.541 36.423L151.722 36.4351ZM153.634 36.4082L153.63 36.1375L154.449 36.1254L154.453 36.3962L153.634 36.4082ZM155.547 36.3814L155.543 36.1106L156.362 36.0986L156.366 36.3694L155.547 36.3814ZM157.459 36.3546L157.455 36.0838L158.274 36.0718L158.278 36.3426L157.459 36.3546ZM159.372 36.3278L159.367 36.057L160.187 36.045L160.191 36.3157L159.372 36.3278ZM161.284 36.301L161.28 36.0302L162.099 36.0181L162.103 36.2889L161.284 36.301ZM163.196 36.2742L163.192 36.0034L164.011 35.9913L164.015 36.2621L163.196 36.2742ZM165.109 36.2474L165.105 35.9766L165.924 35.9645L165.928 36.2353L165.109 36.2474ZM167.021 36.2206L167.017 35.9498L167.836 35.9377L167.84 36.2085L167.021 36.2206ZM168.934 36.1938L168.93 35.923L169.749 35.9109L169.753 36.1817L168.934 36.1938ZM170.846 36.1669L170.842 35.8962L171.661 35.8841L171.665 36.1549L170.846 36.1669ZM172.759 36.1401L172.755 35.8693L173.574 35.8573L173.578 36.1281L172.759 36.1401ZM174.671 36.1133L174.667 35.8425L175.486 35.8305L175.49 36.1013L174.671 36.1133ZM176.583 36.0865L176.579 35.8157L177.398 35.8037L177.403 36.0744L176.583 36.0865ZM178.496 36.0597L178.492 35.7889L179.311 35.7768L179.315 36.0476L178.496 36.0597ZM180.408 36.0329L180.404 35.7621L181.223 35.75L181.227 36.0208L180.408 36.0329ZM182.321 36.0061L182.317 35.7353L183.136 35.7232L183.14 35.994L182.321 36.0061ZM184.233 35.9793L184.229 35.7085L185.048 35.6964L185.052 35.9672L184.233 35.9793Z" fill="white"/>
<path d="M61.8371 81.8048L61.833 81.534L62.652 81.5219L62.6561 81.7927L61.8371 81.8048ZM63.7495 81.778L63.7454 81.5072L64.5645 81.4951L64.5685 81.7659L63.7495 81.778ZM65.6619 81.7512L65.6579 81.4804L66.4769 81.4683L66.481 81.7391L65.6619 81.7512ZM67.5744 81.7244L67.5703 81.4536L68.3894 81.4415L68.3934 81.7123L67.5744 81.7244ZM69.4868 81.6976L69.4828 81.4268L70.3018 81.4147L70.3059 81.6855L69.4868 81.6976ZM71.3993 81.6707L71.3952 81.4L72.2142 81.3879L72.2183 81.6587L71.3993 81.6707ZM73.3117 81.6439L73.3077 81.3731L74.1267 81.3611L74.1307 81.6319L73.3117 81.6439ZM75.2241 81.6171L75.2201 81.3463L76.0391 81.3343L76.0432 81.6051L75.2241 81.6171ZM77.1366 81.5903L77.1325 81.3195L77.9516 81.3075L77.9556 81.5782L77.1366 81.5903ZM79.049 81.5635L79.045 81.2927L79.864 81.2806L79.8681 81.5514L79.049 81.5635ZM80.9615 81.5367L80.9574 81.2659L81.7764 81.2538L81.7805 81.5246L80.9615 81.5367ZM82.8739 81.5099L82.8699 81.2391L83.6889 81.227L83.6929 81.4978L82.8739 81.5099ZM84.7864 81.4831L84.7823 81.2123L85.6013 81.2002L85.6054 81.471L84.7864 81.4831ZM86.6988 81.4563L86.6947 81.1855L87.5138 81.1734L87.5178 81.4442L86.6988 81.4563ZM88.6112 81.4294L88.6072 81.1586L89.4262 81.1466L89.4303 81.4174L88.6112 81.4294ZM90.5237 81.4026L90.5196 81.1318L91.3387 81.1198L91.3427 81.3906L90.5237 81.4026ZM92.4361 81.3758L92.4321 81.105L93.2511 81.093L93.2551 81.3638L92.4361 81.3758ZM94.3486 81.349L94.3445 81.0782L95.1635 81.0661L95.1676 81.3369L94.3486 81.349ZM96.261 81.3222L96.2569 81.0514L97.076 81.0393L97.08 81.3101L96.261 81.3222ZM98.1734 81.2954L98.1694 81.0246L98.9884 81.0125L98.9925 81.2833L98.1734 81.2954ZM100.086 81.2686L100.082 80.9978L100.901 80.9857L100.905 81.2565L100.086 81.2686ZM101.998 81.2418L101.994 80.971L102.813 80.9589L102.817 81.2297L101.998 81.2418ZM103.911 81.215L103.907 80.9442L104.726 80.9321L104.73 81.2029L103.911 81.215ZM105.823 81.1881L105.819 80.9173L106.638 80.9053L106.642 81.1761L105.823 81.1881ZM107.736 81.1613L107.732 80.8905L108.551 80.8785L108.555 81.1493L107.736 81.1613ZM109.648 81.1345L109.644 80.8637L110.463 80.8517L110.467 81.1225L109.648 81.1345ZM111.561 81.1077L111.556 80.8369L112.375 80.8249L112.38 81.0956L111.561 81.1077ZM113.473 81.0809L113.469 80.8101L114.288 80.798L114.292 81.0688L113.473 81.0809ZM115.385 81.0541L115.381 80.7833L116.2 80.7712L116.204 81.042L115.385 81.0541ZM117.298 81.0273L117.294 80.7565L118.113 80.7444L118.117 81.0152L117.298 81.0273ZM119.21 81.0005L119.206 80.7297L120.025 80.7176L120.029 80.9884L119.21 81.0005ZM121.123 80.9737L121.119 80.7029L121.938 80.6908L121.942 80.9616L121.123 80.9737ZM123.035 80.9468L123.031 80.6761L123.85 80.664L123.854 80.9348L123.035 80.9468ZM124.948 80.92L124.944 80.6492L125.763 80.6372L125.767 80.908L124.948 80.92ZM126.86 80.8932L126.856 80.6224L127.675 80.6104L127.679 80.8812L126.86 80.8932ZM128.772 80.8664L128.768 80.5956L129.587 80.5836L129.592 80.8543L128.772 80.8664ZM130.685 80.8396L130.681 80.5688L131.5 80.5567L131.504 80.8275L130.685 80.8396ZM132.597 80.8128L132.593 80.542L133.412 80.5299L133.416 80.8007L132.597 80.8128ZM134.51 80.786L134.506 80.5152L135.325 80.5031L135.329 80.7739L134.51 80.786ZM136.422 80.7592L136.418 80.4884L137.237 80.4763L137.241 80.7471L136.422 80.7592ZM138.335 80.7324L138.331 80.4616L139.15 80.4495L139.154 80.7203L138.335 80.7324ZM140.247 80.7055L140.243 80.4348L141.062 80.4227L141.066 80.6935L140.247 80.7055ZM142.16 80.6787L142.156 80.4079L142.975 80.3959L142.979 80.6667L142.16 80.6787ZM144.072 80.6519L144.068 80.3811L144.887 80.3691L144.891 80.6399L144.072 80.6519ZM145.984 80.6251L145.98 80.3543L146.799 80.3423L146.803 80.613L145.984 80.6251ZM147.897 80.5983L147.893 80.3275L148.712 80.3154L148.716 80.5862L147.897 80.5983ZM149.809 80.5715L149.805 80.3007L150.624 80.2886L150.628 80.5594L149.809 80.5715ZM151.722 80.5447L151.718 80.2739L152.537 80.2618L152.541 80.5326L151.722 80.5447ZM153.634 80.5179L153.63 80.2471L154.449 80.235L154.453 80.5058L153.634 80.5179ZM155.547 80.4911L155.543 80.2203L156.362 80.2082L156.366 80.479L155.547 80.4911ZM157.459 80.4642L157.455 80.1935L158.274 80.1814L158.278 80.4522L157.459 80.4642ZM159.372 80.4374L159.367 80.1666L160.187 80.1546L160.191 80.4254L159.372 80.4374ZM161.284 80.4106L161.28 80.1398L162.099 80.1278L162.103 80.3986L161.284 80.4106ZM163.196 80.3838L163.192 80.113L164.011 80.101L164.015 80.3717L163.196 80.3838ZM165.109 80.357L165.105 80.0862L165.924 80.0741L165.928 80.3449L165.109 80.357ZM167.021 80.3302L167.017 80.0594L167.836 80.0473L167.84 80.3181L167.021 80.3302ZM168.934 80.3034L168.93 80.0326L169.749 80.0205L169.753 80.2913L168.934 80.3034ZM170.846 80.2766L170.842 80.0058L171.661 79.9937L171.665 80.2645L170.846 80.2766ZM172.759 80.2498L172.755 79.979L173.574 79.9669L173.578 80.2377L172.759 80.2498ZM174.671 80.2229L174.667 79.9521L175.486 79.9401L175.49 80.2109L174.671 80.2229ZM176.583 80.1961L176.579 79.9253L177.398 79.9133L177.403 80.1841L176.583 80.1961ZM178.496 80.1693L178.492 79.8985L179.311 79.8865L179.315 80.1573L178.496 80.1693ZM180.408 80.1425L180.404 79.8717L181.223 79.8596L181.227 80.1304L180.408 80.1425ZM182.321 80.1157L182.317 79.8449L183.136 79.8328L183.14 80.1036L182.321 80.1157ZM184.233 80.0889L184.229 79.8181L185.048 79.806L185.052 80.0768L184.233 80.0889Z" fill="white"/>
<path d="M71.0059 19.2843L77.6325 4.95508L83.332 10.3401L71.0059 19.2843Z" fill="url(#paint1_linear_181_254)"/>
<path d="M65.6255 20.066L64.9241 10.5627L69.5247 11.7666L65.6255 20.066Z" fill="url(#paint2_linear_181_254)"/>
<path d="M74.4673 24.7254L80.0722 21.7842L80.9493 24.9841L74.4673 24.7254Z" fill="url(#paint3_linear_181_254)"/>
<path d="M17.3103 29.2685L13.5854 27.0606L15.2276 25.6865L17.3103 29.2685Z" fill="url(#paint4_linear_181_254)"/>
<path d="M14.2692 34.9161L4.79077 36.4725L5.58143 31.8181L14.2692 34.9161Z" fill="url(#paint5_linear_181_254)"/>
<path d="M20.6352 23.6865L16.636 13.694L22.2801 12.8105L20.6352 23.6865Z" fill="url(#paint6_linear_181_254)"/>
<path d="M78.9977 44.3457C80.1438 40.7329 80.0032 37.5343 78.5773 34.8264C76.2473 30.4026 71.329 29.1505 71.1411 29.1036C64.528 27.4185 58.2906 28.0647 54.263 28.8878C57.9946 18.5722 58.2419 10.7192 54.9928 5.52184C51.868 0.525588 46.7051 0.0282412 46.4875 0.00947342L46.3253 0.00143008C39.0824 -0.0977711 36.4942 4.9883 36.136 7.70025L36.1184 7.90535C35.717 17.8644 34.6155 20.9342 34.2668 21.6702L34.1884 21.7144L33.8816 22.1944C28.4971 30.6425 25.5858 40.1578 25.4507 40.6069C24.7289 43.2009 22.9408 44.2519 21.7542 44.6715C21.5001 44.4315 21.2338 44.2036 20.9419 44.0066C18.9349 42.6459 16.7954 42.859 16.2155 42.9502L9.12803 43.772C5.82754 43.9945 3.3461 45.1018 1.75128 47.063C-0.113861 49.3567 -0.0489867 51.9815 0.0307546 52.8247C-0.0449321 55.6694 0.382157 58.5717 0.440274 58.9497L2.26081 73.3018C2.86225 77.8704 3.8678 80.7003 3.91105 80.8183L4.01242 81.0569C6.18165 85.4365 10.2174 86.584 13.1421 86.584C13.8882 86.584 14.564 86.5089 15.1154 86.395L18.5213 85.9378C21.9785 85.5571 24.4613 84.3426 25.9048 82.3331C31.6624 82.8157 37.593 82.9846 43.0478 82.9846C55.2456 82.9846 65.0564 82.1494 65.2038 82.136L65.4227 82.1065C74.6605 80.404 76.6771 73.405 76.4581 68.8873C78.3273 67.4569 79.4991 65.6767 79.9478 63.5787C80.5479 60.7796 79.6761 58.1655 78.8909 56.5327C82.5266 52.2188 80.9277 47.236 78.9963 44.3457H78.9977Z" fill="url(#paint7_linear_181_254)"/>
<path d="M78.9977 44.3457C80.1438 40.7329 80.0032 37.5343 78.5773 34.8264C76.2473 30.4026 71.329 29.1505 71.1411 29.1036C64.528 27.4185 58.2906 28.0647 54.263 28.8878C57.9946 18.5722 58.2419 10.7192 54.9928 5.52184C51.868 0.525588 46.7051 0.0282412 46.4875 0.00947342L46.3253 0.00143008C39.0824 -0.0977711 36.4942 4.9883 36.136 7.70025L36.1184 7.90535C35.717 17.8644 34.6155 20.9342 34.2668 21.6702L34.1884 21.7144L33.8816 22.1944C28.4971 30.6425 25.5858 40.1578 25.4507 40.6069C24.7289 43.2009 22.9408 44.2519 21.7542 44.6715C21.5001 44.4315 21.2338 44.2036 20.9419 44.0066C18.9349 42.6459 16.7954 42.859 16.2155 42.9502L9.12802 43.772C5.82754 43.9945 3.3461 45.1018 1.75128 47.063C-0.113861 49.3567 -0.0489867 51.9815 0.0307546 52.8247C-0.0449321 55.6694 0.382157 58.5717 0.440274 58.9497L2.26081 73.3018C2.86225 77.8704 3.8678 80.7003 3.91105 80.8183L4.01241 81.0569C6.18165 85.4365 10.2174 86.584 13.1421 86.584C13.8882 86.584 14.5639 86.5089 15.1154 86.395L18.5213 85.9378C21.9785 85.5571 24.4613 84.3426 25.9034 82.3331C31.661 82.8157 37.5916 82.9846 43.0465 82.9846C55.2442 82.9846 65.0551 82.1494 65.2024 82.136L65.4213 82.1065C74.6592 80.404 76.6757 73.405 76.4567 68.8873C78.3259 67.4569 79.4977 65.6767 79.9464 63.5787C80.5465 60.7796 79.6748 58.1655 78.8895 56.5327C82.5252 52.2188 80.9263 47.236 78.9949 44.3457H78.9977ZM22.1596 79.6761C21.5217 80.5729 20.0877 81.1681 17.959 81.4041L14.4085 81.88L14.2274 81.9108C13.799 82.0006 10.0363 82.6629 8.21032 79.1667C8.03057 78.6238 7.29533 76.259 6.83039 72.7213L5.00715 58.3492L4.99769 58.2822C4.99364 58.254 4.55303 55.404 4.63953 52.8087L4.64629 52.6009L4.61521 52.3944C4.61385 52.381 4.46924 50.9976 5.33693 49.9318C6.09921 48.9948 7.49535 48.4545 9.48754 48.3272L16.8089 47.4813L16.8062 47.4947L16.9467 47.4612C17.7117 47.3445 19.0605 47.5376 19.5376 50.1048L22.5043 77.8167L22.5529 78.1009C22.5543 78.109 22.684 78.9401 22.161 79.6761H22.1596ZM74.1456 57.4617C74.1645 57.4885 75.985 60.1576 75.439 62.6497C75.1647 63.9004 74.3145 64.934 72.8373 65.8134L71.4939 66.6271L71.7534 68.162C71.8885 68.965 72.8373 76.0284 64.6888 77.5942C63.0724 77.7269 44.4305 79.2002 27.1482 77.8503C27.1293 77.5902 27.0982 77.3797 27.0725 77.2376L24.1086 49.5417L24.087 49.3889C24.0464 49.1556 23.9937 48.9344 23.941 48.7133C26.0548 47.8151 28.7566 45.9061 29.8783 41.8737C29.9054 41.7826 32.6558 32.7915 37.5889 24.9345C38.6026 23.8861 40.2082 20.5857 40.7164 8.21636C40.8164 7.66942 41.5814 4.56871 46.0969 4.56871H46.1388C46.6308 4.63976 49.3866 5.15721 51.126 8.0059C52.9236 10.9511 54.0373 17.06 49.1271 29.4562L46.5456 36.1871L51.3261 34.4041C51.4166 34.3706 60.4112 31.0863 70.0004 33.5288C70.0315 33.5368 73.1657 34.376 74.5105 36.9713C75.439 38.7623 75.3579 41.1002 74.2699 43.9194L73.7955 45.1782L74.6592 46.2064C75.3187 46.992 78.4138 51.082 74.5267 54.4321L72.9819 55.7793L74.1456 57.459V57.4617Z" fill="url(#paint8_linear_181_254)"/>
<path d="M101.818 61.0382L101.775 38.3667L107.391 38.356C108.407 38.3546 109.324 38.4458 110.143 38.6308C110.962 38.8158 111.667 39.1268 112.26 39.5638C112.854 40.0008 113.311 40.5934 113.632 41.3387C113.954 42.0841 114.115 43.0265 114.117 44.1646C114.119 45.0789 113.993 45.8631 113.74 46.5159C113.488 47.1701 113.117 47.6889 112.628 48.071C112.139 48.4544 111.529 48.7118 110.795 48.8445C111.698 48.9919 112.447 49.303 113.04 49.7775C113.634 50.2521 114.077 50.8714 114.37 51.6369C114.663 52.401 114.811 53.3246 114.814 54.4065C114.816 55.4883 114.681 56.4454 114.409 57.2766C114.138 58.1077 113.735 58.7995 113.2 59.3504C112.665 59.9014 111.997 60.3183 111.198 60.5998C110.399 60.8813 109.463 61.0234 108.391 61.0248L101.816 61.0369L101.818 61.0382ZM105.969 47.6232L107.38 47.6206C108.207 47.6192 108.848 47.4972 109.298 47.2532C109.749 47.0106 110.063 46.6366 110.241 46.1325C110.418 45.6285 110.507 44.9944 110.506 44.229C110.505 43.4273 110.367 42.8066 110.094 42.3683C109.82 41.9299 109.41 41.6323 108.864 41.4755C108.318 41.3186 107.622 41.2395 106.776 41.2409H105.958L105.97 47.6246L105.969 47.6232ZM105.989 58.1185L107.569 58.1158C108.829 58.1131 109.684 57.8088 110.136 57.2015C110.586 56.5942 110.81 55.6559 110.808 54.3877C110.806 53.4734 110.695 52.7321 110.479 52.1637C110.262 51.5953 109.903 51.1717 109.405 50.8929C108.906 50.614 108.242 50.4746 107.414 50.4773L105.974 50.48L105.989 58.1211V58.1185Z" fill="white"/>
<path d="M117.535 61.0087L117.492 38.3373L127.087 38.3198L127.092 41.2302L121.674 41.2409L121.686 47.7627L125.947 47.7547L125.953 50.6382L121.691 50.6462L121.706 58.1467L127.18 58.1359L127.185 60.9913L117.534 61.0087H117.535Z" fill="white"/>
<path d="M135.37 61.2823C133.997 61.285 132.848 61.0209 131.927 60.4914C131.004 59.9619 130.306 59.1843 129.835 58.1588C129.361 57.1333 129.097 55.8745 129.037 54.3811L132.62 53.6746C132.659 54.5514 132.769 55.3262 132.948 55.9978C133.128 56.6695 133.403 57.1869 133.77 57.5502C134.138 57.9135 134.622 58.0945 135.225 58.0931C135.902 58.0931 136.381 57.8907 136.663 57.4885C136.944 57.0864 137.084 56.5783 137.083 55.963C137.082 54.9736 136.853 54.1626 136.4 53.5299C135.948 52.8971 135.345 52.263 134.591 51.6303L131.708 49.1168C130.897 48.4277 130.252 47.6596 129.771 46.811C129.29 45.9624 129.048 44.9141 129.045 43.6634C129.041 41.8724 129.566 40.4903 130.617 39.5184C131.669 38.5465 133.107 38.0585 134.931 38.0545C136.003 38.0518 136.898 38.214 137.613 38.5398C138.328 38.8655 138.898 39.3173 139.322 39.8937C139.747 40.4715 140.063 41.1284 140.271 41.8657C140.479 42.603 140.613 43.3819 140.671 44.2023L137.117 44.8243C137.077 44.1151 136.996 43.4811 136.873 42.922C136.75 42.363 136.533 41.9247 136.222 41.6083C135.911 41.2919 135.454 41.1337 134.853 41.1351C134.232 41.1351 133.757 41.3375 133.43 41.7397C133.101 42.1418 132.938 42.6405 132.939 43.2384C132.94 44.0039 133.101 44.6326 133.423 45.1273C133.743 45.6219 134.205 46.1286 134.808 46.6501L137.663 49.1355C138.605 49.9171 139.41 50.8353 140.081 51.8877C140.75 52.9414 141.086 54.2135 141.09 55.7069C141.093 56.7888 140.854 57.7499 140.377 58.5905C139.898 59.431 139.232 60.0906 138.376 60.5678C137.521 61.045 136.519 61.285 135.372 61.2877L135.37 61.2823Z" fill="white"/>
<path d="M145.838 60.9553L145.8 41.3349L142.161 41.3416L142.155 38.2905L153.556 38.269L153.561 41.3202L149.977 41.3269L150.015 60.9472L145.838 60.9553Z" fill="white"/>
<path d="M106.677 78.8932C105.753 78.8932 104.98 78.7136 104.36 78.3556C103.739 77.9977 103.27 77.4736 102.954 76.7818C102.638 76.0914 102.461 75.2429 102.421 74.2388L104.834 73.7683C104.86 74.3594 104.931 74.8796 105.053 75.3327C105.173 75.7845 105.357 76.133 105.604 76.3783C105.852 76.6236 106.177 76.7456 106.583 76.7456C107.038 76.7456 107.361 76.6102 107.552 76.3408C107.742 76.0713 107.837 75.7282 107.837 75.3139C107.837 74.6477 107.686 74.1021 107.382 73.6744C107.077 73.2481 106.672 72.8205 106.165 72.3929L104.227 70.697C103.682 70.2319 103.249 69.7144 102.926 69.142C102.602 68.5709 102.442 67.8644 102.442 67.0226C102.442 65.8161 102.796 64.8871 103.505 64.2342C104.215 63.5814 105.183 63.2543 106.411 63.2543C107.133 63.2543 107.734 63.3642 108.215 63.584C108.697 63.8039 109.079 64.1082 109.364 64.4983C109.649 64.8884 109.862 65.3308 110.001 65.8268C110.14 66.3228 110.229 66.847 110.267 67.4006L107.874 67.8148C107.848 67.3376 107.794 66.91 107.713 66.5333C107.63 66.1566 107.484 65.8617 107.276 65.6472C107.067 65.434 106.76 65.3268 106.354 65.3268C105.949 65.3268 105.616 65.4622 105.395 65.7316C105.173 66.0024 105.062 66.3376 105.062 66.7397C105.062 67.2545 105.169 67.6794 105.385 68.0119C105.6 68.3444 105.911 68.6875 106.317 69.0388L108.236 70.7158C108.868 71.244 109.41 71.862 109.86 72.5711C110.309 73.2803 110.535 74.1383 110.535 75.1437C110.535 75.8729 110.374 76.5191 110.051 77.0848C109.728 77.6505 109.278 78.0929 108.702 78.4133C108.126 78.7337 107.452 78.8932 106.679 78.8932H106.677Z" fill="white"/>
<path d="M112.035 78.6855V63.4232H118.494V65.3831H114.846V69.7734H117.714V71.7146H114.846V76.7644H118.532V78.6868H112.035V78.6855Z" fill="white"/>
<path d="M120.166 78.6855V63.4232H122.977V76.7631H126.701V78.6855H120.166Z" fill="white"/>
<path d="M128.086 78.6855V63.4232H130.897V76.7631H134.621V78.6855H128.086Z" fill="white"/>
<path d="M136.007 78.6855V63.4232H142.466V65.3831H138.818V69.7734H141.686V71.7146H138.818V76.7644H142.504V78.6868H136.007V78.6855Z" fill="white"/>
<path d="M144.138 78.6855V63.4232H147.824C148.862 63.4232 149.739 63.5452 150.455 63.7905C151.17 64.0359 151.715 64.4528 152.089 65.044C152.462 65.6351 152.65 66.4381 152.65 67.4556C152.65 68.0709 152.593 68.6232 152.48 69.1139C152.366 69.6032 152.173 70.0214 151.9 70.3673C151.627 70.7132 151.251 70.9799 150.77 71.1676L152.916 78.6855H150.105L148.244 71.6945H146.952V78.6855H144.141H144.138ZM146.949 69.9423H147.824C148.369 69.9423 148.802 69.8646 149.125 69.7064C149.448 69.5496 149.68 69.2989 149.819 68.953C149.958 68.6072 150.028 68.1648 150.028 67.6245C150.028 66.8591 149.886 66.284 149.601 65.9006C149.316 65.5172 148.775 65.3255 147.977 65.3255H146.951V69.9423H146.949Z" fill="white"/>
<defs>
<linearGradient id="paint0_linear_181_254" x1="182.045" y1="94.3364" x2="57.3563" y2="21.7576" gradientUnits="userSpaceOnUse">
<stop offset="0.18" stop-color="#75B94E"/>
<stop offset="0.63" stop-color="#599334"/>
</linearGradient>
<linearGradient id="paint1_linear_181_254" x1="72.4733" y1="9.21336" x2="77.4253" y2="15.2155" gradientUnits="userSpaceOnUse">
<stop offset="0.18" stop-color="#75B94E"/>
<stop offset="0.63" stop-color="#599334"/>
</linearGradient>
<linearGradient id="paint2_linear_181_254" x1="63.8392" y1="11.4604" x2="68.7881" y2="17.4603" gradientUnits="userSpaceOnUse">
<stop offset="0.18" stop-color="#75B94E"/>
<stop offset="0.63" stop-color="#599334"/>
</linearGradient>
<linearGradient id="paint3_linear_181_254" x1="76.8539" y1="22.7595" x2="79.6062" y2="26.0948" gradientUnits="userSpaceOnUse">
<stop offset="0.18" stop-color="#75B94E"/>
<stop offset="0.63" stop-color="#599334"/>
</linearGradient>
<linearGradient id="paint4_linear_181_254" x1="14.3112" y1="26.2107" x2="16.3712" y2="29.8072" gradientUnits="userSpaceOnUse">
<stop offset="0.18" stop-color="#75B94E"/>
<stop offset="0.63" stop-color="#599334"/>
</linearGradient>
<linearGradient id="paint5_linear_181_254" x1="6.85053" y1="31.0915" x2="10.331" y2="37.1714" gradientUnits="userSpaceOnUse">
<stop offset="0.18" stop-color="#75B94E"/>
<stop offset="0.63" stop-color="#599334"/>
</linearGradient>
<linearGradient id="paint6_linear_181_254" x1="18.2633" y1="12.7623" x2="23.5594" y2="22.0107" gradientUnits="userSpaceOnUse">
<stop offset="0.18" stop-color="#75B94E"/>
<stop offset="0.63" stop-color="#599334"/>
</linearGradient>
<linearGradient id="paint7_linear_181_254" x1="16.3939" y1="15.1806" x2="57.8423" y2="87.5594" gradientUnits="userSpaceOnUse">
<stop stop-color="white"/>
<stop offset="0.97" stop-color="#F2F2F2"/>
<stop offset="1"/>
</linearGradient>
<linearGradient id="paint8_linear_181_254" x1="16.3939" y1="15.1806" x2="57.8423" y2="87.5594" gradientUnits="userSpaceOnUse">
<stop offset="0.18" stop-color="#75B94E"/>
<stop offset="0.63" stop-color="#599334"/>
</linearGradient>
</defs>
</svg>
