<svg width="148" height="192" viewBox="0 0 148 192" fill="none" xmlns="http://www.w3.org/2000/svg">
<g clip-path="url(#clip0_22_373)">
<path d="M62.8342 191.997C96.3923 191.997 123.597 188.821 123.597 184.903C123.597 180.985 96.3923 177.809 62.8342 177.809C29.2761 177.809 2.07187 180.985 2.07187 184.903C2.07187 188.821 29.2761 191.997 62.8342 191.997Z" fill="#E6E7E8"/>
<path d="M56.0294 113.184L55.7638 124.482L55.5151 135.047L55.276 145.212C55.2591 145.938 54.6579 146.514 53.9334 146.497L1.27982 145.253C0.55298 145.236 -0.0193154 144.634 -0.00241211 143.908L0.236648 133.742L0.485367 123.18L0.75099 111.879C0.767893 111.153 1.36917 110.579 2.09359 110.594L54.7472 111.838C55.4716 111.855 56.0463 112.457 56.0294 113.186V113.184Z" fill="#DBC59C"/>
<path d="M0.487857 123.17L0.239471 133.734L55.5146 135.04L55.763 124.475L0.487857 123.17Z" fill="#FFDABD"/>
<path d="M37.8005 114.72L36.9264 114.699C37.2572 100.619 33.1159 93.1501 28.8514 93.0484C24.587 92.9467 20.1004 100.213 19.7671 114.292L18.893 114.27C19.0524 107.445 20.1777 101.73 22.1408 97.7391C23.9398 94.0867 26.3304 92.1093 28.8707 92.1698C31.4135 92.2303 33.7075 94.3191 35.3326 98.0513C37.1075 102.13 37.9623 107.892 37.8005 114.718V114.72Z" fill="#231F20"/>
<path d="M34.1977 81.1089C33.4926 80.7556 32.6378 80.9782 32.179 81.6245C27.7406 87.9029 24.517 87.7431 24.3866 90.9743C24.2513 94.3822 24.5556 97.2963 26.526 97.3738C28.4965 97.4512 31.3748 97.3471 32.2079 96.4371C33.0386 95.527 32.3697 92.8211 33.9852 89.3866C35.6007 85.9521 37.3924 84.4442 36.6414 83.038C36.2212 82.2513 35.1008 81.5615 34.1953 81.1065L34.1977 81.1089Z" fill="#D1665E"/>
<path d="M39.6888 162.329C39.1407 164.452 38.5973 166.569 38.0613 168.588C36.7259 173.588 35.4292 177.957 34.2146 180.169C33.6495 181.196 33.1014 181.764 32.5774 181.711C28.8587 181.351 13.5757 178.85 17.8788 177.509C19.5764 176.979 20.9407 176.9 22.2857 176.776C24.3527 176.592 26.3835 176.302 29.5324 174.119C31.4835 172.766 32.6547 170.386 33.367 167.329C33.7606 165.64 34.0166 163.742 34.188 161.697L39.6888 162.327V162.329Z" fill="#231F20"/>
<path d="M105.937 182.091C105.923 183.241 105.703 183.969 105.206 184.134C101.692 185.298 86.7571 189.171 89.9784 186.242C91.251 185.087 92.439 184.47 93.5885 183.819C95.3585 182.827 97.0415 181.755 98.826 178.531C99.7678 176.832 99.8402 174.692 99.3356 172.228C98.9178 170.19 98.1016 167.927 97.0512 165.504L102.298 163.866C102.929 166.412 103.561 168.953 104.119 171.335C105.182 175.868 105.966 179.816 105.937 182.096V182.091Z" fill="#231F20"/>
<path d="M57.8308 73.9229C46.129 99.5593 34.2436 146.175 30.718 169.106C35.2577 171.04 39.3749 170.643 39.3749 170.643C39.3749 170.643 68.4292 101.764 77.1633 88.9315C85.895 76.0988 57.8308 73.9229 57.8308 73.9229Z" fill="#A7A9AC"/>
<path d="M56.2564 74.4239C57.6087 81.9197 60.5788 89.5052 69.7838 97.8651C77.3855 122.451 90.3623 158.113 97.7104 173.131C102.368 171.58 105.94 170.677 105.94 170.677C105.94 170.677 88.4523 87.9222 86.7233 71.9963C84.4317 50.8786 56.2564 74.4239 56.2564 74.4239Z" fill="#D1D3D4"/>
<path d="M54.682 66.7004C46.0251 78.0882 36.8636 87.7164 34.6154 88.9919C29.9767 91.6253 28.3661 84.2916 28.7017 82.6651C29.0398 81.0386 46.3366 49.2206 49.9201 41.3713C49.9249 41.3616 49.9274 41.352 49.9346 41.3423C52.33 36.1579 58.8426 34.299 64.4738 33.3502C67.3425 32.8662 63.9039 54.572 54.682 66.7004Z" fill="#FFBE71"/>
<path d="M81.097 85.9834C72.527 86.3368 59.4173 87.9367 55.1553 82.6288C53.6799 80.7918 53.4046 76.1761 52.8613 71.3233C51.9799 63.4571 51.7867 60.2623 51.5646 53.6571C51.3593 47.5166 55.1239 34.9187 61.0618 33.3866C63.7615 32.6895 66.5239 32.3749 68.7745 32.2417C70.3779 32.5661 72.0585 32.5443 73.7392 32.2006C75.2001 31.8981 76.6635 31.3462 78.0761 30.562C80.5536 33.0671 84.4583 34.3934 87.5347 36.2692C89.2685 37.3221 90.739 38.5516 91.5456 40.2604C91.915 41.7925 92.0744 43.0922 92.2 43.8522C92.7964 47.4101 94.1076 85.4461 81.0945 85.981L81.097 85.9834Z" fill="#F7941E"/>
<path d="M71.1162 41.4948C77.261 41.0079 81.9912 37.4275 81.6812 33.4977C81.3713 29.568 76.1386 26.777 69.9938 27.2639C63.8489 27.7508 59.1188 31.3312 59.4287 35.261C59.7387 39.1907 64.9713 41.9817 71.1162 41.4948Z" fill="#FFBE71"/>
<path d="M71.2351 33.8851C65.9396 33.9045 64.3096 31.4333 64.3796 28.7684C64.4086 27.7301 64.3917 26.6482 64.3241 25.6123C64.2661 24.7264 64.172 23.8745 64.0367 23.1096C64.0367 23.1096 73.1114 19.3024 75.019 20.5295C75.4344 20.7958 75.7579 21.5461 76.0139 22.5723C76.2119 23.3686 76.3665 24.3295 76.4872 25.363C76.9291 29.1267 76.5596 33.8681 71.2351 33.8875V33.8851Z" fill="#FF7250"/>
<path d="M76.4872 25.3606C72.5222 28.0254 67.9825 29.2501 64.3772 28.7709C64.4062 27.7326 64.3893 26.6507 64.3217 25.6147C64.2637 24.7289 64.1696 23.8769 64.0343 23.1121C64.0343 23.1121 73.109 19.3049 75.0166 20.532C75.432 20.7982 75.7555 21.5485 76.0115 22.5748C76.2095 23.3711 76.364 24.3319 76.4848 25.3654L76.4872 25.3606Z" fill="#D1665E"/>
<path d="M70.786 0.000106901C58.9682 0.188895 55.0201 6.92718 61.6123 14.0116C68.2046 21.096 66.1979 28.3232 72.7926 23.9568C79.3849 19.5905 82.5386 13.5009 81.6861 10.1922C80.6671 6.23496 78.1944 -0.11607 70.786 0.000106901Z" fill="#594A42"/>
<path d="M66.0096 2.96988C56.8359 5.95177 59.4173 24.1989 62.5686 26.7112C65.7222 29.226 75.1832 26.1158 76.3278 20.2004C77.4748 14.2851 77.1875 6.431 73.4615 4.46809C69.7355 2.50275 66.0072 2.96988 66.0072 2.96988H66.0096Z" fill="#FF7250"/>
<path d="M63.7856 6.10679C66.1955 6.41176 68.8469 9.38396 72.2904 14.1521C75.2678 18.2764 73.9469 20.5563 74.9659 20.1691C75.4078 20.0021 78.7885 18.2715 79.2666 14.9169C79.7447 11.5647 79.8389 9.45657 78.3103 6.96602C76.7818 4.47547 78.1196 3.32579 74.3912 2.75217C70.6652 2.17854 67.7965 2.36975 65.6957 2.75217C63.5924 3.13459 60.632 6.00998 60.632 6.00998L63.7856 6.10679Z" fill="#594A42"/>
<path d="M110.6 118.794C110.871 119.544 110.484 120.372 109.736 120.646C108.987 120.917 108.161 120.529 107.889 119.779C107.616 119.029 108.004 118.201 108.753 117.928C109.502 117.656 110.327 118.044 110.6 118.794Z" fill="#726658"/>
<path d="M128.532 112.288C128.786 112.99 128.424 113.764 127.723 114.018C127.023 114.273 126.25 113.91 125.997 113.208C125.743 112.506 126.105 111.731 126.806 111.477C127.506 111.223 128.279 111.586 128.532 112.288Z" fill="#726658"/>
<path d="M133.27 107.115L101.048 118.819C99.589 119.349 98.8346 120.965 99.3635 122.428L110.33 152.759C110.858 154.221 112.47 154.978 113.93 154.447L146.152 142.743C147.611 142.213 148.366 140.598 147.837 139.135L136.871 108.804C136.342 107.341 134.73 106.585 133.27 107.115Z" fill="#FFDABD"/>
<path d="M127.702 112.591L126.827 112.908C121.747 98.8381 114.775 93.0413 110.516 94.5879C106.254 96.1321 104.602 105.058 109.683 119.128L108.809 119.445C106.346 112.627 105.264 106.532 105.674 101.822C106.051 97.5141 107.659 94.6315 110.2 93.7117C112.74 92.7896 115.814 93.9731 118.856 97.0421C122.182 100.397 125.239 105.772 127.702 112.591Z" fill="#726658"/>
<path d="M130.469 137.685C134.266 133.879 134.266 127.708 130.469 123.901C126.671 120.095 120.514 120.095 116.717 123.901C112.919 127.708 112.919 133.879 116.717 137.685C120.514 141.492 126.671 141.492 130.469 137.685Z" fill="#F7941E"/>
<path d="M75.502 13.9995C73.0148 14.1399 72.4666 18.8693 73.0896 19.7043C73.7126 20.5393 76.2795 20.3844 76.9532 18.983C77.627 17.5816 78.0689 15.6018 77.2672 14.866C76.4655 14.1302 75.5044 14.0019 75.5044 14.0019L75.502 13.9995Z" fill="#FF7250"/>
<path d="M103.786 111.874C103.834 112.624 103.269 113.271 102.521 113.321C101.772 113.37 101.127 112.803 101.077 112.053C101.028 111.303 101.593 110.657 102.342 110.606C103.09 110.555 103.735 111.124 103.786 111.874Z" fill="#726658"/>
<path d="M121.699 110.695C121.744 111.397 121.216 112.002 120.515 112.048C119.815 112.094 119.211 111.564 119.165 110.862C119.12 110.16 119.648 109.555 120.349 109.509C121.049 109.463 121.653 109.993 121.699 110.695Z" fill="#726658"/>
<path d="M96.7737 107.775L126.095 106.559C126.997 106.521 127.759 107.226 127.796 108.128L129.01 137.518C129.047 138.422 128.344 139.185 127.444 139.222L98.1224 140.439C97.2201 140.476 96.4587 139.771 96.4214 138.869L95.2079 109.48C95.1705 108.576 95.8737 107.812 96.7737 107.775Z" fill="#FFFBCE"/>
<path d="M121.951 117.282L101.788 118.119L102.267 129.722L122.43 128.885L121.951 117.282Z" fill="#FFDABD"/>
<path d="M119.639 110.625L118.929 110.671C118.178 99.2324 114.28 93.4792 110.818 93.7067C107.353 93.9342 104.24 100.15 104.991 111.588L104.281 111.634C103.916 106.089 104.414 101.374 105.72 97.998C106.913 94.9072 108.71 93.1307 110.774 92.9951C112.839 92.8596 114.85 94.3844 116.437 97.2937C118.171 100.472 119.279 105.08 119.644 110.625H119.639Z" fill="#726658"/>
<path d="M107.319 81.3728C108.004 81.0678 108.826 81.3413 109.255 82.0069C113.43 88.4644 116.541 88.5056 116.613 91.6956C116.69 95.0599 116.35 97.9087 114.452 97.8627C112.551 97.8167 109.782 97.5359 108.995 96.5872C108.207 95.6384 108.896 93.0171 107.394 89.5366C105.892 86.0562 104.189 84.4587 104.933 83.1227C105.351 82.3724 106.44 81.7649 107.319 81.3728Z" fill="#FF7250"/>
<path d="M85.924 35.364C103.132 41.6255 114.126 80.0705 113.416 85.5211C112.728 90.8241 106.024 88.2247 104.836 87.0556C103.648 85.8866 91.6591 62.3268 86.9889 55.0343C82.3212 47.7417 85.924 35.3616 85.924 35.3616V35.364Z" fill="#FFBE71"/>
<path d="M87.9379 93.2347C86.4794 96.5337 82.6303 98.0246 79.3366 96.5627C76.0453 95.1008 74.5578 91.2404 76.0163 87.9414L87.9379 93.2347Z" fill="#A7A9AC"/>
<path d="M70.4117 18.7118C70.4117 19.1063 69.8466 19.4258 69.1463 19.4258C68.4461 19.4258 67.881 19.1063 67.881 18.7118C67.881 18.3173 68.4461 17.9978 69.1463 17.9978C69.8466 17.9978 70.4117 18.3173 70.4117 18.7118Z" fill="#FF5955"/>
<path d="M63.3413 18.4601C63.3413 18.8546 62.7762 19.1741 62.076 19.1741C61.3757 19.1741 60.8106 18.8546 60.8106 18.4601C60.8106 18.0656 61.3757 17.7461 62.076 17.7461C62.7762 17.7461 63.3413 18.0656 63.3413 18.4601Z" fill="#FF5955"/>
<path d="M65.4759 23.6906C64.8505 23.6906 64.1985 23.5478 63.5176 23.2646C63.3751 23.2041 63.3075 23.0395 63.3655 22.8967C63.4258 22.7539 63.59 22.6862 63.7325 22.7443C65.4373 23.4559 66.8862 23.1823 68.1636 21.8996C68.2722 21.7906 68.4509 21.7906 68.562 21.8996C68.6707 22.0085 68.6707 22.1876 68.562 22.2989C67.6371 23.2259 66.6036 23.6906 65.4735 23.6906H65.4759Z" fill="#EF4136"/>
<path d="M70.2451 15.5339C70.2451 16.2672 69.8394 16.8602 69.3395 16.8602C68.8397 16.8602 68.434 16.2672 68.434 15.5339C68.434 14.8005 68.8397 14.2075 69.3395 14.2075C69.8394 14.2075 70.2451 14.8005 70.2451 15.5339Z" fill="#232323"/>
<path d="M62.0542 16.5675C62.5544 16.5675 62.9598 15.9737 62.9598 15.2412C62.9598 14.5086 62.5544 13.9148 62.0542 13.9148C61.5541 13.9148 61.1487 14.5086 61.1487 15.2412C61.1487 15.9737 61.5541 16.5675 62.0542 16.5675Z" fill="#232323"/>
<path d="M64.3748 13.4453C65.7971 16.1053 64.0899 18.9855 63.7107 19.8109C63.3316 20.6338 63.9643 20.8565 65.3214 21.0767" stroke="#EF4136" stroke-linecap="round" stroke-linejoin="round"/>
<path d="M60.1587 12.3923C60.7889 11.5306 62.4237 11.2595 63.3558 11.8743" stroke="#594A42" stroke-linecap="round" stroke-linejoin="round"/>
<path d="M66.8741 12.0002C68.2867 11.1555 69.9215 11.5694 70.7208 12.5134" stroke="#594A42" stroke-linecap="round" stroke-linejoin="round"/>
</g>
<defs>
<clipPath id="clip0_22_373">
<rect width="148" height="192" fill="white"/>
</clipPath>
</defs>
</svg>
