<svg width="112" height="34" viewBox="0 0 112 34" fill="none" xmlns="http://www.w3.org/2000/svg">
<g clip-path="url(#clip0_0_106)">
<path d="M48.004 26.2495C47.2111 26.2495 46.8147 25.8231 46.8147 24.9704V17.9236H46.1469C45.3257 17.9236 44.9175 17.5706 44.9175 16.86C44.9175 16.1494 45.203 15.8202 45.7741 15.8202H46.8171V13.956C46.8171 12.6698 47.1026 11.7816 47.6736 11.2889C48.2423 10.7986 49.0564 10.5522 50.1136 10.5522C50.6422 10.5522 51.0835 10.6209 51.4374 10.7583C51.7914 10.8957 51.9613 11.2036 51.9471 11.6797C51.9471 11.9829 51.8858 12.2364 51.7607 12.4377C51.6356 12.6414 51.3784 12.7409 50.9891 12.7409C50.9041 12.7409 50.8074 12.7338 50.6965 12.7196C50.5856 12.7054 50.4865 12.6983 50.4039 12.6983C49.5709 12.6983 49.1532 13.2194 49.1532 14.2592V15.8202H50.7177C51.5389 15.8202 51.9471 16.1684 51.9471 16.86C51.9471 17.5517 51.5436 17.9236 50.7389 17.9236H49.1532V24.9704C49.1532 25.8231 48.7709 26.2495 48.0064 26.2495H48.004Z" fill="#3759A8"/>
<path d="M56.7634 26.4036C55.6803 26.4462 54.7859 26.1999 54.0827 25.6669C53.3795 25.1316 53.0303 24.3594 53.0303 23.348C53.0303 22.6113 53.245 21.9813 53.6768 21.4625C54.1087 20.9414 54.6632 20.534 55.3452 20.2379C56.0271 19.9418 56.728 19.7855 57.4524 19.7713C57.8135 19.7429 58.1556 19.7713 58.4742 19.8589C58.7951 19.9466 59.0806 20.0698 59.3308 20.2261V19.3165C59.3308 18.6367 59.1915 18.1961 58.9131 17.9948C58.6346 17.7911 58.224 17.6916 57.6837 17.6916C57.2943 17.6916 56.8884 17.7413 56.4637 17.8432C56.0389 17.945 55.626 18.0824 55.2225 18.2553C54.8614 18.414 54.5523 18.4709 54.2951 18.4283C54.0379 18.3833 53.8255 18.2103 53.6603 17.9071C53.4928 17.604 53.455 17.3126 53.5447 17.0307C53.6344 16.7489 53.868 16.5286 54.2432 16.3699C54.7434 16.1235 55.2885 15.9293 55.8808 15.7848C56.4708 15.6403 57.0725 15.5669 57.6837 15.5669C58.9768 15.5669 59.949 15.8369 60.6027 16.3794C61.2563 16.9218 61.5843 17.9 61.5843 19.3165V24.1083C61.5843 24.2528 61.6008 24.3689 61.6362 24.4542C61.6716 24.5418 61.7023 24.6058 61.7306 24.6484C61.8557 24.8355 61.9925 24.9445 62.1388 24.9729C62.2851 25.0013 62.4126 25.0203 62.5235 25.0274C62.6344 25.0345 62.691 25.1032 62.691 25.2335C62.691 25.494 62.6249 25.719 62.4928 25.9062C62.3607 26.0933 62.1412 26.2236 61.8344 26.297C61.5135 26.3681 61.202 26.406 60.8953 26.406C60.4634 26.406 60.1354 26.3302 59.9042 26.1786C59.6753 26.027 59.5125 25.7712 59.4134 25.4087C59.0665 25.7119 58.663 25.9464 58.2052 26.1122C57.745 26.2781 57.266 26.3752 56.7657 26.406L56.7634 26.4036ZM56.7233 24.2789C57.502 24.2505 58.1438 24.0918 58.6512 23.8028C59.1585 23.5138 59.3992 23.1017 59.3709 22.5663C59.3567 22.2181 59.1868 21.9813 58.8588 21.851C58.5332 21.7207 58.1249 21.671 57.6388 21.6994C56.9569 21.7136 56.3953 21.8913 55.9493 22.23C55.5033 22.5687 55.2885 22.9501 55.3027 23.367C55.331 24.0183 55.803 24.3215 56.7209 24.2765L56.7233 24.2789Z" fill="#3759A8"/>
<path d="M69.5695 26.4887C68.3872 26.4887 67.4551 25.9534 66.7755 24.8851V25.3186C66.7755 25.6644 66.667 25.9084 66.4522 26.0458C66.2375 26.1832 65.9685 26.2519 65.6499 26.2519C64.9538 26.2519 64.6069 25.8255 64.6069 24.9728V12.0706C64.6069 11.2179 65.0034 10.7915 65.7962 10.7915C66.5891 10.7915 66.9643 11.2179 66.9643 12.0706V16.7535C67.2994 16.3792 67.6864 16.0855 68.1324 15.8747C68.5784 15.6662 69.0574 15.5597 69.5718 15.5597C70.5039 15.5597 71.3345 15.7776 72.0637 16.211C72.7952 16.6445 73.3686 17.2698 73.7839 18.087C74.2016 18.9042 74.4093 19.8825 74.4093 21.0242C74.4093 22.1659 74.1992 23.1465 73.7839 23.9614C73.3663 24.7785 72.7928 25.4039 72.0637 25.8373C71.3345 26.2708 70.5039 26.4887 69.5718 26.4887H69.5695ZM69.4845 24.2764C70.2207 24.2764 70.8343 23.9945 71.3204 23.4308C71.8065 22.867 72.0519 22.064 72.0519 21.0242C72.0519 19.9843 71.8088 19.1814 71.3204 18.6176C70.8343 18.0539 70.2231 17.772 69.4845 17.772C68.7459 17.772 68.1347 18.0539 67.6486 18.6176C67.1625 19.1814 66.9195 19.9843 66.9195 21.0242C66.9195 22.064 67.1625 22.867 67.6486 23.4308C68.1347 23.9945 68.7459 24.2764 69.4845 24.2764Z" fill="#3759A8"/>
<path d="M80.5377 26.4887C79.5513 26.4887 78.7962 26.3016 78.2747 25.925C77.7532 25.5483 77.4937 24.7975 77.4937 23.67V17.9259H76.8046C75.9834 17.9259 75.5752 17.573 75.5752 16.8624C75.5752 16.5308 75.6625 16.2726 75.8371 16.0926C76.0117 15.9126 76.328 15.8225 76.7857 15.8225H77.4937V13.4373C77.4937 12.5846 77.8901 12.1582 78.683 12.1582C79.4758 12.1582 79.8298 12.5846 79.8298 13.4373V15.8225H81.3731C82.1942 15.8225 82.6025 16.1707 82.6025 16.8624C82.6025 17.5541 82.199 17.9259 81.3943 17.9259H79.8298V23.0423C79.8298 23.5326 79.9454 23.8666 80.1743 24.0395C80.4032 24.2124 80.7336 24.3 81.1654 24.3C81.5972 24.3 81.9606 24.3545 82.2178 24.4635C82.4751 24.5724 82.6025 24.8496 82.6025 25.2973C82.6025 25.6597 82.501 25.9226 82.3004 26.0884C82.0975 26.2542 81.8403 26.3632 81.5288 26.4129C81.2173 26.4627 80.887 26.4887 80.5377 26.4887Z" fill="#EFBF1B"/>
<path d="M88.778 26.4887C87.86 26.4887 87.0365 26.2613 86.3073 25.8065C85.5782 25.3518 85 24.7146 84.5776 23.8998C84.1529 23.0826 83.9429 22.1256 83.9429 21.0266C83.9429 19.9275 84.1552 18.9705 84.5776 18.1533C85.0024 17.3362 85.5782 16.7013 86.3073 16.2442C87.0388 15.7894 87.86 15.562 88.778 15.562C89.6959 15.562 90.5596 15.7894 91.2911 16.2442C92.0202 16.699 92.5936 17.3362 93.0113 18.1533C93.429 18.9705 93.6367 19.9275 93.6367 21.0266C93.6367 22.1256 93.4266 23.0826 93.0113 23.8998C92.5936 24.7146 92.0202 25.3518 91.2911 25.8065C90.5596 26.2613 89.7242 26.4887 88.778 26.4887ZM88.778 24.2764C89.5142 24.2764 90.1159 23.9945 90.5808 23.4308C91.0457 22.867 91.2793 22.064 91.2793 21.0242C91.2793 19.9843 91.0457 19.1814 90.5808 18.6176C90.1159 18.0539 89.5142 17.772 88.778 17.772C88.0417 17.772 87.4636 18.0539 87.0058 18.6176C86.5457 19.1814 86.3168 19.9843 86.3168 21.0242C86.3168 22.064 86.5457 22.867 87.0058 23.4308C87.4636 23.9945 88.0559 24.2764 88.778 24.2764Z" fill="#F0A124"/>
<path d="M96.848 26.2495C96.0551 26.2495 95.6587 25.8231 95.6587 24.9704V17.0993C95.6587 16.2466 96.0693 15.8202 96.8881 15.8202C97.1666 15.8202 97.4096 15.8889 97.6196 16.0263C97.8273 16.1637 97.9311 16.4195 97.9311 16.7961V17.2959C98.1812 16.7748 98.573 16.3555 99.111 16.0381C99.6466 15.7207 100.213 15.562 100.81 15.562C101.242 15.562 101.57 15.6804 101.801 15.9197C102.03 16.1589 102.146 16.4811 102.146 16.8837C102.146 17.2604 102.056 17.5351 101.874 17.708C101.693 17.8809 101.485 17.9544 101.249 17.9236C101.138 17.9094 101.02 17.8999 100.895 17.8904C100.77 17.8809 100.631 17.8786 100.477 17.8786C99.7953 17.8786 99.2148 18.1107 98.7358 18.5726C98.2568 19.0345 98.0161 19.6859 98.0161 20.5244V24.968C98.0161 25.8208 97.6267 26.2471 96.848 26.2471V26.2495Z" fill="#F18221"/>
<path d="M104.878 30.5654H104.314C103.925 30.537 103.632 30.4114 103.439 30.1864C103.245 29.9614 103.146 29.67 103.146 29.31C103.146 28.5876 103.382 28.2607 103.854 28.3341C103.993 28.3483 104.125 28.3602 104.25 28.3673C104.376 28.3744 104.501 28.3791 104.626 28.3791C105.001 28.3791 105.282 28.3365 105.47 28.2488C105.657 28.1612 105.808 28.0167 105.919 27.8154C106.03 27.6117 106.155 27.3393 106.294 26.9911L106.565 26.2307L103.167 17.2984C103 16.8365 102.981 16.4741 103.106 16.2136C103.231 15.953 103.474 15.8228 103.835 15.8228H103.981C104.689 15.8228 105.157 16.1638 105.378 16.8413L107.59 23.303L109.654 16.8626C109.89 16.1686 110.355 15.8228 111.051 15.8228C111.455 15.8228 111.733 15.953 111.884 16.2136C112.038 16.4741 112.038 16.8365 111.884 17.2984L108.297 27.7064C107.962 28.661 107.556 29.3763 107.077 29.8524C106.596 30.3285 105.865 30.5678 104.878 30.5678V30.5654Z" fill="#CF264B"/>
<path d="M18.3278 10.4173H18.3136C14.4484 10.4079 11.6521 6.34085 11.5365 6.16794C11.3878 5.94765 11.4445 5.64919 11.6639 5.49997C11.8834 5.35074 12.1807 5.40759 12.3294 5.62788C12.3553 5.66578 14.9628 9.45092 18.3207 9.45566H18.3278C20.2864 9.45566 22.16 8.1671 23.8968 5.62551C24.0478 5.40522 24.3451 5.35074 24.5646 5.49997C24.7817 5.65156 24.8383 5.95002 24.6896 6.1703C22.7641 8.98903 20.6238 10.4197 18.3302 10.4197L18.3278 10.4173Z" fill="#F0A124"/>
<path d="M30.294 21.4672C30.1737 21.4672 30.0557 21.4222 29.9684 21.3393L27.2406 18.7977C27.0471 18.6177 27.0353 18.3121 27.2146 18.1179C27.3963 17.9236 27.6983 17.9118 27.8918 18.0918L30.2587 20.2971L34.6312 15.2968L29.9236 9.5859C29.7537 9.38219 29.782 9.079 29.9873 8.90845C30.1902 8.74028 30.4946 8.7687 30.6622 8.97241L35.6318 14.9983C35.7828 15.1807 35.7781 15.446 35.6223 15.6237L30.6527 21.3037C30.5678 21.4009 30.4451 21.4601 30.3176 21.4672C30.3106 21.4672 30.3011 21.4672 30.294 21.4672Z" fill="#CF264B"/>
<path d="M5.44885 20.7759C5.32143 20.7759 5.19636 20.7261 5.10433 20.629L0.134732 15.4677C-0.0375282 15.29 -0.0446074 15.0105 0.113495 14.821L5.08309 8.96803C5.25535 8.7667 5.5574 8.74064 5.75798 8.91355C5.95855 9.08647 5.98451 9.38966 5.81225 9.591L1.12818 15.1124L5.51728 19.6721L7.89589 18.0993C8.11771 17.9524 8.41504 18.014 8.55898 18.2367C8.70528 18.4593 8.64393 18.7578 8.42211 18.9023L5.71078 20.6954C5.63055 20.7498 5.53852 20.7759 5.44649 20.7759H5.44885Z" fill="#CF264B"/>
<path d="M26.5656 33.9999H9.17442C8.91013 33.9999 8.69775 33.7867 8.69539 33.5238C8.49953 11.3411 5.2785 9.23775 5.24546 9.2188C5.0732 9.15484 4.97173 9.00798 4.95286 8.8256C4.93398 8.64321 5.04017 8.47266 5.19355 8.37555C19.4015 -0.566211 30.4875 8.32107 30.5984 8.41108C30.7188 8.51056 30.7848 8.66453 30.773 8.82086C30.7612 8.97719 30.6739 9.11931 30.5394 9.19748C27.9768 10.7205 27.047 24.5773 27.047 33.5191C27.047 33.7844 26.8323 33.9999 26.568 33.9999H26.5656ZM9.64872 33.0359H26.089C26.1079 29.3715 26.3627 12.3715 29.5247 8.81375C27.3703 7.32859 17.9809 1.80484 6.22947 8.86586C7.33147 10.2776 9.45758 15.2945 9.65108 33.0359H9.64872Z" fill="#3759A8"/>
<path d="M13.7405 7.73879C13.6697 7.73879 13.5989 7.72221 13.5305 7.68904C13.2921 7.57298 13.193 7.284 13.311 7.04476C13.6296 6.39338 14.4649 4.50791 14.5239 3.63387C14.5263 3.5936 14.5334 3.55333 14.5475 3.51307C14.5947 3.37331 15.7038 0.111644 18.0281 0.0168969C18.4198 -0.0446887 20.4492 -0.158385 21.8674 3.70967C21.8768 3.73572 21.8839 3.76178 21.8886 3.78783C22.0845 4.85374 22.514 6.54024 22.8538 6.94528C23.0237 7.14899 22.9977 7.45218 22.7948 7.62272C22.5918 7.79327 22.2898 7.76721 22.1199 7.5635C21.5134 6.83632 21.058 4.55765 20.9542 4.00338C19.7342 0.706182 18.2004 0.961999 18.1839 0.966737C18.1579 0.971474 18.1201 0.976211 18.0918 0.97858C16.7303 1.01411 15.7628 2.95169 15.4772 3.76415C15.3616 5.0006 14.2974 7.21531 14.1747 7.46639C14.0921 7.63693 13.9198 7.73642 13.7428 7.73642L13.7405 7.73879Z" fill="#CF264B"/>
</g>
<defs>
<clipPath id="clip0_0_106">
<rect width="112" height="34" fill="white"/>
</clipPath>
</defs>
</svg>
