<svg width="15" height="15" viewBox="0 0 15 15" fill="none" xmlns="http://www.w3.org/2000/svg">
<path fill-rule="evenodd" clip-rule="evenodd" d="M8.07685 0.288462C8.07685 0.129149 7.81855 0 7.49993 0C7.1813 0 6.92301 0.129149 6.92301 0.288462V6.34615L0.288462 6.34615C0.129149 6.34615 0 6.60445 0 6.92307C0 7.2417 0.129149 7.49999 0.288462 7.49999L6.92301 7.49999V14.1346C6.92301 14.2939 7.1813 14.4231 7.49993 14.4231C7.81855 14.4231 8.07685 14.2939 8.07685 14.1346V7.5L14.7115 7.5C14.8709 7.5 15 7.2417 15 6.92307C15 6.60445 14.8709 6.34615 14.7115 6.34615L8.07685 6.34615V0.288462Z" fill="#898989"/>
</svg>
