<svg width="32" height="40" viewBox="0 0 32 40" fill="none" xmlns="http://www.w3.org/2000/svg">
<path d="M32 28.4893C32 27.8984 31.8836 27.3133 31.6574 26.7675C31.4312 26.2216 31.0997 25.7257 30.6819 25.308C30.264 24.8903 29.7679 24.559 29.2219 24.3331C28.676 24.1071 28.0909 23.991 27.5 23.9913H4.5C3.90898 23.991 3.3237 24.1072 2.77761 24.3333C2.23153 24.5593 1.73535 24.8908 1.31743 25.3087C0.899518 25.7266 0.56806 26.2228 0.342007 26.7689C0.115954 27.3149 -0.000262407 27.9002 4.44881e-07 28.4913V29.6453C4.44881e-07 31.4312 0.638 33.1573 1.796 34.5153C4.93 38.1833 9.702 39.9953 15.992 39.9953C22.284 39.9953 27.058 38.1853 30.196 34.5173C31.3599 33.1585 31.9997 31.4284 32 29.6392V28.4893ZM4.498 26.9913H27.5C28.326 26.9913 28.996 27.6613 28.996 28.4913V29.6413C28.9963 30.7141 28.6133 31.7519 27.916 32.5673C25.402 35.5033 21.468 36.9933 15.99 36.9933C10.514 36.9933 6.582 35.5033 4.076 32.5673C3.38032 31.7526 2.99808 30.7165 2.998 29.6453V28.4893C2.99853 28.0921 3.15652 27.7114 3.43734 27.4306C3.71815 27.1498 4.09887 26.9918 4.496 26.9913H4.498ZM25.994 10.0013C25.9943 7.89516 25.3296 5.84275 24.0947 4.13667C22.8598 2.43059 21.1178 1.15795 19.1171 0.500196C17.1164 -0.157556 14.959 -0.166829 12.9527 0.473698C10.9464 1.11423 9.19349 2.37185 7.944 4.06725C7.79908 4.02135 7.64802 3.99775 7.496 3.99725H2.5C2.10218 3.99725 1.72064 4.15529 1.43934 4.43659C1.15804 4.7179 1 5.09943 1 5.49725V16.4933C0.999475 17.2159 1.14135 17.9315 1.41751 18.5992C1.69368 19.267 2.09872 19.8738 2.6095 20.3849C3.12027 20.8961 3.72677 21.3016 4.39432 21.5782C5.06187 21.8549 5.77739 21.9973 6.5 21.9973H7V21.9893H7.02C7.35885 21.9898 7.69225 21.904 7.9888 21.7401C8.28535 21.5761 8.53528 21.3394 8.71505 21.0522C8.89482 20.7649 8.9985 20.4367 9.01633 20.0983C9.03416 19.7599 8.96556 19.4226 8.81698 19.118C8.6684 18.8135 8.44473 18.5518 8.16705 18.3576C7.88938 18.1634 7.56683 18.0431 7.2298 18.008C6.89278 17.9729 6.55236 18.0242 6.24064 18.157C5.92891 18.2898 5.65613 18.4999 5.448 18.7673C5.01489 18.5663 4.64836 18.2456 4.39176 17.843C4.13516 17.4404 3.99921 16.9727 4 16.4953V15.9973H5.496C6.256 15.9973 6.962 15.7533 7.536 15.3413C8.69278 17.1752 10.4143 18.5835 12.4411 19.3538C14.4679 20.1242 16.6902 20.2149 18.7731 19.6123C20.856 19.0097 22.6865 17.7465 23.989 16.013C25.2914 14.2794 25.9951 12.1695 25.994 10.0013ZM5.994 9.78925C5.99107 9.93057 5.99107 10.0719 5.994 10.2133V12.4953C5.994 12.6279 5.94132 12.755 5.84755 12.8488C5.75379 12.9426 5.62661 12.9953 5.494 12.9953H4V6.99925H5.996V9.78925H5.994ZM8.994 10.1793V9.82325C9.04082 7.98275 9.81085 6.23479 11.1373 4.958C12.4637 3.68121 14.2398 2.97841 16.0807 3.00182C17.9217 3.02523 19.6793 3.77297 20.9729 5.08307C22.2664 6.39318 22.9917 8.16015 22.9917 10.0013C22.9917 11.8424 22.2664 13.6093 20.9729 14.9194C19.6793 16.2295 17.9217 16.9773 16.0807 17.0007C14.2398 17.0241 12.4637 16.3213 11.1373 15.0445C9.81085 13.7677 9.04082 12.0198 8.994 10.1793Z" fill="#CC5336"/>
</svg>
