<svg width="238" height="225" viewBox="0 0 238 225" fill="none" xmlns="http://www.w3.org/2000/svg">
<g clip-path="url(#clip0_56_16)">
<path d="M122.048 69.0111C96.3157 69.0111 77.7138 42.0332 76.9194 40.8907C76.4924 40.1917 76.3514 39.3556 76.5255 38.5556C76.6996 37.7556 77.1754 37.053 77.8546 36.5935C78.5337 36.134 79.3639 35.9526 80.1733 36.0871C80.9828 36.2216 81.7094 36.6615 82.2026 37.3158C82.3688 37.5554 99.7331 62.6168 122.085 62.6536C135.126 62.6536 147.614 54.1217 159.178 37.2974C159.42 36.9525 159.729 36.6587 160.085 36.4327C160.441 36.2068 160.839 36.053 161.255 35.9803C161.671 35.9076 162.097 35.9173 162.509 36.0089C162.922 36.1005 163.312 36.2722 163.657 36.5142C164.003 36.7562 164.297 37.0637 164.524 37.4193C164.75 37.7748 164.905 38.1714 164.978 38.5863C165.05 39.0013 165.041 39.4265 164.949 39.8377C164.857 40.2489 164.685 40.638 164.442 40.9829C151.548 59.4841 137.306 69.0111 122.048 69.0111Z" fill="#E5A343"/>
<path d="M201.72 142.058C200.912 142.062 200.132 141.759 199.54 141.21L181.382 124.386C180.823 123.798 180.509 123.019 180.505 122.209C180.501 121.398 180.807 120.617 181.359 120.023C181.912 119.429 182.671 119.068 183.482 119.012C184.292 118.956 185.094 119.211 185.723 119.724L201.48 134.318L230.611 101.149L199.208 63.3539C198.736 62.6977 198.531 61.8871 198.635 61.086C198.738 60.2849 199.143 59.553 199.767 59.0382C200.391 58.5234 201.188 58.2641 201.996 58.3127C202.804 58.3612 203.564 58.714 204.121 59.2998L237.206 99.177C237.696 99.7532 237.966 100.485 237.966 101.241C237.966 101.997 237.696 102.728 237.206 103.305L204.121 140.897C203.841 141.218 203.498 141.48 203.114 141.666C202.73 141.853 202.313 141.961 201.886 141.984L201.72 142.058Z" fill="#BF384E"/>
<path d="M36.28 137.469C35.8533 137.471 35.4307 137.387 35.0371 137.223C34.6436 137.058 34.2872 136.816 33.9895 136.511L0.905336 102.346C0.349947 101.781 0.0266474 101.029 -0.000701227 100.237C-0.0280499 99.4463 0.242388 98.6736 0.757412 98.0713L33.8418 59.3735C34.3905 58.7284 35.1736 58.3271 36.0189 58.258C36.8642 58.1889 37.7023 58.4576 38.349 59.0049C38.9957 59.5523 39.3979 60.3335 39.4672 61.1768C39.5365 62.02 39.2673 62.8561 38.7185 63.5012L7.49993 100.043L36.7419 130.209L52.5729 119.797C53.2807 119.361 54.131 119.217 54.9433 119.397C55.7556 119.576 56.4659 120.065 56.923 120.758C57.38 121.452 57.5478 122.296 57.3909 123.111C57.234 123.926 56.7648 124.648 56.0828 125.123L38.0351 136.99C37.509 137.316 36.8992 137.483 36.28 137.469Z" fill="#BF384E"/>
<path d="M176.985 225H61.1811C60.3368 225 59.5265 224.667 58.9278 224.073C58.329 223.479 57.9901 222.673 57.9852 221.83C56.6921 75.0368 35.2456 61.124 35.024 60.995C34.4795 60.799 34.0042 60.4487 33.6563 59.9872C33.3085 59.5256 33.1033 58.9729 33.0658 58.3967C33.0274 57.799 33.1579 57.2026 33.4419 56.675C33.7259 56.1474 34.1522 55.7097 34.6729 55.4115C129.271 -3.74088 203.105 55.0613 203.844 55.651C204.239 55.9788 204.549 56.3961 204.749 56.868C204.948 57.3399 205.032 57.8526 204.992 58.3632C204.952 58.8739 204.79 59.3676 204.52 59.803C204.249 60.2385 203.878 60.603 203.438 60.866C186.388 70.9274 180.181 162.623 180.181 221.812C180.181 222.657 179.844 223.468 179.245 224.066C178.646 224.664 177.833 225 176.985 225ZM64.3029 218.624H173.753C173.882 194.373 175.6 81.8734 196.64 58.3046C182.287 48.4643 119.757 11.9225 41.4709 58.6363C48.8045 68.0159 62.9729 101.222 64.3029 218.624Z" fill="#3D5AA3"/>
<path d="M91.4945 51.2102C90.9528 51.2089 90.4204 51.0702 89.9471 50.8073C89.4739 50.5443 89.0752 50.1657 88.789 49.7069C88.5027 49.2482 88.3381 48.7243 88.3105 48.1847C88.2829 47.645 88.3934 47.1072 88.6313 46.6217C90.7372 42.3097 96.3159 29.8342 96.7038 24.048C96.7239 23.7793 96.7734 23.5136 96.8515 23.2556C97.1656 22.3342 104.555 0.737183 120.035 0.110647C122.658 -0.276331 136.161 -1.03186 145.601 24.564C145.663 24.7305 145.706 24.9036 145.73 25.0799C147.041 32.1377 149.905 43.2863 152.158 45.9767C152.661 46.6287 152.892 47.4493 152.802 48.267C152.713 49.0846 152.31 49.8361 151.678 50.3643C151.046 50.8926 150.233 51.1566 149.411 51.1013C148.588 51.046 147.818 50.6757 147.263 50.0677C143.236 45.2581 140.188 30.1659 139.505 26.5173C131.377 4.6991 121.161 6.39443 121.032 6.41286H120.422C111.371 6.63399 104.924 19.4595 103.021 24.8404C102.264 33.0222 95.1706 47.6721 94.3393 49.349C94.0889 49.895 93.6892 50.3593 93.1859 50.6886C92.6826 51.0178 92.0962 51.1986 91.4945 51.2102Z" fill="#BF384E"/>
</g>
<defs>
<clipPath id="clip0_56_16">
<rect width="238" height="225" fill="white"/>
</clipPath>
</defs>
</svg>
