<svg width="183" height="55" viewBox="0 0 183 55" fill="none" xmlns="http://www.w3.org/2000/svg">
<g clip-path="url(#clip0_0_93)">
<path d="M78.4353 42.4626C77.1398 42.4626 76.492 41.7729 76.492 40.3935V28.9943H75.4009C74.0591 28.9943 73.3921 28.4234 73.3921 27.2738C73.3921 26.1243 73.8586 25.5917 74.7917 25.5917H76.4959V22.5762C76.4959 20.4956 76.9624 19.0587 77.8955 18.2617C78.8247 17.4686 80.1549 17.0701 81.8822 17.0701C82.7459 17.0701 83.4669 17.1812 84.0452 17.4034C84.6236 17.6257 84.9012 18.1238 84.878 18.894C84.878 19.3844 84.7778 19.7944 84.5734 20.1201C84.3691 20.4496 83.9488 20.6105 83.3126 20.6105C83.1738 20.6105 83.0158 20.5991 82.8345 20.5761C82.6533 20.5531 82.4914 20.5416 82.3564 20.5416C80.9954 20.5416 80.313 21.3845 80.313 23.0667V25.5917H82.8692C84.211 25.5917 84.878 26.155 84.878 27.2738C84.878 28.3927 84.2187 28.9943 82.9039 28.9943H80.313V40.3935C80.313 41.7729 79.6883 42.4626 78.4391 42.4626H78.4353Z" fill="#3759A8"/>
<path d="M92.7471 42.7118C90.9773 42.7808 89.5161 42.3823 88.3671 41.5202C87.2181 40.6542 86.6475 39.4051 86.6475 37.769C86.6475 36.5773 86.9983 35.5581 87.7039 34.7189C88.4095 33.876 89.3156 33.2169 90.4298 32.738C91.5441 32.259 92.6892 32.0061 93.8729 31.9831C94.4628 31.9371 95.0219 31.9831 95.5424 32.1249C96.0668 32.2667 96.5333 32.4659 96.942 32.7188V31.2474C96.942 30.1477 96.7145 29.4351 96.2596 29.1094C95.8046 28.7798 95.1337 28.6189 94.2508 28.6189C93.6146 28.6189 92.9514 28.6994 92.2574 28.8641C91.5634 29.0289 90.8887 29.2511 90.2293 29.5308C89.6394 29.7876 89.1343 29.8795 88.7141 29.8106C88.2938 29.7378 87.9468 29.458 87.6769 28.9676C87.4032 28.4771 87.3415 28.0058 87.488 27.5499C87.6345 27.0939 88.0162 26.7375 88.6293 26.4808C89.4467 26.0823 90.3373 25.7681 91.3051 25.5344C92.269 25.3007 93.2522 25.1819 94.2508 25.1819C96.3637 25.1819 97.9522 25.6187 99.0202 26.4962C100.088 27.3736 100.624 28.9561 100.624 31.2474V38.9989C100.624 39.2327 100.651 39.4204 100.709 39.5584C100.767 39.7001 100.817 39.8036 100.863 39.8726C101.068 40.1753 101.291 40.3515 101.53 40.3975C101.769 40.4435 101.977 40.4741 102.159 40.4856C102.34 40.4971 102.432 40.6082 102.432 40.819C102.432 41.2405 102.324 41.6045 102.109 41.9072C101.893 42.2099 101.534 42.4206 101.033 42.5394C100.508 42.6544 99.9995 42.7157 99.4983 42.7157C98.7927 42.7157 98.2568 42.5931 97.8789 42.3478C97.5049 42.1026 97.2389 41.6888 97.077 41.1025C96.5102 41.593 95.8509 41.9723 95.1029 42.2405C94.351 42.5088 93.5683 42.6659 92.7509 42.7157L92.7471 42.7118ZM92.6815 39.2748C93.9539 39.2288 95.0026 38.9721 95.8316 38.5047C96.6605 38.0372 97.0538 37.3705 97.0076 36.5045C96.9844 35.9413 96.7068 35.5581 96.1709 35.3473C95.6388 35.1366 94.9718 35.0561 94.1775 35.1021C93.0632 35.1251 92.1456 35.4125 91.4169 35.9604C90.6882 36.5083 90.3373 37.1252 90.3604 37.7996C90.4067 38.8533 91.1778 39.3438 92.6777 39.271L92.6815 39.2748Z" fill="#3759A8"/>
<path d="M113.672 42.8499C111.74 42.8499 110.217 41.9839 109.107 40.2558V40.957C109.107 41.5164 108.929 41.9111 108.579 42.1333C108.228 42.3556 107.788 42.4667 107.268 42.4667C106.13 42.4667 105.563 41.777 105.563 40.3976V19.5264C105.563 18.147 106.211 17.4573 107.507 17.4573C108.802 17.4573 109.415 18.147 109.415 19.5264V27.1016C109.963 26.4962 110.595 26.0211 111.324 25.6801C112.053 25.3429 112.835 25.1705 113.676 25.1705C115.199 25.1705 116.556 25.523 117.747 26.2242C118.943 26.9254 119.879 27.9369 120.558 29.2589C121.24 30.5808 121.58 32.1633 121.58 34.0102C121.58 35.857 121.237 37.4433 120.558 38.7614C119.876 40.0834 118.939 41.0949 117.747 41.7961C116.556 42.4973 115.199 42.8499 113.676 42.8499H113.672ZM113.533 39.2711C114.736 39.2711 115.738 38.8151 116.533 37.9031C117.327 36.9912 117.728 35.6923 117.728 34.0102C117.728 32.328 117.331 31.0291 116.533 30.1172C115.738 29.2052 114.74 28.7492 113.533 28.7492C112.326 28.7492 111.328 29.2052 110.533 30.1172C109.739 31.0291 109.342 32.328 109.342 34.0102C109.342 35.6923 109.739 36.9912 110.533 37.9031C111.328 38.8151 112.326 39.2711 113.533 39.2711Z" fill="#3759A8"/>
<path d="M131.593 42.8497C129.981 42.8497 128.747 42.547 127.895 41.9377C127.043 41.3285 126.619 40.1138 126.619 38.29V28.9981H125.493C124.151 28.9981 123.484 28.4272 123.484 27.2777C123.484 26.7413 123.627 26.3236 123.912 26.0324C124.198 25.7412 124.714 25.5956 125.462 25.5956H126.619V21.7371C126.619 20.3577 127.267 19.668 128.562 19.668C129.858 19.668 130.436 20.3577 130.436 21.7371V25.5956H132.958C134.299 25.5956 134.966 26.1588 134.966 27.2777C134.966 28.3965 134.307 28.9981 132.992 28.9981H130.436V37.2746C130.436 38.0677 130.625 38.608 130.999 38.8877C131.373 39.1674 131.913 39.3092 132.618 39.3092C133.324 39.3092 133.918 39.3973 134.338 39.5736C134.758 39.7498 134.966 40.1981 134.966 40.9223C134.966 41.5086 134.801 41.9339 134.473 42.2021C134.141 42.4703 133.721 42.6466 133.212 42.7271C132.703 42.8075 132.163 42.8497 131.593 42.8497Z" fill="#EFBF1B"/>
<path d="M145.057 42.8496C143.557 42.8496 142.211 42.4818 141.02 41.7461C139.829 41.0104 138.884 39.9797 138.194 38.6616C137.5 37.3397 137.157 35.7917 137.157 34.0138C137.157 32.2359 137.504 30.6879 138.194 29.3659C138.888 28.044 139.829 27.0171 141.02 26.2776C142.215 25.5419 143.557 25.1741 145.057 25.1741C146.557 25.1741 147.968 25.5419 149.163 26.2776C150.355 27.0133 151.291 28.044 151.974 29.3659C152.656 30.6879 152.996 32.2359 152.996 34.0138C152.996 35.7917 152.653 37.3397 151.974 38.6616C151.291 39.9797 150.355 41.0104 149.163 41.7461C147.968 42.4818 146.603 42.8496 145.057 42.8496ZM145.057 39.2708C146.26 39.2708 147.243 38.8149 148.003 37.9029C148.762 36.991 149.144 35.692 149.144 34.0099C149.144 32.3278 148.762 31.0289 148.003 30.1169C147.243 29.205 146.26 28.749 145.057 28.749C143.854 28.749 142.909 29.205 142.161 30.1169C141.409 31.0289 141.036 32.3278 141.036 34.0099C141.036 35.692 141.409 36.991 142.161 37.9029C142.909 38.8149 143.877 39.2708 145.057 39.2708Z" fill="#F0A124"/>
<path d="M158.243 42.4626C156.948 42.4626 156.3 41.7729 156.3 40.3935V27.6608C156.3 26.2814 156.971 25.5917 158.309 25.5917C158.764 25.5917 159.161 25.7028 159.504 25.9251C159.843 26.1473 160.013 26.5611 160.013 27.1704V27.9789C160.421 27.1359 161.062 26.4577 161.941 25.9442C162.816 25.4308 163.741 25.1741 164.717 25.1741C165.422 25.1741 165.958 25.3657 166.336 25.7527C166.71 26.1397 166.899 26.6608 166.899 27.3122C166.899 27.9214 166.752 28.3659 166.456 28.6456C166.159 28.9253 165.819 29.0441 165.434 28.9943C165.253 28.9713 165.06 28.9559 164.855 28.9406C164.651 28.9253 164.424 28.9215 164.173 28.9215C163.059 28.9215 162.11 29.297 161.328 30.0441C160.545 30.7913 160.152 31.845 160.152 33.2015V40.3897C160.152 41.7691 159.515 42.4588 158.243 42.4588V42.4626Z" fill="#F18221"/>
<path d="M171.364 49.4441H170.442C169.806 49.3981 169.328 49.195 169.012 48.831C168.695 48.467 168.534 47.9957 168.534 47.4133C168.534 46.2447 168.919 45.7159 169.69 45.8347C169.918 45.8577 170.134 45.8768 170.338 45.8883C170.542 45.8998 170.747 45.9075 170.951 45.9075C171.564 45.9075 172.023 45.8385 172.331 45.6967C172.636 45.5549 172.883 45.3212 173.064 44.9955C173.245 44.666 173.449 44.2254 173.677 43.6621L174.12 42.4321L168.568 27.9828C168.294 27.2357 168.264 26.6494 168.468 26.2279C168.672 25.8064 169.069 25.5957 169.659 25.5957H169.898C171.055 25.5957 171.819 26.1475 172.181 27.2433L175.794 37.6962L179.167 27.2778C179.553 26.1551 180.312 25.5957 181.45 25.5957C182.109 25.5957 182.564 25.8064 182.811 26.2279C183.062 26.6494 183.062 27.2357 182.811 27.9828L176.95 44.8193C176.403 46.3634 175.74 47.5206 174.957 48.2908C174.17 49.0609 172.975 49.4479 171.364 49.4479V49.4441Z" fill="#CF264B"/>
<path d="M29.9468 16.8519H29.9236C23.6081 16.8365 19.0392 10.2575 18.8503 9.97782C18.6074 9.62147 18.6999 9.13868 19.0585 8.89728C19.417 8.65588 19.9028 8.74784 20.1458 9.10419C20.1882 9.1655 24.4486 15.2885 29.9352 15.2962H29.9468C33.147 15.2962 36.2083 13.2118 39.0461 9.10036C39.2928 8.74401 39.7786 8.65588 40.1372 8.89728C40.4919 9.14251 40.5845 9.6253 40.3416 9.98165C37.1954 14.5414 33.6983 16.8557 29.9506 16.8557L29.9468 16.8519Z" fill="#F0A124"/>
<path d="M49.4987 34.7266C49.3021 34.7266 49.1093 34.6538 48.9666 34.5197L44.5095 30.4083C44.1934 30.1171 44.1741 29.6228 44.4671 29.3086C44.764 28.9944 45.2575 28.9752 45.5737 29.2664L49.4409 32.8337L56.5854 24.745L48.8934 15.5068C48.6158 15.1773 48.662 14.6869 48.9975 14.411C49.3291 14.1389 49.8264 14.1849 50.1002 14.5144L58.2202 24.2622C58.4669 24.5573 58.4592 24.9864 58.2047 25.2738L50.0848 34.4622C49.946 34.6193 49.7455 34.7151 49.5373 34.7266C49.5257 34.7266 49.5103 34.7266 49.4987 34.7266Z" fill="#CF264B"/>
<path d="M8.90254 33.6078C8.69434 33.6078 8.48999 33.5273 8.33962 33.3703L0.219655 25.021C-0.0618067 24.7336 -0.0733735 24.2815 0.184954 23.975L8.30492 14.5069C8.58638 14.1812 9.0799 14.139 9.40763 14.4187C9.73536 14.6985 9.77777 15.1889 9.49631 15.5146L1.84288 24.4463L9.01436 31.8223L12.9008 29.278C13.2633 29.0404 13.7491 29.1401 13.9843 29.5002C14.2233 29.8604 14.1231 30.3432 13.7606 30.577L9.33052 33.4775C9.19943 33.5657 9.04906 33.6078 8.89869 33.6078H8.90254Z" fill="#CF264B"/>
<path d="M43.4067 54.9999H14.9906C14.5588 54.9999 14.2118 54.6551 14.2079 54.2297C13.8879 18.346 8.62498 14.9435 8.571 14.9128C8.28954 14.8094 8.12375 14.5718 8.0929 14.2768C8.06206 13.9817 8.23556 13.7058 8.48618 13.5487C31.701 -0.915873 49.8147 13.4606 49.9959 13.6062C50.1926 13.7671 50.3005 14.0162 50.2813 14.2691C50.262 14.522 50.1193 14.7519 49.8995 14.8783C45.7123 17.3421 44.1932 39.7575 44.1932 54.2221C44.1932 54.6512 43.8423 54.9999 43.4105 54.9999H43.4067ZM15.7656 53.4404H42.6278C42.6587 47.5128 43.0751 20.0128 48.2416 14.2576C44.7214 11.8551 29.3799 2.91964 10.1788 14.3419C11.9794 16.6256 15.4533 24.7411 15.7695 53.4404H15.7656Z" fill="#3759A8"/>
<path d="M22.4515 12.5183C22.3359 12.5183 22.2202 12.4914 22.1084 12.4378C21.719 12.25 21.557 11.7826 21.7498 11.3956C22.2703 10.3419 23.6352 7.29183 23.7316 5.87794C23.7354 5.8128 23.747 5.74766 23.7701 5.68253C23.8473 5.45646 25.6594 0.180227 29.4572 0.0269598C30.0972 -0.072664 33.4131 -0.256585 35.7303 6.00056C35.7458 6.0427 35.7573 6.08485 35.765 6.127C36.085 7.85126 36.7868 10.5794 37.342 11.2346C37.6196 11.5642 37.5772 12.0546 37.2456 12.3305C36.914 12.6064 36.4205 12.5642 36.1429 12.2347C35.152 11.0584 34.4078 7.3723 34.2382 6.47568C32.2448 1.14198 29.7387 1.5558 29.7117 1.56347C29.6693 1.57113 29.6076 1.57879 29.5613 1.58262C27.3366 1.6401 25.7558 4.77442 25.2893 6.08869C25.1003 8.08882 23.3615 11.6714 23.161 12.0776C23.026 12.3535 22.7446 12.5144 22.4554 12.5144L22.4515 12.5183Z" fill="#CF264B"/>
</g>
<defs>
<clipPath id="clip0_0_93">
<rect width="183" height="55" fill="white"/>
</clipPath>
</defs>
</svg>
