<svg width="249" height="74" viewBox="0 0 249 74" fill="none" xmlns="http://www.w3.org/2000/svg">
<g clip-path="url(#clip0_56_22)">
<path d="M11.4503 58.0337C8.52414 58.0337 7.03968 56.4647 7.03968 53.3054V27.2463H4.58019C1.5268 27.2463 3.05176e-05 25.9317 3.05176e-05 23.3237C3.05176e-05 20.7157 1.06024 19.4646 3.18065 19.4646H7.03968V12.5735C7.03968 7.82396 8.09989 4.53744 10.2203 2.71395C12.2572 1.36884 14.5691 0.495645 16.9866 0.158152C19.4042 -0.17934 21.8666 0.0274004 24.194 0.763234C24.8483 1.02872 25.3921 1.50989 25.7354 2.12695C26.0786 2.74401 26.2007 3.45985 26.0812 4.15577C26.1119 5.1396 25.8774 6.1136 25.4025 6.97583C25.0619 7.39303 24.6198 7.71556 24.1184 7.91237C23.6171 8.10919 23.0735 8.17367 22.54 8.09961C22.222 8.09961 21.8614 8.09961 21.4374 8.09961C21.0775 8.07128 20.7158 8.07128 20.3559 8.09961C17.2601 8.09961 15.7124 10.0291 15.7124 13.8669V19.6343H21.5223C24.5757 19.6343 26.0812 20.9277 26.0812 23.4933C26.0812 26.0589 24.5967 27.4159 21.6069 27.4159H15.7124V53.475C15.7124 56.4647 14.2917 58.0337 11.4503 58.0337Z" fill="#3D5AA3"/>
<path d="M43.9773 58.6064C40.4433 58.8977 36.9205 57.9287 34.0327 55.8711C32.7297 54.8667 31.6912 53.5596 31.0076 52.0632C30.324 50.5668 30.0158 48.9262 30.1097 47.2838C30.0527 44.7539 30.9026 42.287 32.5058 40.329C34.1841 38.3507 36.3055 36.7961 38.6975 35.7915C41.1657 34.7053 43.8254 34.1215 46.5217 34.074C47.7957 33.9625 49.0795 34.0701 50.3173 34.3921C51.4406 34.6792 52.5133 35.1369 53.4979 35.7491V32.3777C53.6245 31.5007 53.5511 30.6065 53.2831 29.7619C53.015 28.9174 52.5592 28.1444 51.95 27.501C50.5785 26.6564 48.9765 26.2633 47.3699 26.3772C45.8478 26.3802 44.3315 26.5652 42.8534 26.9285C41.28 27.3092 39.7411 27.8198 38.2523 28.4551C37.187 29 35.9855 29.2212 34.796 29.0912C34.2792 28.9782 33.7965 28.7445 33.3874 28.4091C32.9783 28.0738 32.6545 27.6463 32.4423 27.1617C32.1462 26.6817 31.9551 26.1444 31.882 25.5852C31.8089 25.0259 31.8553 24.4575 32.0181 23.9176C32.2472 23.3481 32.597 22.8352 33.0436 22.4142C33.4903 21.9932 34.023 21.6742 34.6049 21.4792C36.5498 20.5519 38.5905 19.8409 40.6905 19.3588C42.8769 18.8249 45.1193 18.5544 47.3699 18.5531C51.2219 18.2658 55.0536 19.3305 58.2051 21.564C60.6365 23.5571 61.8524 27.1758 61.8524 32.4201V50.1462C61.8369 50.5784 61.9015 51.0098 62.0432 51.4184C62.137 51.671 62.2577 51.9128 62.4035 52.1393C62.5609 52.4312 62.7755 52.6885 63.034 52.8961C63.2926 53.1037 63.5902 53.2573 63.9092 53.3479C64.4393 53.4539 64.9268 53.5176 65.3297 53.56C65.7326 53.6024 65.9659 53.8356 65.9659 54.3021C65.9877 55.1934 65.7281 56.0688 65.2238 56.8041C64.6086 57.5597 63.7439 58.0709 62.7853 58.2459C61.6435 58.5018 60.4779 58.6368 59.3078 58.6488C58.0224 58.7218 56.7428 58.4277 55.6183 57.8007C54.683 57.1088 54.0341 56.0978 53.7948 54.9594C52.4857 56.1042 50.966 56.9829 49.3207 57.5462C47.5969 58.1441 45.7987 58.5008 43.9773 58.6064ZM43.8077 50.7399C46.3029 50.733 48.7602 50.1296 50.9747 48.98C51.8286 48.5734 52.5401 47.9189 53.0167 47.102C53.4933 46.2851 53.7128 45.3435 53.6465 44.4001C53.6526 43.8181 53.4728 43.2493 53.1334 42.7764C52.794 42.3036 52.3127 41.9513 51.7593 41.7709C49.9621 41.2127 48.0657 41.0488 46.1994 41.2903C44.3331 41.5318 42.5408 42.173 40.945 43.1703C40.2215 43.619 39.6228 44.2427 39.204 44.9839C38.7852 45.725 38.5599 46.5598 38.5489 47.411C38.6761 49.7858 40.4151 50.9095 43.8077 50.7399Z" fill="#3D5AA3"/>
<path d="M91.4959 58.9244C89.3936 58.9573 87.3213 58.4233 85.4967 57.3786C83.6722 56.3339 82.1628 54.817 81.127 52.9874V54.5989C81.1806 55.1114 81.0969 55.6289 80.8845 56.0984C80.6721 56.5679 80.3385 56.9724 79.9182 57.2705C79.024 57.8083 77.9926 58.0735 76.9499 58.0339C74.363 58.0339 73.0693 56.4648 73.0693 53.3055V5.59777C73.0693 2.45967 74.5538 0.869385 77.5012 0.869385C80.4486 0.869385 81.742 2.45967 81.742 5.59777V22.921C82.9196 21.5618 84.3628 20.4578 85.9828 19.6769C87.6539 18.892 89.4799 18.4934 91.3261 18.5107C94.5744 18.4586 97.7763 19.2865 100.592 20.9067C103.333 22.5702 105.54 24.9835 106.953 27.8614C108.477 31.2778 109.265 34.9767 109.265 38.7175C109.265 42.4583 108.477 46.1572 106.953 49.5737C105.546 52.4499 103.337 54.8578 100.592 56.5072C97.8317 58.114 94.6899 58.9489 91.4959 58.9244ZM91.199 50.7399C92.5 50.7874 93.7945 50.5348 94.9822 50.0016C96.1698 49.4685 97.2188 48.6691 98.0479 47.6654C99.8182 45.0368 100.764 41.9397 100.764 38.7705C100.764 35.6014 99.8182 32.5043 98.0479 29.8757C97.2019 28.8972 96.1551 28.1124 94.9788 27.5744C93.8025 27.0364 92.5243 26.758 91.2308 26.758C89.9373 26.758 88.6589 27.0364 87.4825 27.5744C86.3062 28.1124 85.2595 28.8972 84.4135 29.8757C82.6567 32.5095 81.7192 35.6046 81.7192 38.7705C81.7192 41.9365 82.6567 45.0316 84.4135 47.6654C85.244 48.6509 86.2845 49.4384 87.4585 49.9703C88.6324 50.5023 89.9104 50.7652 91.199 50.7399Z" fill="#3D5AA3"/>
<path d="M132.229 58.9244C129.25 59.1195 126.284 58.3781 123.747 56.804C121.818 55.4258 120.864 52.5634 120.864 48.4711V27.2677H118.298C115.266 27.2677 113.739 25.953 113.739 23.345C113.671 22.3093 114.013 21.2884 114.693 20.5038C115.693 19.7104 116.966 19.3446 118.234 19.486H120.864V10.6866C120.864 7.52725 122.326 5.93701 125.274 5.93701C128.221 5.93701 129.515 7.52725 129.515 10.6866V19.486H135.261C138.293 19.486 139.82 20.7794 139.82 23.345C139.82 25.9106 138.314 27.2677 135.325 27.2677H129.515V46.2023C129.432 46.8721 129.506 47.5519 129.731 48.1883C129.955 48.8248 130.324 49.4005 130.808 49.8705C131.89 50.5912 133.18 50.9341 134.477 50.8459C135.81 50.7916 137.142 50.9931 138.399 51.4396C139.332 51.8424 139.82 52.8814 139.82 54.5353C139.866 55.0763 139.79 55.6208 139.595 56.1277C139.4 56.6346 139.093 57.0906 138.696 57.4613C137.871 58.1157 136.88 58.5269 135.833 58.6487C134.641 58.8361 133.436 58.9283 132.229 58.9244Z" fill="#E8C047"/>
<path d="M162.805 58.9243C159.568 58.9688 156.384 58.0939 153.624 56.4011C150.904 54.6655 148.706 52.2254 147.263 49.3404C145.718 46.0193 144.918 42.4011 144.918 38.7386C144.918 35.0762 145.718 31.458 147.263 28.1369C148.706 25.2519 150.904 22.8119 153.624 21.0762C156.384 19.3835 159.568 18.5085 162.805 18.553C166.091 18.4978 169.325 19.3725 172.135 21.0762C174.857 22.8086 177.056 25.2494 178.496 28.1369C180.013 31.4656 180.797 35.0808 180.797 38.7386C180.797 42.3965 180.013 46.0117 178.496 49.3404C177.056 52.2278 174.857 54.6687 172.135 56.4011C169.325 58.1048 166.091 58.9795 162.805 58.9243ZM162.805 50.7398C164.089 50.7713 165.362 50.5042 166.525 49.9597C167.688 49.4151 168.708 48.6079 169.506 47.6017C171.196 44.9428 172.093 41.8574 172.093 38.7068C172.093 35.5563 171.196 32.4709 169.506 29.812C168.704 28.8122 167.682 28.0108 166.52 27.4702C165.358 26.9296 164.087 26.6644 162.805 26.6951C161.54 26.6678 160.285 26.9352 159.14 27.4761C157.996 28.0171 156.993 28.8168 156.211 29.812C154.547 32.4806 153.665 35.5622 153.665 38.7068C153.665 41.8515 154.547 44.9331 156.211 47.6017C156.989 48.6033 157.99 49.4089 159.135 49.9538C160.28 50.4988 161.537 50.7679 162.805 50.7398Z" fill="#E5A343"/>
<path d="M192.767 58.0338C189.819 58.0338 188.335 56.4648 188.335 53.3054V24.1931C188.234 23.5623 188.282 22.9167 188.474 22.3076C188.667 21.6984 188.998 21.1424 189.443 20.6836C189.887 20.2248 190.432 19.8757 191.035 19.6642C191.638 19.4526 192.281 19.3843 192.915 19.4647C193.875 19.4477 194.819 19.7131 195.629 20.2281C196.046 20.5703 196.369 21.012 196.569 21.5124C196.769 22.0128 196.84 22.5556 196.774 23.0905V24.9352C197.738 22.9766 199.267 21.3517 201.164 20.2705C203.083 19.1122 205.283 18.5034 207.525 18.5106C208.189 18.4383 208.86 18.5147 209.491 18.7343C210.121 18.9539 210.695 19.3112 211.17 19.7803C211.645 20.2493 212.01 20.8183 212.237 21.4459C212.465 22.0735 212.55 22.744 212.486 23.4086C212.535 23.9569 212.47 24.5094 212.295 25.0312C212.12 25.553 211.839 26.033 211.469 26.4407C211.176 26.7494 210.813 26.9836 210.411 27.1238C210.009 27.2639 209.579 27.306 209.158 27.2464L207.843 27.1404C207.376 27.1404 206.868 27.1404 206.295 27.1404C205.118 27.1287 203.95 27.3492 202.859 27.7895C201.767 28.2297 200.773 28.881 199.934 29.706C199.011 30.6551 198.296 31.7867 197.836 33.0282C197.376 34.2697 197.18 35.5937 197.262 36.9152V53.3478C197.092 56.4647 195.587 58.0338 192.767 58.0338Z" fill="#E3873C"/>
<path d="M222.558 73.9788H220.438C219.831 73.9743 219.232 73.8482 218.674 73.6078C218.117 73.3674 217.613 73.0177 217.194 72.5794C216.443 71.6698 216.058 70.5134 216.113 69.3352C216.113 66.6636 216.982 65.455 218.742 65.7307L220.226 65.8579H221.604C222.673 65.9104 223.741 65.7444 224.743 65.3702C225.464 65.0327 226.053 64.4661 226.418 63.7587C226.934 62.7746 227.394 61.7623 227.796 60.7266L228.814 57.9066L216.091 24.8928C215.488 23.6326 215.404 22.1856 215.858 20.8642C216.112 20.3777 216.507 19.9795 216.991 19.7221C217.476 19.4647 218.027 19.3602 218.572 19.4223H219.102C220.272 19.3465 221.432 19.6823 222.381 20.3715C223.33 21.0608 224.008 22.0602 224.297 23.1966L232.503 47.0928L240.158 23.2814C240.445 22.1374 241.12 21.1281 242.067 20.4247C243.014 19.7214 244.175 19.3672 245.353 19.4223C245.951 19.3607 246.555 19.4622 247.1 19.7161C247.645 19.9699 248.111 20.3667 248.449 20.8642C248.737 21.4966 248.886 22.1835 248.886 22.8785C248.886 23.5735 248.737 24.2604 248.449 24.8928L235.133 63.3559C234.229 66.3101 232.679 69.0262 230.595 71.3071C228.37 73.2176 225.484 74.1771 222.558 73.9788Z" fill="#BF384E"/>
</g>
<defs>
<clipPath id="clip0_56_22">
<rect width="249" height="74" fill="white"/>
</clipPath>
</defs>
</svg>
