<svg width="112" height="34" viewBox="0 0 112 34" fill="none" xmlns="http://www.w3.org/2000/svg">
<g clip-path="url(#clip0_0_66)">
<path d="M48.004 26.2497C47.2111 26.2497 46.8147 25.8233 46.8147 24.9706V17.9238H46.1469C45.3257 17.9238 44.9175 17.5709 44.9175 16.8602C44.9175 16.1496 45.203 15.8204 45.7741 15.8204H46.8171V13.9562C46.8171 12.6701 47.1026 11.7818 47.6736 11.2891C48.2423 10.7988 49.0564 10.5525 50.1136 10.5525C50.6422 10.5525 51.0835 10.6212 51.4374 10.7585C51.7914 10.8959 51.9613 11.2038 51.9471 11.68C51.9471 11.9831 51.8858 12.2366 51.7607 12.4379C51.6356 12.6416 51.3784 12.7411 50.9891 12.7411C50.9041 12.7411 50.8074 12.734 50.6965 12.7198C50.5856 12.7056 50.4865 12.6985 50.4039 12.6985C49.5709 12.6985 49.1532 13.2196 49.1532 14.2594V15.8204H50.7177C51.5389 15.8204 51.9471 16.1686 51.9471 16.8602C51.9471 17.5519 51.5436 17.9238 50.7389 17.9238H49.1532V24.9706C49.1532 25.8233 48.7709 26.2497 48.0064 26.2497H48.004Z" fill="#3759A8"/>
<path d="M56.7634 26.4037C55.6803 26.4463 54.7859 26.1999 54.0827 25.667C53.3795 25.1317 53.0303 24.3595 53.0303 23.3481C53.0303 22.6114 53.245 21.9813 53.6768 21.4626C54.1087 20.9415 54.6632 20.5341 55.3452 20.238C56.0271 19.9419 56.728 19.7856 57.4524 19.7714C57.8135 19.7429 58.1556 19.7714 58.4742 19.859C58.7951 19.9466 59.0806 20.0698 59.3308 20.2261V19.3166C59.3308 18.6368 59.1915 18.1962 58.9131 17.9949C58.6346 17.7911 58.224 17.6917 57.6837 17.6917C57.2943 17.6917 56.8884 17.7414 56.4637 17.8433C56.0389 17.9451 55.626 18.0825 55.2225 18.2554C54.8614 18.4141 54.5523 18.471 54.2951 18.4283C54.0379 18.3833 53.8255 18.2104 53.6603 17.9072C53.4928 17.604 53.455 17.3127 53.5447 17.0308C53.6344 16.7489 53.868 16.5286 54.2432 16.3699C54.7434 16.1236 55.2885 15.9294 55.8808 15.7849C56.4708 15.6404 57.0725 15.567 57.6837 15.567C58.9768 15.567 59.949 15.837 60.6027 16.3794C61.2563 16.9218 61.5843 17.9001 61.5843 19.3166V24.1084C61.5843 24.2529 61.6008 24.369 61.6362 24.4542C61.6716 24.5419 61.7023 24.6058 61.7306 24.6485C61.8557 24.8356 61.9925 24.9446 62.1388 24.973C62.2851 25.0014 62.4126 25.0203 62.5235 25.0275C62.6344 25.0346 62.691 25.1033 62.691 25.2335C62.691 25.4941 62.6249 25.7191 62.4928 25.9062C62.3607 26.0934 62.1412 26.2236 61.8344 26.2971C61.5135 26.3681 61.202 26.406 60.8953 26.406C60.4634 26.406 60.1354 26.3302 59.9042 26.1786C59.6753 26.027 59.5125 25.7712 59.4134 25.4088C59.0665 25.712 58.663 25.9465 58.2052 26.1123C57.745 26.2781 57.266 26.3752 56.7657 26.406L56.7634 26.4037ZM56.7233 24.279C57.502 24.2505 58.1438 24.0918 58.6512 23.8028C59.1585 23.5139 59.3992 23.1017 59.3709 22.5664C59.3567 22.2182 59.1868 21.9813 58.8588 21.8511C58.5332 21.7208 58.1249 21.671 57.6388 21.6995C56.9569 21.7137 56.3953 21.8913 55.9493 22.23C55.5033 22.5688 55.2885 22.9501 55.3027 23.367C55.331 24.0184 55.803 24.3216 56.7209 24.2766L56.7233 24.279Z" fill="#3759A8"/>
<path d="M69.5697 26.4889C68.3875 26.4889 67.4554 25.9536 66.7758 24.8853V25.3188C66.7758 25.6646 66.6672 25.9086 66.4525 26.046C66.2377 26.1834 65.9687 26.2521 65.6502 26.2521C64.9541 26.2521 64.6072 25.8257 64.6072 24.973V12.0708C64.6072 11.2181 65.0036 10.7917 65.7965 10.7917C66.5893 10.7917 66.9645 11.2181 66.9645 12.0708V16.7537C67.2996 16.3794 67.6866 16.0857 68.1326 15.8749C68.5786 15.6664 69.0576 15.5599 69.5721 15.5599C70.5041 15.5599 71.3348 15.7778 72.0639 16.2112C72.7955 16.6447 73.3689 17.27 73.7842 18.0872C74.2018 18.9044 74.4095 19.8827 74.4095 21.0244C74.4095 22.1661 74.1995 23.1467 73.7842 23.9616C73.3665 24.7787 72.7931 25.4041 72.0639 25.8375C71.3348 26.271 70.5041 26.4889 69.5721 26.4889H69.5697ZM69.4847 24.2766C70.221 24.2766 70.8345 23.9947 71.3206 23.431C71.8067 22.8672 72.0521 22.0642 72.0521 21.0244C72.0521 19.9845 71.8091 19.1816 71.3206 18.6178C70.8345 18.0541 70.2233 17.7722 69.4847 17.7722C68.7461 17.7722 68.135 18.0541 67.6489 18.6178C67.1628 19.1816 66.9197 19.9845 66.9197 21.0244C66.9197 22.0642 67.1628 22.8672 67.6489 23.431C68.135 23.9947 68.7461 24.2766 69.4847 24.2766Z" fill="#3759A8"/>
<path d="M80.5377 26.4889C79.5513 26.4889 78.7962 26.3018 78.2747 25.9252C77.7532 25.5486 77.4937 24.7977 77.4937 23.6702V17.9261H76.8046C75.9834 17.9261 75.5752 17.5732 75.5752 16.8626C75.5752 16.531 75.6625 16.2728 75.8371 16.0928C76.0117 15.9128 76.328 15.8228 76.7857 15.8228H77.4937V13.4375C77.4937 12.5848 77.8901 12.1584 78.683 12.1584C79.4758 12.1584 79.8298 12.5848 79.8298 13.4375V15.8228H81.3731C82.1942 15.8228 82.6025 16.171 82.6025 16.8626C82.6025 17.5543 82.199 17.9261 81.3943 17.9261H79.8298V23.0425C79.8298 23.5328 79.9454 23.8668 80.1743 24.0397C80.4032 24.2126 80.7336 24.3003 81.1654 24.3003C81.5972 24.3003 81.9606 24.3547 82.2178 24.4637C82.4751 24.5727 82.6025 24.8498 82.6025 25.2975C82.6025 25.6599 82.501 25.9228 82.3004 26.0886C82.0975 26.2544 81.8403 26.3634 81.5288 26.4131C81.2173 26.4629 80.887 26.4889 80.5377 26.4889Z" fill="#EFBF1B"/>
<path d="M88.778 26.4889C87.86 26.4889 87.0365 26.2615 86.3073 25.8067C85.5782 25.352 85 24.7148 84.5776 23.9C84.1529 23.0828 83.9429 22.1258 83.9429 21.0267C83.9429 19.9277 84.1552 18.9707 84.5776 18.1535C85.0024 17.3364 85.5782 16.7015 86.3073 16.2444C87.0388 15.7896 87.86 15.5622 88.778 15.5622C89.6959 15.5622 90.5596 15.7896 91.2911 16.2444C92.0202 16.6992 92.5936 17.3364 93.0113 18.1535C93.429 18.9707 93.6367 19.9277 93.6367 21.0267C93.6367 22.1258 93.4266 23.0828 93.0113 23.9C92.5936 24.7148 92.0202 25.352 91.2911 25.8067C90.5596 26.2615 89.7242 26.4889 88.778 26.4889ZM88.778 24.2766C89.5142 24.2766 90.1159 23.9947 90.5808 23.431C91.0457 22.8672 91.2793 22.0642 91.2793 21.0244C91.2793 19.9845 91.0457 19.1816 90.5808 18.6178C90.1159 18.0541 89.5142 17.7722 88.778 17.7722C88.0417 17.7722 87.4636 18.0541 87.0058 18.6178C86.5457 19.1816 86.3168 19.9845 86.3168 21.0244C86.3168 22.0642 86.5457 22.8672 87.0058 23.431C87.4636 23.9947 88.0559 24.2766 88.778 24.2766Z" fill="#F0A124"/>
<path d="M96.8482 26.2497C96.0554 26.2497 95.6589 25.8233 95.6589 24.9706V17.0995C95.6589 16.2468 96.0695 15.8204 96.8884 15.8204C97.1668 15.8204 97.4099 15.8891 97.6199 16.0265C97.8275 16.1639 97.9314 16.4197 97.9314 16.7963V17.2961C98.1815 16.775 98.5732 16.3557 99.1112 16.0383C99.6469 15.7209 100.213 15.5622 100.81 15.5622C101.242 15.5622 101.57 15.6806 101.801 15.9199C102.03 16.1591 102.146 16.4813 102.146 16.8839C102.146 17.2606 102.056 17.5353 101.874 17.7082C101.693 17.8811 101.485 17.9546 101.249 17.9238C101.138 17.9096 101.02 17.9001 100.895 17.8906C100.77 17.8811 100.631 17.8788 100.478 17.8788C99.7955 17.8788 99.2151 18.1109 98.736 18.5728C98.257 19.0347 98.0163 19.6861 98.0163 20.5246V24.9682C98.0163 25.821 97.627 26.2473 96.8482 26.2473V26.2497Z" fill="#F18221"/>
<path d="M104.878 30.5654H104.314C103.925 30.537 103.632 30.4115 103.439 30.1864C103.245 29.9614 103.146 29.6701 103.146 29.31C103.146 28.5876 103.382 28.2607 103.854 28.3341C103.994 28.3483 104.126 28.3602 104.251 28.3673C104.376 28.3744 104.501 28.3791 104.626 28.3791C105.001 28.3791 105.282 28.3365 105.471 28.2489C105.657 28.1612 105.808 28.0167 105.919 27.8154C106.03 27.6117 106.155 27.3393 106.294 26.9911L106.566 26.2307L103.168 17.2985C103 16.8366 102.981 16.4742 103.106 16.2136C103.231 15.953 103.474 15.8228 103.835 15.8228H103.982C104.69 15.8228 105.157 16.1639 105.379 16.8413L107.59 23.3031L109.655 16.8626C109.89 16.1686 110.355 15.8228 111.051 15.8228C111.455 15.8228 111.733 15.953 111.884 16.2136C112.038 16.4742 112.038 16.8366 111.884 17.2985L108.298 27.7064C107.963 28.661 107.557 29.3763 107.078 29.8524C106.596 30.3286 105.865 30.5678 104.878 30.5678V30.5654Z" fill="#CF264B"/>
<path d="M18.328 10.4174H18.3139C14.4486 10.408 11.6524 6.34096 11.5367 6.16804C11.3881 5.94776 11.4447 5.6493 11.6642 5.50007C11.8836 5.35085 12.1809 5.4077 12.3296 5.62798C12.3556 5.66588 14.9631 9.45103 18.321 9.45577H18.328C20.2866 9.45577 22.1603 8.16721 23.897 5.62561C24.048 5.40533 24.3454 5.35085 24.5648 5.50007C24.7819 5.65167 24.8385 5.95012 24.6899 6.17041C22.7643 8.98914 20.6241 10.4198 18.3304 10.4198L18.328 10.4174Z" fill="#F0A124"/>
<path d="M30.2943 21.4673C30.1739 21.4673 30.056 21.4223 29.9686 21.3394L27.2408 18.7978C27.0473 18.6178 27.0355 18.3123 27.2148 18.118C27.3965 17.9238 27.6986 17.912 27.8921 18.092L30.2589 20.2972L34.6315 15.2969L29.9238 9.58605C29.7539 9.38234 29.7822 9.07915 29.9875 8.90861C30.1905 8.74043 30.4949 8.76885 30.6624 8.97256L35.632 14.9985C35.783 15.1809 35.7783 15.4462 35.6226 15.6238L30.653 21.3039C30.568 21.401 30.4453 21.4602 30.3179 21.4673C30.3108 21.4673 30.3014 21.4673 30.2943 21.4673Z" fill="#CF264B"/>
<path d="M5.44861 20.7757C5.32118 20.7757 5.19612 20.7259 5.10409 20.6288L0.134488 15.4675C-0.0377723 15.2898 -0.0448515 15.0103 0.113251 14.8208L5.08285 8.96782C5.25511 8.76648 5.55715 8.74043 5.75773 8.91334C5.95831 9.08625 5.98427 9.38944 5.81201 9.59078L1.12794 15.1122L5.51704 19.6719L7.89565 18.0991C8.11746 17.9522 8.41479 18.0138 8.55873 18.2365C8.70504 18.4591 8.64368 18.7576 8.42187 18.9021L5.71054 20.6951C5.63031 20.7496 5.53828 20.7757 5.44625 20.7757H5.44861Z" fill="#CF264B"/>
<path d="M26.5659 34H9.17466C8.91037 34 8.69799 33.7868 8.69563 33.5239C8.49978 11.3412 5.27874 9.23784 5.24571 9.21889C5.07345 9.15493 4.97198 9.00808 4.9531 8.82569C4.93422 8.6433 5.04041 8.47276 5.19379 8.37564C19.4017 -0.56612 30.4878 8.32116 30.5987 8.41117C30.719 8.51065 30.7851 8.66462 30.7733 8.82095C30.7615 8.97728 30.6742 9.1194 30.5397 9.19757C27.977 10.7206 27.0473 24.5774 27.0473 33.5192C27.0473 33.7844 26.8325 34 26.5682 34H26.5659ZM9.64897 33.0359H26.0892C26.1081 29.3716 26.363 12.3716 29.525 8.81384C27.3706 7.32868 17.9812 1.80493 6.22971 8.86596C7.33171 10.2777 9.45783 15.2945 9.65133 33.0359H9.64897Z" fill="#3759A8"/>
<path d="M13.7407 7.73866C13.6699 7.73866 13.5991 7.72208 13.5307 7.68892C13.2924 7.57286 13.1933 7.28388 13.3113 7.04464C13.6298 6.39326 14.4652 4.50779 14.5242 3.63375C14.5265 3.59348 14.5336 3.55321 14.5478 3.51294C14.595 3.37319 15.704 0.111522 18.0284 0.0167748C18.4201 -0.0448108 20.4494 -0.158507 21.8676 3.70954C21.8771 3.7356 21.8842 3.76165 21.8889 3.78771C22.0847 4.85361 22.5142 6.54011 22.854 6.94516C23.0239 7.14886 22.998 7.45205 22.795 7.6226C22.5921 7.79314 22.29 7.76709 22.1201 7.56338C21.5137 6.8362 21.0583 4.55753 20.9544 4.00326C19.7344 0.70606 18.2006 0.961877 18.1841 0.966615C18.1581 0.971352 18.1204 0.976089 18.0921 0.978458C16.7305 1.01399 15.763 2.95157 15.4775 3.76402C15.3619 5.00047 14.2976 7.21519 14.1749 7.46627C14.0923 7.63681 13.9201 7.7363 13.7431 7.7363L13.7407 7.73866Z" fill="#CF264B"/>
</g>
<defs>
<clipPath id="clip0_0_66">
<rect width="112" height="34" fill="white"/>
</clipPath>
</defs>
</svg>
