<svg width="48" height="41" viewBox="0 0 48 41" fill="none" xmlns="http://www.w3.org/2000/svg">
<path d="M9.6 22.515C4.296 22.515 0 26.5452 0 31.521C0 36.4968 4.296 40.527 9.6 40.527C14.904 40.527 19.2 36.4968 19.2 31.521C19.2 26.5452 14.904 22.515 9.6 22.515ZM9.6 36.024C6.96 36.024 4.8 33.9976 4.8 31.521C4.8 29.0443 6.96 27.018 9.6 27.018C12.24 27.018 14.4 29.0443 14.4 31.521C14.4 33.9976 12.24 36.024 9.6 36.024ZM9.6 0C4.296 0 0 4.03018 0 9.00599C0 13.9818 4.296 18.012 9.6 18.012C14.904 18.012 19.2 13.9818 19.2 9.00599C19.2 4.03018 14.904 0 9.6 0ZM24 4.503H48V9.00599H24V4.503ZM24 36.024V31.521H48V36.024H24ZM24 18.012H48V22.515H24V18.012Z" fill="#CC5336"/>
</svg>
