<svg width="229" height="168" viewBox="0 0 229 168" fill="none" xmlns="http://www.w3.org/2000/svg">
<g clip-path="url(#clip0_56_45)">
<path opacity="0.36" fill-rule="evenodd" clip-rule="evenodd" d="M228.859 166.765C228.942 166.879 228.993 167.017 229.007 167.161C229.02 167.305 228.994 167.45 228.933 167.579C228.872 167.709 228.777 167.817 228.661 167.891C228.544 167.966 228.41 168.003 228.274 168H0.725967C0.591409 167.999 0.459586 167.959 0.345031 167.884C0.230477 167.809 0.137636 167.702 0.0767549 167.574C0.0152505 167.446 -0.0112845 167.303 0.000152553 167.16C0.0115896 167.017 0.0605426 166.88 0.141441 166.765L16.6064 143.07H212.394L228.859 166.765Z" fill="#3D5AA3"/>
<path fill-rule="evenodd" clip-rule="evenodd" d="M196.226 3.91606C196.225 2.87767 195.838 1.88199 195.148 1.14773C194.459 0.413477 193.524 0.000675819 192.549 0H36.6407C35.6656 0.000675819 34.7307 0.413477 34.0412 1.14773C33.3517 1.88199 32.9641 2.87767 32.9634 3.91606V101.573H196.226V3.91606Z" fill="#181818"/>
<path d="M225.605 156.4H3.57904L30.0815 102.149H199.108L225.605 156.4Z" fill="#E0E0DF"/>
<path d="M225.605 161.724H3.57904V156.4H225.605V161.724Z" fill="#BABABA"/>
<path d="M206.232 140.981H25.7886L37.9152 109.068H192.649L206.232 140.981Z" fill="#201E22"/>
<path d="M121.948 140.162H67.5583L71.2139 136.013H117.854L121.948 140.162Z" fill="#414141"/>
<path d="M46.6399 114.285H37.2348L39.4747 110.137H47.5383L46.6399 114.285Z" fill="#414141"/>
<path d="M45.8374 120.061H36.4323L38.6697 115.91H46.7357L45.8374 120.061Z" fill="#414141"/>
<path d="M44.2299 125.834H34.8248L37.0647 121.683H45.1307L44.2299 125.834Z" fill="#414141"/>
<path d="M42.6248 131.607H33.2197L35.4572 127.459H43.5232L42.6248 131.607Z" fill="#414141"/>
<path d="M39.2111 138.878H29.806L32.0435 134.73H40.1095L39.2111 138.878Z" fill="#414141"/>
<path d="M132.592 139.735H123.184L125.424 135.585H133.49L132.592 139.735Z" fill="#414141"/>
<path d="M172.754 139.093H163.349L165.586 134.944H173.652L172.754 139.093Z" fill="#414141"/>
<path d="M57.2835 114.285H47.8784L50.1159 110.137H58.1819L57.2835 114.285Z" fill="#414141"/>
<path d="M57.2835 120.061H47.8784L50.1159 115.91H58.1819L57.2835 120.061Z" fill="#414141"/>
<path d="M55.8773 125.834H46.4722L48.7121 121.683H56.7781L55.8773 125.834Z" fill="#414141"/>
<path d="M54.8736 131.182H45.4684L47.7083 127.031H55.7719L54.8736 131.182Z" fill="#414141"/>
<path d="M51.4599 138.452H42.0547L44.2922 134.302H52.3582L51.4599 138.452Z" fill="#414141"/>
<path d="M144.84 139.307H135.435L137.673 135.156H145.739L144.84 139.307Z" fill="#414141"/>
<path d="M185.002 138.667H175.597L177.837 134.516H185.901L185.002 138.667Z" fill="#414141"/>
<path d="M67.9272 114.285H58.5221L60.7596 110.137H68.8255L67.9272 114.285Z" fill="#414141"/>
<path d="M67.9272 120.061H58.5221L60.7596 115.91H68.8255L67.9272 120.061Z" fill="#414141"/>
<path d="M67.9272 125.834H58.5221L60.7596 121.683H68.8255L67.9272 125.834Z" fill="#414141"/>
<path d="M67.9272 131.607H58.5221L60.7596 127.459H68.8255L67.9272 131.607Z" fill="#414141"/>
<path d="M64.5135 138.878H55.1083L57.3458 134.73H65.4118L64.5135 138.878Z" fill="#414141"/>
<path d="M157.894 139.735H148.486L150.726 135.585H158.792L157.894 139.735Z" fill="#414141"/>
<path d="M198.056 139.093H188.651L190.888 134.944H198.954L198.056 139.093Z" fill="#414141"/>
<path d="M78.5708 114.285H69.1657L71.4032 110.137H79.4692L78.5708 114.285Z" fill="#414141"/>
<path d="M78.5708 120.061H69.1657L71.4032 115.91H79.4692L78.5708 120.061Z" fill="#414141"/>
<path d="M78.5708 125.834H69.1657L71.4032 121.683H79.4692L78.5708 125.834Z" fill="#414141"/>
<path d="M78.5708 131.607H69.1657L71.4032 127.459H79.4692L78.5708 131.607Z" fill="#414141"/>
<path d="M89.2145 114.285H79.8069L82.0468 110.137H90.1128L89.2145 114.285Z" fill="#414141"/>
<path d="M89.2145 120.061H79.8069L82.0468 115.91H90.1128L89.2145 120.061Z" fill="#414141"/>
<path d="M89.2145 125.834H79.8069L82.0468 121.683H90.1128L89.2145 125.834Z" fill="#414141"/>
<path d="M89.2145 131.607H79.8069L82.0468 127.459H90.1128L89.2145 131.607Z" fill="#414141"/>
<path d="M99.8581 114.285H90.4506L92.6905 110.137H100.756L99.8581 114.285Z" fill="#414141"/>
<path d="M99.8581 120.061H90.4506L92.6905 115.91H100.756L99.8581 120.061Z" fill="#414141"/>
<path d="M99.8581 125.834H90.4506L92.6905 121.683H100.756L99.8581 125.834Z" fill="#414141"/>
<path d="M99.8581 131.607H90.4506L92.6905 127.459H100.756L99.8581 131.607Z" fill="#414141"/>
<path d="M110.499 114.285H101.094L103.334 110.137H111.4L110.499 114.285Z" fill="#414141"/>
<path d="M110.499 120.061H101.094L103.334 115.91H111.4L110.499 120.061Z" fill="#414141"/>
<path d="M110.499 125.834H101.094L103.334 121.683H111.4L110.499 125.834Z" fill="#414141"/>
<path d="M110.499 131.607H101.094L103.334 127.459H111.4L110.499 131.607Z" fill="#414141"/>
<path d="M121.143 114.285H111.738L113.975 110.137H122.041L121.143 114.285Z" fill="#414141"/>
<path d="M121.143 120.061H111.738L113.975 115.91H122.041L121.143 120.061Z" fill="#414141"/>
<path d="M121.143 125.834H111.738L113.975 121.683H122.041L121.143 125.834Z" fill="#414141"/>
<path d="M121.143 131.607H111.738L113.975 127.459H122.041L121.143 131.607Z" fill="#414141"/>
<path d="M131.787 114.285H122.382L124.619 110.137H132.685L131.787 114.285Z" fill="#414141"/>
<path d="M131.787 120.061H122.382L124.619 115.91H132.685L131.787 120.061Z" fill="#414141"/>
<path d="M131.787 125.834H122.382L124.619 121.683H132.685L131.787 125.834Z" fill="#414141"/>
<path d="M131.787 131.607H122.382L124.619 127.459H132.685L131.787 131.607Z" fill="#414141"/>
<path d="M142.43 114.285H133.025L135.263 110.137H143.329L142.43 114.285Z" fill="#414141"/>
<path d="M142.43 120.061H133.025L135.263 115.91H143.329L142.43 120.061Z" fill="#414141"/>
<path d="M142.43 125.834H133.025L135.263 121.683H143.329L142.43 125.834Z" fill="#414141"/>
<path d="M142.43 131.607H133.025L135.263 127.459H143.329L142.43 131.607Z" fill="#414141"/>
<path d="M153.074 114.285H143.669L145.906 110.137H153.972L153.074 114.285Z" fill="#414141"/>
<path d="M153.074 120.061H143.669L145.906 115.91H153.972L153.074 120.061Z" fill="#414141"/>
<path d="M153.074 125.834H143.669L145.906 121.683H153.972L153.074 125.834Z" fill="#414141"/>
<path d="M153.074 131.607H143.669L145.906 127.459H153.972L153.074 131.607Z" fill="#414141"/>
<path d="M163.718 114.285H154.31L156.55 110.137H164.616L163.718 114.285Z" fill="#414141"/>
<path d="M163.718 120.061H154.31L156.55 115.91H164.616L163.718 120.061Z" fill="#414141"/>
<path d="M163.718 125.834H154.31L156.55 121.683H164.616L163.718 125.834Z" fill="#414141"/>
<path d="M163.718 131.607H154.31L156.55 127.459H164.616L163.718 131.607Z" fill="#414141"/>
<path d="M174.361 114.285H164.954L167.194 110.137H175.26L174.361 114.285Z" fill="#414141"/>
<path d="M174.361 120.061H164.954L167.194 115.91H175.26L174.361 120.061Z" fill="#414141"/>
<path d="M184.801 120.061H175.396L177.636 115.91H185.702L184.801 120.061Z" fill="#414141"/>
<path d="M174.361 125.834H164.954L167.194 121.683H175.26L174.361 125.834Z" fill="#414141"/>
<path d="M184.801 125.834H175.396L177.636 121.683H185.702L184.801 125.834Z" fill="#414141"/>
<path d="M174.361 131.607H164.954L167.194 127.459H175.26L174.361 131.607Z" fill="#414141"/>
<path d="M184.801 131.607H175.396L177.636 127.459H185.702L184.801 131.607Z" fill="#414141"/>
<path d="M187.412 114.285H178.007L178.841 110.137H186.907L187.412 114.285Z" fill="#414141"/>
<path d="M196.25 120.061H186.842L187.676 115.91H195.742L196.25 120.061Z" fill="#414141"/>
<path d="M197.254 125.834H187.846L188.68 121.683H196.746L197.254 125.834Z" fill="#414141"/>
<path d="M197.052 131.607H187.647L188.478 127.459H196.544L197.052 131.607Z" fill="#414141"/>
<path d="M89.5403 144.437L89.0276 152.017H136.322L135.771 144.437H89.5403Z" fill="#B4B4B4"/>
<path d="M192.165 96.9524H37.024V4.79883H192.165V96.9524Z" fill="#BF384E"/>
<path fill-rule="evenodd" clip-rule="evenodd" d="M71.8655 22.3789C71.8645 22.0482 71.7415 21.7311 71.523 21.4962C71.4137 21.3802 71.2841 21.2882 71.1414 21.2256C70.9988 21.1631 70.846 21.131 70.6917 21.1314H42.5626C42.4083 21.131 42.2555 21.1631 42.1129 21.2256C41.9702 21.2882 41.8406 21.3802 41.7313 21.4962C41.5128 21.7311 41.3897 22.0482 41.3887 22.3789V50.9393C41.3897 51.27 41.5128 51.587 41.7313 51.822C41.8406 51.938 41.9702 52.0299 42.1129 52.0925C42.2555 52.1551 42.4083 52.1871 42.5626 52.1868H70.6917C70.846 52.1871 70.9988 52.1551 71.1414 52.0925C71.2841 52.0299 71.4137 51.938 71.523 51.822C71.7415 51.587 71.8645 51.27 71.8655 50.9393V22.3789Z" fill="#F3F3F3"/>
<path fill-rule="evenodd" clip-rule="evenodd" d="M68.1092 23.7259C68.1958 23.5435 68.3193 23.384 68.4708 23.2587C68.6224 23.1335 68.7982 23.0457 68.9855 23.0017C69.1729 22.9578 69.3671 22.9588 69.554 23.0046C69.741 23.0504 69.916 23.1399 70.0664 23.2667C70.5456 23.7259 70.5456 24.6418 70.0664 25.5627C69.7239 26.249 68.8423 26.9378 68.1092 27.397C67.3738 26.9378 66.4946 26.249 66.152 25.5627C65.6729 24.6443 65.6729 23.7284 66.152 23.2667C66.3025 23.1399 66.4775 23.0504 66.6645 23.0046C66.8514 22.9588 67.0456 22.9578 67.2329 23.0017C67.4203 23.0457 67.5961 23.1335 67.7477 23.2587C67.8992 23.384 68.0227 23.5435 68.1092 23.7259Z" fill="#D47549"/>
<path fill-rule="evenodd" clip-rule="evenodd" d="M72.4501 57.8836C72.4498 57.5515 72.3258 57.2331 72.1051 56.9984C71.9965 56.8822 71.8673 56.7902 71.725 56.7276C71.5827 56.6649 71.4302 56.633 71.2762 56.6336H43.1447C42.9908 56.6333 42.8384 56.6653 42.6961 56.7279C42.5539 56.7905 42.4246 56.8825 42.3158 56.9984C42.2069 57.1147 42.1206 57.2528 42.0618 57.4047C42.003 57.5566 41.9729 57.7193 41.9733 57.8836V86.4415C41.973 86.6054 42.0031 86.7678 42.0619 86.9192C42.1207 87.0707 42.207 87.2083 42.3158 87.3242C42.4246 87.4401 42.5539 87.532 42.6961 87.5946C42.8384 87.6572 42.9908 87.6893 43.1447 87.689H71.2762C71.4302 87.6896 71.5827 87.6576 71.725 87.595C71.8673 87.5324 71.9965 87.4404 72.1051 87.3242C72.2143 87.2085 72.301 87.0709 72.3602 86.9194C72.4193 86.768 72.4499 86.6055 72.4501 86.4415V57.8836Z" fill="#F3F3F3"/>
<path fill-rule="evenodd" clip-rule="evenodd" d="M68.6914 59.2229C68.7779 59.0405 68.9014 58.881 69.0529 58.7557C69.2045 58.6305 69.3803 58.5427 69.5677 58.4987C69.755 58.4548 69.9492 58.4558 70.1361 58.5016C70.3231 58.5474 70.4981 58.6369 70.6486 58.7637C71.1397 59.2229 71.1397 60.1413 70.6486 61.0597C70.306 61.746 69.4268 62.4348 68.6914 62.894C67.9583 62.4348 67.0767 61.746 66.7342 61.0597C66.255 60.1438 66.255 59.2254 66.7342 58.7637C66.8844 58.6365 67.0595 58.5466 67.2465 58.5005C67.4336 58.4544 67.6279 58.4533 67.8154 58.4973C68.0029 58.5413 68.1788 58.6292 68.3303 58.7547C68.4818 58.8803 68.6052 59.0402 68.6914 59.2229Z" fill="white"/>
<path fill-rule="evenodd" clip-rule="evenodd" d="M105.234 22.3789C105.233 22.0476 105.109 21.7303 104.889 21.4962C104.78 21.3802 104.651 21.2883 104.509 21.2257C104.366 21.1631 104.214 21.1311 104.06 21.1313H75.9285C75.7746 21.1311 75.6221 21.1631 75.4799 21.2257C75.3376 21.2883 75.2084 21.3802 75.0996 21.4962C74.8795 21.7303 74.7555 22.0476 74.7546 22.3789V50.9393C74.7555 51.2705 74.8795 51.5879 75.0996 51.822C75.2084 51.9379 75.3376 52.0298 75.4799 52.0924C75.6221 52.155 75.7746 52.1871 75.9285 52.1868H104.06C104.214 52.1878 104.367 52.1562 104.51 52.0941C104.652 52.0319 104.782 51.9403 104.891 51.8245C105.111 51.5905 105.235 51.2731 105.236 50.9418V22.3789H105.234Z" fill="#F3F3F3"/>
<path fill-rule="evenodd" clip-rule="evenodd" d="M101.475 23.7259C101.562 23.5435 101.685 23.384 101.837 23.2587C101.988 23.1335 102.164 23.0457 102.351 23.0017C102.539 22.9578 102.733 22.9588 102.92 23.0046C103.107 23.0504 103.282 23.1399 103.432 23.2667C103.911 23.7259 103.911 24.6418 103.432 25.5627C103.09 26.249 102.211 26.9378 101.475 27.397C100.742 26.9378 99.8605 26.249 99.5179 25.5627C99.0388 24.6443 99.0388 23.7284 99.5179 23.2667C99.6684 23.1399 99.8434 23.0504 100.03 23.0046C100.217 22.9588 100.412 22.9578 100.599 23.0017C100.786 23.0457 100.962 23.1335 101.114 23.2587C101.265 23.384 101.389 23.5435 101.475 23.7259Z" fill="white"/>
<path fill-rule="evenodd" clip-rule="evenodd" d="M105.816 57.8836C105.816 57.7193 105.786 57.5566 105.727 57.4047C105.669 57.2528 105.582 57.1147 105.473 56.9984C105.364 56.8824 105.234 56.7904 105.092 56.7279C104.949 56.6653 104.796 56.6332 104.642 56.6336H76.513C76.3591 56.633 76.2065 56.6649 76.0643 56.7276C75.922 56.7902 75.7928 56.8822 75.6841 56.9984C75.4635 57.2331 75.3394 57.5515 75.3392 57.8836V86.4415C75.3393 86.6055 75.3699 86.768 75.4291 86.9194C75.4883 87.0709 75.575 87.2085 75.6841 87.3242C75.7928 87.4404 75.922 87.5324 76.0643 87.595C76.2065 87.6576 76.3591 87.6896 76.513 87.689H104.652C104.806 87.6894 104.959 87.6573 105.101 87.5947C105.244 87.5321 105.374 87.4402 105.483 87.3242C105.592 87.2083 105.678 87.0707 105.737 86.9192C105.796 86.7678 105.826 86.6054 105.826 86.4415V57.8836H105.816Z" fill="#F3F3F3"/>
<path fill-rule="evenodd" clip-rule="evenodd" d="M102.06 59.223C102.146 59.0406 102.27 58.881 102.421 58.7558C102.573 58.6305 102.749 58.5428 102.936 58.4988C103.123 58.4549 103.317 58.4558 103.504 58.5017C103.691 58.5475 103.866 58.637 104.017 58.7637C104.496 59.223 104.496 60.1414 104.017 61.0598C103.674 61.7461 102.793 62.4349 102.06 62.8941C101.324 62.4349 100.445 61.7461 100.102 61.0598C99.6233 60.1439 99.6233 59.2255 100.102 58.7637C100.253 58.637 100.428 58.5475 100.615 58.5017C100.802 58.4558 100.996 58.4549 101.183 58.4988C101.371 58.5428 101.547 58.6305 101.698 58.7558C101.85 58.881 101.973 59.0406 102.06 59.223Z" fill="white"/>
<path fill-rule="evenodd" clip-rule="evenodd" d="M138.075 22.3789C138.074 22.0476 137.95 21.7303 137.73 21.4962C137.621 21.3802 137.492 21.2883 137.35 21.2257C137.208 21.1631 137.055 21.1311 136.901 21.1313H108.77C108.459 21.1313 108.161 21.2625 107.941 21.4962C107.721 21.7305 107.598 22.048 107.598 22.3789V50.9393C107.598 51.2702 107.721 51.5876 107.941 51.822C108.161 52.0556 108.459 52.1868 108.77 52.1868H136.901C137.055 52.1871 137.208 52.155 137.35 52.0924C137.492 52.0298 137.621 51.9379 137.73 51.822C137.95 51.5879 138.074 51.2705 138.075 50.9393V22.3789Z" fill="#F3F3F3"/>
<path fill-rule="evenodd" clip-rule="evenodd" d="M134.316 23.7261C134.403 23.5436 134.527 23.3841 134.679 23.2588C134.83 23.1336 135.006 23.0458 135.194 23.0019C135.382 22.9579 135.576 22.9589 135.763 23.0047C135.95 23.0505 136.125 23.1401 136.276 23.2668C136.755 23.7261 136.755 24.6419 136.276 25.5629C135.933 26.2492 135.052 26.938 134.316 27.3972C133.583 26.938 132.702 26.2492 132.359 25.5629C131.88 24.6445 131.88 23.7286 132.359 23.2668C132.509 23.1396 132.685 23.0497 132.872 23.0036C133.059 22.9576 133.253 22.9565 133.44 23.0005C133.628 23.0445 133.804 23.1324 133.955 23.2579C134.107 23.3834 134.23 23.5434 134.316 23.7261Z" fill="white"/>
<path fill-rule="evenodd" clip-rule="evenodd" d="M185.537 22.4862C185.537 22.3223 185.507 22.1599 185.448 22.0084C185.389 21.857 185.303 21.7193 185.194 21.6035C184.974 21.3685 184.675 21.2363 184.363 21.2361H144.673C144.519 21.2363 144.366 21.2688 144.224 21.3319C144.082 21.3949 143.952 21.4872 143.844 21.6035C143.735 21.7192 143.648 21.8568 143.589 22.0082C143.529 22.1597 143.499 22.3221 143.499 22.4862V70.9126C143.499 71.0766 143.529 71.2391 143.589 71.3905C143.648 71.542 143.735 71.6795 143.844 71.7953C143.952 71.9116 144.082 72.0038 144.224 72.0669C144.366 72.1299 144.519 72.1625 144.673 72.1626H184.363C184.675 72.1624 184.974 72.0303 185.194 71.7953C185.303 71.6794 185.389 71.5418 185.448 71.3903C185.507 71.2388 185.537 71.0765 185.537 70.9126V22.4862Z" fill="#F3F3F3"/>
<path fill-rule="evenodd" clip-rule="evenodd" d="M180.592 24.032C180.697 23.8077 180.848 23.6113 181.033 23.4573C181.219 23.3032 181.435 23.1954 181.664 23.1418C181.894 23.0882 182.132 23.0902 182.361 23.1476C182.59 23.2049 182.804 23.3162 182.988 23.4733C183.584 24.032 183.584 25.1494 182.988 26.2796C182.569 27.1189 181.495 27.9557 180.592 28.5144C179.696 27.9557 178.623 27.1189 178.197 26.2796C177.6 25.1622 177.6 24.0448 178.197 23.4733C178.38 23.3162 178.594 23.2049 178.823 23.1476C179.052 23.0902 179.29 23.0882 179.52 23.1418C179.75 23.1954 179.965 23.3032 180.151 23.4573C180.337 23.6113 180.487 23.8077 180.592 24.032Z" fill="white"/>
<path fill-rule="evenodd" clip-rule="evenodd" d="M177.011 82.3852C177.011 80.979 176.486 79.6303 175.553 78.6357C174.619 77.6411 173.353 77.082 172.033 77.0813H155.872C155.218 77.0806 154.569 77.2173 153.965 77.4836C153.36 77.7498 152.81 78.1404 152.347 78.633C151.884 79.1255 151.517 79.7105 151.266 80.3543C151.016 80.9981 150.887 81.6883 150.887 82.3852C150.887 83.791 151.412 85.139 152.345 86.1331C153.279 87.1271 154.545 87.6858 155.865 87.6865H172.025C173.346 87.6858 174.611 87.1271 175.545 86.1331C176.478 85.139 177.003 83.791 177.004 82.3852H177.011Z" fill="#E9C06E"/>
<path d="M160.402 82.301C160.649 82.3516 160.871 82.4968 161.025 82.7092C161.182 82.9184 161.266 83.1787 161.264 83.4465C161.272 83.6252 161.24 83.8033 161.173 83.967C161.105 84.1307 161.003 84.2755 160.874 84.3904C160.561 84.6407 160.175 84.7646 159.784 84.74H157.702V79.982H159.712C160.093 79.9582 160.47 80.0764 160.778 80.3162C160.904 80.4235 161.005 80.5609 161.072 80.7174C161.139 80.8739 161.171 81.0449 161.164 81.2168C161.173 81.4673 161.1 81.7133 160.958 81.9132C160.816 82.1002 160.624 82.2357 160.407 82.301H160.402ZM158.785 81.9082H159.504C159.65 81.9174 159.794 81.8733 159.913 81.7832C159.962 81.7374 160.001 81.6802 160.026 81.6161C160.051 81.5519 160.061 81.4825 160.057 81.4132C160.061 81.3436 160.051 81.2738 160.026 81.2092C160.001 81.1446 159.962 81.087 159.913 81.0408C159.798 80.9475 159.656 80.9005 159.511 80.9081H158.792V81.9056L158.785 81.9082ZM159.588 83.8037C159.739 83.8137 159.889 83.7677 160.012 83.6736C160.062 83.6255 160.102 83.5658 160.127 83.4991C160.153 83.4324 160.164 83.3603 160.16 83.2883C160.162 83.2148 160.149 83.1416 160.123 83.0738C160.096 83.0059 160.055 82.9451 160.004 82.8955C159.882 82.7953 159.73 82.7455 159.576 82.7551H158.792V83.8037H159.588Z" fill="white"/>
<path d="M162.961 79.9819V82.8291C162.946 83.0669 163.016 83.3019 163.157 83.4872C163.233 83.5675 163.323 83.6295 163.423 83.6691C163.523 83.7088 163.63 83.725 163.737 83.7169C163.844 83.7243 163.951 83.7077 164.052 83.6682C164.153 83.6286 164.244 83.567 164.321 83.4872C164.467 83.3042 164.54 83.0683 164.525 82.8291V79.9819H165.612V82.8214C165.624 83.1993 165.536 83.5732 165.359 83.9005C165.195 84.1873 164.957 84.4176 164.673 84.5638C164.374 84.7152 164.046 84.7912 163.715 84.7858C163.388 84.7926 163.064 84.7174 162.769 84.5664C162.492 84.4205 162.262 84.1895 162.11 83.9031C161.942 83.5715 161.859 83.1982 161.871 82.8214V79.9819H162.961Z" fill="white"/>
<path d="M170.207 79.9844L168.66 83.1682V84.7398H167.572V83.1682L166.027 79.9844H167.261L168.125 81.9743L168.985 79.9844H170.207Z" fill="white"/>
<path fill-rule="evenodd" clip-rule="evenodd" d="M138.669 57.8836C138.67 57.7193 138.639 57.5566 138.581 57.4047C138.522 57.2528 138.436 57.1147 138.327 56.9984C138.218 56.8825 138.089 56.7905 137.946 56.7279C137.804 56.6653 137.652 56.6333 137.498 56.6335H109.354C109.2 56.6333 109.048 56.6653 108.906 56.7279C108.763 56.7905 108.634 56.8825 108.525 56.9984C108.305 57.2331 108.181 57.5515 108.18 57.8836V86.4415C108.181 86.6055 108.211 86.768 108.27 86.9194C108.33 87.0709 108.416 87.2085 108.525 87.3242C108.634 87.4401 108.763 87.532 108.906 87.5946C109.048 87.6572 109.2 87.6893 109.354 87.689H137.486C137.64 87.6893 137.792 87.6572 137.934 87.5946C138.077 87.532 138.206 87.4401 138.315 87.3242C138.423 87.2083 138.51 87.0707 138.569 86.9192C138.627 86.7677 138.657 86.6054 138.657 86.4415V57.8836H138.669Z" fill="#F3F3F3"/>
<path fill-rule="evenodd" clip-rule="evenodd" d="M134.901 59.223C134.987 59.0406 135.111 58.881 135.262 58.7558C135.414 58.6305 135.59 58.5428 135.777 58.4988C135.965 58.4549 136.159 58.4558 136.346 58.5017C136.533 58.5475 136.708 58.637 136.858 58.7637C137.337 59.223 137.337 60.1414 136.858 61.0598C136.516 61.7461 135.636 62.4349 134.901 62.8941C134.168 62.4349 133.286 61.7461 132.944 61.0598C132.465 60.1439 132.465 59.2255 132.944 58.7637C133.094 58.637 133.269 58.5475 133.456 58.5017C133.643 58.4558 133.837 58.4549 134.025 58.4988C134.212 58.5428 134.388 58.6305 134.539 58.7558C134.691 58.881 134.814 59.0406 134.901 59.223Z" fill="white"/>
<path fill-rule="evenodd" clip-rule="evenodd" d="M176.881 87.5971L173.932 80.6299L180.427 80.7141L179.938 82.4489L183.412 84.8393L181.447 88.9442L177.614 86.1761L176.881 87.5971Z" fill="white"/>
<path fill-rule="evenodd" clip-rule="evenodd" d="M192.069 10.0337H36.9305V15.6208H192.069V10.0337Z" fill="white"/>
<path fill-rule="evenodd" clip-rule="evenodd" d="M174.603 61.3047H147.396V63.3227H174.603V61.3047Z" fill="#455FA6"/>
<path fill-rule="evenodd" clip-rule="evenodd" d="M158.416 65.9299H147.396V68.0372H158.416V65.9299Z" fill="#455FA6"/>
<path fill-rule="evenodd" clip-rule="evenodd" d="M65.8071 43.9287H43.4226V45.5895H65.8071V43.9287Z" fill="#8F8FC1"/>
<path fill-rule="evenodd" clip-rule="evenodd" d="M52.4899 47.7351H43.4226V49.4699H52.4899V47.7351Z" fill="#8F8FC1"/>
<path fill-rule="evenodd" clip-rule="evenodd" d="M66.2335 78.7649H43.849V80.4257H66.2335V78.7649Z" fill="#8F8FC1"/>
<path fill-rule="evenodd" clip-rule="evenodd" d="M52.9163 82.5688H43.849V84.3062H52.9163V82.5688Z" fill="#8F8FC1"/>
<path fill-rule="evenodd" clip-rule="evenodd" d="M99.7527 43.9287H77.3682V45.5895H99.7527V43.9287Z" fill="#8F8FC1"/>
<path fill-rule="evenodd" clip-rule="evenodd" d="M86.4356 47.7351H77.3682V49.4699H86.4356V47.7351Z" fill="#8F8FC1"/>
<path fill-rule="evenodd" clip-rule="evenodd" d="M100.179 78.7649H77.7946V80.4257H100.179V78.7649Z" fill="#8F8FC1"/>
<path fill-rule="evenodd" clip-rule="evenodd" d="M86.862 82.5688H77.7946V84.3062H86.862V82.5688Z" fill="#8F8FC1"/>
<path fill-rule="evenodd" clip-rule="evenodd" d="M132.843 43.9287H110.461V45.5895H132.843V43.9287Z" fill="#8F8FC1"/>
<path fill-rule="evenodd" clip-rule="evenodd" d="M119.528 47.7351H110.461V49.4699H119.528V47.7351Z" fill="#8F8FC1"/>
<path fill-rule="evenodd" clip-rule="evenodd" d="M133.272 78.7649H110.887V80.4257H133.272V78.7649Z" fill="#8F8FC1"/>
<path fill-rule="evenodd" clip-rule="evenodd" d="M119.955 82.5688H110.887V84.3062H119.955V82.5688Z" fill="#8F8FC1"/>
<path d="M57.7747 27.7797C57.7747 27.7797 56.2295 30.1497 54.8401 30.1497C53.4506 30.1497 51.9055 27.7797 51.9055 27.7797L46.8747 29.9175L47.9719 33.1601L50.2884 32.1396V40.8544H59.3917V32.1371L61.7082 33.1575L62.8054 29.915L57.7747 27.7771V27.7797Z" fill="#EDA783"/>
<path d="M169.824 32.5045C169.824 32.5045 167.033 36.793 164.518 36.793C162.005 36.793 159.211 32.5045 159.211 32.5045L150.108 36.3695L152.092 42.2372L156.279 40.3876V56.1616H172.756V40.3851L176.946 42.2347L178.93 36.367L169.826 32.502L169.824 32.5045Z" fill="#EDA783"/>
<path d="M95.9054 65.2309C94.0176 64.6212 94.5662 60.6107 94.5662 60.6107C94.5662 60.6107 94.4656 60.6107 92.7887 60.2612C92.5659 62.1363 91.8161 63.0165 90.5776 63.0165C89.339 63.0165 88.5916 62.1363 88.3688 60.2612C86.6919 60.6107 86.5913 60.6107 86.5913 60.6107C86.5913 60.6107 87.1375 64.6212 85.2498 65.2309C85.6858 68.4786 85.4893 71.54 85.2498 76.2392C85.9205 76.8974 88.5509 76.8796 90.5776 76.8796C92.6042 76.8796 95.237 76.8974 95.9054 76.2392C95.6658 71.54 95.4694 68.4786 95.9054 65.2309Z" fill="#5A9F73"/>
<path d="M93.1193 60.3301L92.7887 60.2612C92.5659 62.1363 91.8161 63.0165 90.5776 63.0165C89.339 63.0165 88.5916 62.1363 88.3688 60.2612L88.0358 60.3301C88.2993 62.3838 89.1594 63.3915 90.5752 63.4426C91.9933 63.3813 92.851 62.3838 93.1145 60.3301H93.1193Z" fill="#9ACAA1"/>
<path d="M128.164 29.9406C126.274 29.3309 126.823 25.3205 126.823 25.3205C126.823 25.3205 126.722 25.3205 125.045 24.9709C124.823 26.8461 124.075 27.7262 122.837 27.7262C121.598 27.7262 120.848 26.8461 120.626 24.9709C118.949 25.3205 118.848 25.3205 118.848 25.3205C118.848 25.3205 119.397 29.3309 117.509 29.9406C117.945 33.1883 117.748 36.2497 117.509 40.949C118.177 41.6072 120.808 41.5893 122.837 41.5893C124.866 41.5893 127.494 41.6072 128.164 40.949C127.925 36.2497 127.728 33.1883 128.164 29.9406Z" fill="#E9D953"/>
<path d="M125.378 25.0371L125.045 24.9683C124.823 26.8434 124.075 27.7235 122.837 27.7235C121.598 27.7235 120.848 26.8434 120.626 24.9683L120.295 25.0371C120.558 27.0781 121.416 28.0986 122.834 28.147C124.25 28.0884 125.11 27.0908 125.374 25.0371H125.378Z" fill="#FBE94F"/>
<path d="M45.5236 74.7469C45.5763 69.6624 45.8254 66.124 46.4962 64.1162C49.1218 64.6796 51.7983 64.9286 54.4759 64.8586V74.6449L54.3466 76.1399C54.3466 76.1399 48.3839 77.0583 45.5236 74.7469Z" fill="#3C6485"/>
<path d="M54.507 61.8022H54.4423C46.35 61.8022 46.4961 62.3354 46.4961 62.3354V64.1213C46.4961 64.1213 48.8917 64.8662 54.4735 64.8637C60.0648 64.8637 62.4508 64.1213 62.4508 64.1213V62.3354C62.4508 62.3354 62.5994 61.8048 54.5046 61.8022H54.507Z" fill="#2D4E67"/>
<path d="M54.3034 64.9351C47.7179 64.907 46.4962 64.1161 46.4962 64.1161V62.3303C46.4962 62.3303 47.6652 63.2105 54.3082 63.2385C54.3515 63.2382 54.3944 63.247 54.4345 63.2644C54.4746 63.2818 54.5111 63.3075 54.5418 63.34C54.5725 63.3725 54.5969 63.4111 54.6136 63.4537C54.6302 63.4963 54.6388 63.5419 54.6388 63.588V64.5804C54.6375 64.6741 54.6016 64.7633 54.5387 64.8288C54.4759 64.8943 54.3913 64.9306 54.3034 64.93V64.9351Z" fill="#3C6485"/>
<path d="M62.3982 64.1289C59.7762 64.6893 57.1039 64.9374 54.4304 64.8688V74.6551L54.5598 76.15C54.5598 76.15 60.5008 77.0659 63.366 74.7698C63.3157 69.6828 63.0665 66.1418 62.4077 64.1289H62.3982Z" fill="#3C6485"/>
<path d="M54.1932 64.9351C61.174 64.9351 62.4532 64.1161 62.4532 64.1161V62.3303C62.4532 62.3303 61.2267 63.2385 54.1932 63.2385V64.93V64.9351Z" fill="#3C6485"/>
<path d="M113.333 74.4254C113.381 69.6624 113.616 66.3509 114.244 64.4758C116.702 65.0037 119.208 65.2373 121.716 65.1723V74.3336L121.593 75.7316C121.593 75.7316 116.012 76.5914 113.333 74.4305V74.4254Z" fill="#72A6D2"/>
<path d="M121.744 62.3048H121.684C114.107 62.3048 114.244 62.8151 114.244 62.8151V64.481C114.244 64.481 116.479 65.18 121.713 65.1774C126.948 65.1774 129.18 64.481 129.18 64.481V62.7947C129.18 62.7947 129.317 62.2844 121.754 62.2844L121.744 62.3048Z" fill="#2D4E67"/>
<path d="M121.553 65.2361C115.386 65.2132 114.244 64.4708 114.244 64.4708V62.7947C114.244 62.7947 115.338 63.6161 121.555 63.6442C121.596 63.6439 121.636 63.6521 121.673 63.6683C121.711 63.6845 121.745 63.7085 121.774 63.7388C121.803 63.7691 121.826 63.8052 121.842 63.845C121.858 63.8848 121.866 63.9275 121.866 63.9708V64.8994C121.866 64.9428 121.858 64.9858 121.842 65.0257C121.826 65.0657 121.803 65.1019 121.773 65.1323C121.744 65.1626 121.71 65.1866 121.672 65.2026C121.634 65.2187 121.593 65.2266 121.553 65.226V65.2361Z" fill="#3C6485"/>
<path d="M129.13 64.4834C126.675 65.0082 124.173 65.24 121.67 65.1748V74.3386L121.792 75.7366C121.792 75.7366 127.355 76.5938 130.038 74.4432C129.99 69.6827 129.758 66.3662 129.13 64.4936V64.4834Z" fill="#72A6D2"/>
<path d="M121.45 65.2387C127.985 65.2387 129.183 64.4733 129.183 64.4733V62.7947C129.183 62.7947 128.035 63.6442 121.45 63.6442V65.2285V65.2387Z" fill="#3C6485"/>
<path d="M92.8893 32.5938C92.2641 31.3361 92.2641 28.7313 92.8726 27.4073C91.7299 27.0425 90.362 26.6572 90.362 26.6572C90.362 26.6572 90.0098 28.5553 88.4742 28.5145C86.9363 28.5553 86.5841 26.6572 86.5841 26.6572C86.5841 26.6572 85.2186 27.0425 84.0759 27.4073C84.682 28.7313 84.682 31.3361 84.0568 32.5938C84.2819 34.9154 84.3083 38.8774 84.0759 42.2704C84.6724 42.5255 85.9085 42.6123 88.4742 42.6123C91.0399 42.6123 92.2761 42.5204 92.8726 42.2704C92.633 38.8774 92.6665 34.9154 92.8893 32.5938Z" fill="#A5D9F5"/>
<path d="M80.3148 42.9081C79.5291 42.7117 78.9757 42.4872 78.4894 41.8877C78.468 41.8605 78.4534 41.828 78.4467 41.7933C78.44 41.7586 78.4415 41.7226 78.4511 41.6887C80.0034 36.344 82.8446 28.2389 84.0759 27.4021C85.3671 27.8511 84.1286 33.5071 84.1286 33.5071C84.1286 33.5071 81.9103 38.6553 80.5233 42.7729C80.509 42.8175 80.48 42.8551 80.4416 42.8786C80.4033 42.902 80.3582 42.9098 80.3148 42.9005V42.9081Z" fill="#A5D9F5"/>
<path d="M89.8685 25.7209H86.9937C86.9937 25.7209 86.1984 25.9761 86.9937 26.7618H89.8685C90.6662 25.9965 89.8685 25.7209 89.8685 25.7209Z" fill="#7EBAD7"/>
<path d="M89.8493 26.7415H87.0009C87.0009 26.7415 86.2056 26.9558 87.0009 27.5884H89.8493C90.647 26.9558 89.8493 26.7415 89.8493 26.7415Z" fill="#7EBAD7"/>
<path d="M88.4359 28.4993C88.1053 28.4993 87.1566 28.4125 87.0848 28.1676C87.0392 27.7594 88.1772 27.512 88.1772 27.512H88.4359V28.4993Z" fill="#90D0F2"/>
<path d="M88.7952 42.6123H87.9496V28.0068H88.7952V42.6123Z" fill="#90D0F2"/>
<path d="M89.3654 28.4992H88.4072C88.2852 28.4992 88.1682 28.4476 88.0819 28.3557C87.9957 28.2639 87.9472 28.1393 87.9472 28.0094C87.9472 27.8795 87.9957 27.7549 88.0819 27.663C88.1682 27.5711 88.2852 27.5195 88.4072 27.5195H89.3654C89.4874 27.5195 89.6044 27.5711 89.6906 27.663C89.7769 27.7549 89.8253 27.8795 89.8253 28.0094C89.8253 28.1393 89.7769 28.2639 89.6906 28.3557C89.6044 28.4476 89.4874 28.4992 89.3654 28.4992Z" fill="#90D0F2"/>
<path d="M88.1772 27.5119C87.6906 27.8327 87.2806 28.2693 86.9794 28.7874C86.9642 28.8127 86.9433 28.8335 86.9186 28.848C86.8939 28.8624 86.8662 28.8699 86.838 28.8699C86.8099 28.8699 86.7821 28.8624 86.7574 28.848C86.7327 28.8335 86.7118 28.8127 86.6967 28.7874C86.3311 28.2319 86.0946 27.5919 86.0067 26.92C85.9989 26.8568 86.0098 26.7926 86.0379 26.7363C86.4499 25.9709 86.7877 25.7158 87.0105 25.7158C86.5481 25.925 86.6464 26.8052 88.1867 27.5016L88.1772 27.5119Z" fill="#7FB1CA"/>
<path d="M88.6683 27.5118C89.1706 27.8398 89.5926 28.2901 89.8996 28.8257C89.9114 28.8486 89.9287 28.8676 89.9498 28.8809C89.9708 28.8942 89.9949 28.9013 90.0194 28.9013C90.0439 28.9013 90.0679 28.8942 90.089 28.8809C90.1101 28.8676 90.1274 28.8486 90.1392 28.8257C90.5203 28.26 90.7669 27.6043 90.8578 26.9148C90.8657 26.8517 90.8548 26.7874 90.8267 26.7312C90.4147 25.9658 90.0769 25.7107 89.8541 25.7107C90.3164 25.9199 90.2182 26.8 88.6779 27.4965L88.6683 27.5118Z" fill="#81B0CA"/>
<path d="M90.017 28.8971C89.9932 28.8973 89.9699 28.8908 89.9492 28.8783C89.9286 28.8657 89.9115 28.8476 89.8996 28.8256C89.8172 28.6808 89.726 28.5419 89.6265 28.4098C89.3967 28.1075 89.1272 27.8421 88.8264 27.6215C89.2612 27.9361 89.6273 28.3468 89.8996 28.8256C89.9115 28.8476 89.9286 28.8657 89.9492 28.8783C89.9699 28.8908 89.9932 28.8973 90.017 28.8971C90.0398 28.8972 90.0623 28.8911 90.0824 28.8795C90.1025 28.868 90.1196 28.8512 90.132 28.8308C90.1196 28.8512 90.1025 28.868 90.0824 28.8795C90.0623 28.8911 90.0398 28.8972 90.017 28.8971ZM90.8483 26.9174C90.8554 26.8769 90.8554 26.8354 90.8483 26.7949C90.8566 26.8353 90.8566 26.877 90.8483 26.9174Z" fill="#7FB1CA"/>
<path d="M88.6012 28.0068C88.6012 28.0745 88.5759 28.1394 88.531 28.1872C88.4861 28.2351 88.4252 28.2619 88.3616 28.2619C88.2981 28.2619 88.2372 28.2351 88.1922 28.1872C88.1473 28.1394 88.1221 28.0745 88.1221 28.0068C88.1221 27.9392 88.1473 27.8743 88.1922 27.8264C88.2372 27.7786 88.2981 27.7517 88.3616 27.7517C88.4252 27.7517 88.4861 27.7786 88.531 27.8264C88.5759 27.8743 88.6012 27.9392 88.6012 28.0068Z" fill="#F0F8FD"/>
<path d="M88.6012 37.6223C88.6016 37.6553 88.5956 37.6881 88.5835 37.7186C88.5714 37.749 88.5536 37.7765 88.5311 37.7992C88.5086 37.822 88.482 37.8395 88.4528 37.8508C88.4236 37.862 88.3926 37.8668 88.3616 37.8647C88.3001 37.8648 88.2409 37.8396 88.1963 37.7945C88.1517 37.7494 88.1251 37.6877 88.1221 37.6223C88.1221 37.5546 88.1473 37.4897 88.1922 37.4419C88.2372 37.3941 88.2981 37.3672 88.3616 37.3672C88.4252 37.3672 88.4861 37.3941 88.531 37.4419C88.5759 37.4897 88.6012 37.5546 88.6012 37.6223Z" fill="#F0F8FD"/>
<path d="M88.6012 39.76C88.6012 39.8277 88.5759 39.8925 88.531 39.9404C88.4861 39.9882 88.4252 40.0151 88.3616 40.0151C88.2981 40.0151 88.2372 39.9882 88.1922 39.9404C88.1473 39.8925 88.1221 39.8277 88.1221 39.76C88.1221 39.6923 88.1473 39.6274 88.1922 39.5796C88.2372 39.5317 88.2981 39.5049 88.3616 39.5049C88.4252 39.5049 88.4861 39.5317 88.531 39.5796C88.5759 39.6274 88.6012 39.6923 88.6012 39.76Z" fill="#F0F8FD"/>
<path d="M88.6012 35.1704C88.6016 35.2034 88.5956 35.2362 88.5835 35.2667C88.5714 35.2971 88.5536 35.3245 88.5311 35.3473C88.5086 35.3701 88.482 35.3876 88.4528 35.3989C88.4236 35.4102 88.3926 35.4149 88.3616 35.4128C88.3001 35.4128 88.2409 35.3877 88.1963 35.3426C88.1517 35.2975 88.1251 35.2358 88.1221 35.1704C88.1221 35.1027 88.1473 35.0379 88.1922 34.99C88.2372 34.9422 88.2981 34.9153 88.3616 34.9153C88.4252 34.9153 88.4861 34.9422 88.531 34.99C88.5759 35.0379 88.6012 35.1027 88.6012 35.1704Z" fill="#F0F8FD"/>
<path d="M88.6012 32.7367C88.6012 32.8044 88.5759 32.8693 88.531 32.9171C88.4861 32.965 88.4252 32.9919 88.3616 32.9919C88.2981 32.9919 88.2372 32.965 88.1922 32.9171C88.1473 32.8693 88.1221 32.8044 88.1221 32.7367C88.1251 32.6713 88.1517 32.6097 88.1963 32.5645C88.2409 32.5194 88.3001 32.4943 88.3616 32.4944C88.4231 32.4943 88.4823 32.5194 88.5269 32.5645C88.5715 32.6097 88.5981 32.6713 88.6012 32.7367Z" fill="#F0F8FD"/>
<path d="M88.6012 30.3335C88.6033 30.3676 88.5986 30.4017 88.5873 30.4337C88.576 30.4657 88.5584 30.4947 88.5357 30.5189C88.513 30.543 88.4858 30.5618 88.4557 30.5738C88.4257 30.5858 88.3936 30.5909 88.3616 30.5886C88.2981 30.5886 88.2372 30.5617 88.1922 30.5139C88.1473 30.466 88.1221 30.4011 88.1221 30.3335C88.1221 30.2658 88.1473 30.2009 88.1922 30.1531C88.2372 30.1053 88.2981 30.0784 88.3616 30.0784C88.4252 30.0784 88.4861 30.1053 88.531 30.1531C88.5759 30.2009 88.6012 30.2658 88.6012 30.3335Z" fill="#F0F8FD"/>
<path d="M88.7952 38.3033C88.6179 38.3033 88.4407 38.2854 88.261 38.2854C88.158 38.2854 88.055 38.2854 87.9496 38.2854V29.0833C88.055 29.0833 88.1604 29.0706 88.2658 29.0706H88.467C88.5748 29.0706 88.685 29.0706 88.7952 29.0859V38.3033ZM88.3736 37.3797C88.3101 37.3797 88.2491 37.4066 88.2042 37.4545C88.1593 37.5023 88.134 37.5672 88.134 37.6349C88.1371 37.7003 88.1637 37.7619 88.2083 37.8071C88.2529 37.8522 88.3121 37.8773 88.3736 37.8772C88.4046 37.8793 88.4356 37.8746 88.4648 37.8633C88.4939 37.8521 88.5206 37.8345 88.5431 37.8118C88.5656 37.789 88.5834 37.7615 88.5955 37.7311C88.6075 37.7007 88.6135 37.6679 88.6132 37.6349C88.6132 37.5672 88.5879 37.5023 88.543 37.4545C88.4981 37.4066 88.4371 37.3797 88.3736 37.3797ZM88.3736 34.9281C88.3101 34.9281 88.2491 34.9549 88.2042 35.0028C88.1593 35.0506 88.134 35.1155 88.134 35.1832C88.1371 35.2486 88.1637 35.3103 88.2083 35.3554C88.2529 35.4005 88.3121 35.4256 88.3736 35.4255C88.4046 35.4276 88.4356 35.4229 88.4648 35.4117C88.4939 35.4004 88.5206 35.3828 88.5431 35.3601C88.5656 35.3373 88.5834 35.3099 88.5955 35.2794C88.6075 35.249 88.6135 35.2162 88.6132 35.1832C88.6132 35.1155 88.5879 35.0506 88.543 35.0028C88.4981 34.9549 88.4371 34.9281 88.3736 34.9281ZM88.3736 32.4968C88.3121 32.4967 88.2529 32.5218 88.2083 32.5669C88.1637 32.6121 88.1371 32.6737 88.134 32.7391C88.134 32.8068 88.1593 32.8717 88.2042 32.9195C88.2491 32.9674 88.3101 32.9943 88.3736 32.9943C88.4371 32.9943 88.4981 32.9674 88.543 32.9195C88.5879 32.8717 88.6132 32.8068 88.6132 32.7391C88.6101 32.6737 88.5835 32.6121 88.5389 32.5669C88.4943 32.5218 88.4351 32.4967 88.3736 32.4968ZM88.3736 30.091C88.3101 30.091 88.2491 30.1179 88.2042 30.1658C88.1593 30.2136 88.134 30.2785 88.134 30.3461C88.134 30.4138 88.1593 30.4787 88.2042 30.5265C88.2491 30.5744 88.3101 30.6013 88.3736 30.6013C88.4056 30.6035 88.4377 30.5985 88.4677 30.5864C88.4977 30.5744 88.525 30.5557 88.5477 30.5315C88.5704 30.5074 88.5879 30.4784 88.5992 30.4464C88.6105 30.4144 88.6153 30.3802 88.6132 30.3461C88.6132 30.2785 88.5879 30.2136 88.543 30.1658C88.4981 30.1179 88.4371 30.091 88.3736 30.091Z" fill="#97D4F4"/>
<path d="M88.3736 37.8647C88.3121 37.8648 88.2529 37.8396 88.2083 37.7945C88.1637 37.7494 88.1371 37.6877 88.1341 37.6223C88.1341 37.5546 88.1593 37.4897 88.2042 37.4419C88.2492 37.3941 88.3101 37.3672 88.3736 37.3672C88.4372 37.3672 88.4981 37.3941 88.543 37.4419C88.5879 37.4897 88.6132 37.5546 88.6132 37.6223C88.6136 37.6553 88.6076 37.6881 88.5955 37.7186C88.5834 37.749 88.5656 37.7765 88.5431 37.7992C88.5206 37.822 88.494 37.8395 88.4648 37.8508C88.4356 37.862 88.4046 37.8668 88.3736 37.8647Z" fill="#F1F9FD"/>
<path d="M88.3736 35.4128C88.3121 35.4128 88.2529 35.3877 88.2083 35.3426C88.1637 35.2975 88.1371 35.2358 88.1341 35.1704C88.1341 35.1027 88.1593 35.0379 88.2042 34.99C88.2492 34.9422 88.3101 34.9153 88.3736 34.9153C88.4372 34.9153 88.4981 34.9422 88.543 34.99C88.5879 35.0379 88.6132 35.1027 88.6132 35.1704C88.6136 35.2034 88.6076 35.2362 88.5955 35.2667C88.5834 35.2971 88.5656 35.3245 88.5431 35.3473C88.5206 35.3701 88.494 35.3876 88.4648 35.3989C88.4356 35.4102 88.4046 35.4149 88.3736 35.4128Z" fill="#F1F9FD"/>
<path d="M88.3736 32.9816C88.3101 32.9816 88.2492 32.9547 88.2042 32.9069C88.1593 32.859 88.1341 32.7942 88.1341 32.7265C88.1371 32.6611 88.1637 32.5994 88.2083 32.5543C88.2529 32.5092 88.3121 32.484 88.3736 32.4841C88.4351 32.484 88.4943 32.5092 88.5389 32.5543C88.5835 32.5994 88.6101 32.6611 88.6132 32.7265C88.6132 32.7942 88.5879 32.859 88.543 32.9069C88.4981 32.9547 88.4372 32.9816 88.3736 32.9816Z" fill="#F1F9FD"/>
<path d="M88.3736 30.5759C88.3101 30.5759 88.2492 30.549 88.2042 30.5012C88.1593 30.4533 88.1341 30.3885 88.1341 30.3208C88.1341 30.2531 88.1593 30.1882 88.2042 30.1404C88.2492 30.0925 88.3101 30.0657 88.3736 30.0657C88.4372 30.0657 88.4981 30.0925 88.543 30.1404C88.5879 30.1882 88.6132 30.2531 88.6132 30.3208C88.6153 30.3549 88.6106 30.389 88.5993 30.421C88.588 30.453 88.5704 30.482 88.5477 30.5062C88.525 30.5303 88.4978 30.5491 88.4677 30.5611C88.4377 30.5731 88.4056 30.5782 88.3736 30.5759Z" fill="#F1F9FD"/>
<path d="M96.5761 42.8725C97.3619 42.6786 97.9153 42.4515 98.4016 41.852C98.4229 41.8248 98.4376 41.7924 98.4443 41.7577C98.451 41.7229 98.4495 41.687 98.4399 41.653C96.8876 36.2956 94.0488 28.2032 92.8174 27.3665C91.5238 27.818 92.7623 33.474 92.7623 33.474C92.7623 33.474 94.9807 38.6197 96.3557 42.7373C96.37 42.7819 96.399 42.8194 96.4374 42.8429C96.4757 42.8664 96.5208 42.8742 96.5641 42.8648L96.5761 42.8725Z" fill="#A5D9F5"/>
</g>
<defs>
<clipPath id="clip0_56_45">
<rect width="229" height="168" fill="white"/>
</clipPath>
</defs>
</svg>
