<svg width="46" height="26" viewBox="0 0 46 26" fill="none" xmlns="http://www.w3.org/2000/svg">
<path d="M1.74195 25.654L12.3057 4.89354V4.72053H0V0.346008H17.8799V4.78232L7.30376 25.654H1.74195Z" fill="white"/>
<path d="M20.3404 25.9753C19.5192 25.9753 18.8141 25.6869 18.2252 25.1103C17.6445 24.5254 17.3542 23.8251 17.3542 23.0095C17.3542 22.2022 17.6445 21.5101 18.2252 20.9335C18.8141 20.3568 19.5192 20.0684 20.3404 20.0684C21.1367 20.0684 21.8335 20.3568 22.4308 20.9335C23.028 21.5101 23.3266 22.2022 23.3266 23.0095C23.3266 23.5532 23.1856 24.0516 22.9036 24.5048C22.6298 24.9496 22.269 25.308 21.8211 25.5799C21.3731 25.8435 20.8796 25.9753 20.3404 25.9753Z" fill="white"/>
<path d="M36.1082 26C34.1921 26 32.4874 25.6911 30.9943 25.0732C29.5095 24.4471 28.3441 23.5944 27.498 22.5152C26.6519 21.436 26.2288 20.2126 26.2288 18.8451C26.2288 17.7906 26.4694 16.8226 26.9505 15.9411C27.4399 15.0513 28.1035 14.314 28.9413 13.7291C29.7791 13.1359 30.7164 12.757 31.7533 12.5922V12.4192C30.3929 12.1473 29.2897 11.4924 28.4436 10.4544C27.5975 9.40811 27.1745 8.19297 27.1745 6.80894C27.1745 5.49905 27.5602 4.33333 28.3316 3.31179C29.1031 2.282 30.1607 1.47465 31.5045 0.889734C32.8566 0.296578 34.3911 0 36.1082 0C37.8253 0 39.3557 0.296578 40.6995 0.889734C42.0516 1.48289 43.1133 2.29436 43.8848 3.32414C44.6562 4.34569 45.0461 5.50729 45.0544 6.80894C45.0461 8.20121 44.6147 9.41635 43.7603 10.4544C42.906 11.4924 41.811 12.1473 40.4755 12.4192V12.5922C41.4958 12.757 42.4207 13.1359 43.2502 13.7291C44.088 14.314 44.7516 15.0513 45.241 15.9411C45.7387 16.8226 45.9917 17.7906 46 18.8451C45.9917 20.2126 45.5645 21.436 44.7184 22.5152C43.8723 23.5944 42.7027 24.4471 41.2096 25.0732C39.7248 25.6911 38.0243 26 36.1082 26ZM36.1082 22.0703C36.9626 22.0703 37.7091 21.9179 38.3479 21.6131C38.9866 21.3001 39.4843 20.8717 39.841 20.3279C40.2059 19.776 40.3884 19.1416 40.3884 18.4249C40.3884 17.6917 40.2018 17.045 39.8285 16.4848C39.4552 15.9164 38.9492 15.4715 38.3105 15.1502C37.6718 14.8207 36.9377 14.6559 36.1082 14.6559C35.287 14.6559 34.5529 14.8207 33.9059 15.1502C33.2589 15.4715 32.7487 15.9164 32.3754 16.4848C32.0105 17.045 31.828 17.6917 31.828 18.4249C31.828 19.1416 32.0063 19.776 32.363 20.3279C32.7197 20.8717 33.2215 21.3001 33.8685 21.6131C34.5156 21.9179 35.2621 22.0703 36.1082 22.0703ZM36.1082 10.7633C36.8216 10.7633 37.4561 10.6191 38.0119 10.3308C38.5677 10.0425 39.0032 9.6429 39.3184 9.13213C39.6336 8.62136 39.7912 8.03232 39.7912 7.36502C39.7912 6.70596 39.6336 6.12928 39.3184 5.63498C39.0032 5.13245 38.5718 4.74113 38.0243 4.46103C37.4769 4.17269 36.8382 4.02852 36.1082 4.02852C35.3865 4.02852 34.7478 4.17269 34.1921 4.46103C33.6363 4.74113 33.2008 5.13245 32.8856 5.63498C32.5787 6.12928 32.4252 6.70596 32.4252 7.36502C32.4252 8.03232 32.5828 8.62136 32.898 9.13213C33.2132 9.6429 33.6487 10.0425 34.2045 10.3308C34.7603 10.6191 35.3948 10.7633 36.1082 10.7633Z" fill="white"/>
</svg>
