<svg width="41" height="41" viewBox="0 0 41 41" fill="none" xmlns="http://www.w3.org/2000/svg">
<path d="M20.9766 2.66821C20.6707 2.54502 20.3293 2.54502 20.0234 2.66821L4.73038 8.81443L10.8906 11.2889L26.6603 4.95212L20.9766 2.66821ZM30.1094 6.33998L14.3398 12.6767L20.5 15.1512L36.2696 8.81443L30.1094 6.33998ZM38.4375 10.7173L21.7812 17.4119V37.81L38.4375 31.1154V10.7198V10.7173ZM19.2188 37.8126V17.4093L2.5625 10.7173V31.1179L19.2188 37.8126ZM19.0727 0.276156C19.9889 -0.0920521 21.0111 -0.0920521 21.9273 0.276156L40.1954 7.61969C40.4329 7.71533 40.6365 7.88024 40.7799 8.09318C40.9233 8.30611 40.9999 8.55732 41 8.81443V31.1179C40.9997 31.6325 40.846 32.1351 40.5587 32.561C40.2714 32.9869 39.8637 33.3165 39.3882 33.5074L20.9766 40.9076C20.6707 41.0308 20.3293 41.0308 20.0234 40.9076L1.61437 33.5074C1.13839 33.3169 0.730165 32.9875 0.442395 32.5615C0.154626 32.1356 0.000528719 31.6328 0 31.1179L0 8.81443C5.95524e-05 8.55732 0.0767308 8.30611 0.220137 8.09318C0.363543 7.88024 0.567114 7.71533 0.804625 7.61969L19.0727 0.276156Z" fill="#CC5336"/>
</svg>
